<?xml version="1.0" encoding="utf-8"?>
<!-- Generator: Adobe Illustrator 19.2.0, SVG Export Plug-In . SVG Version: 6.00 Build 0)  -->
<svg version="1.1" xmlns="http://www.w3.org/2000/svg" xmlns:xlink="http://www.w3.org/1999/xlink" x="0px" y="0px"
	 viewBox="0 0 311.726 61.916" style="enable-background:new 0 0 311.726 61.916;" xml:space="preserve">
<style type="text/css">
	.st0{fill-rule:evenodd;clip-rule:evenodd;fill:#004282;}
</style>
<g id="Background">
</g>
<g id="Guides">
</g>
<g id="Foreground">
	<g>
		<path class="st0" d="M288.642,52.789h10.737v-9.305h-10.737v-9.126H299.2c0.358-7.516-4.295-8.41-10.558-8.41v-9.484h4.295
			c5.189,0,10.379,0.716,14.316,4.653c3.221,3.221,4.474,7.874,4.474,12.347v28.453h-23.084V52.789z M277.905,48.137
			c-0.358,4.474,3.042,4.653,6.442,4.653h4.295v9.126h-9.305c-9.305,0-14.495-5.368-13.958-14.495
			c0.716-10.916,8.589-13.063,18.074-13.063h5.189v9.126h-3.4C281.663,43.484,278.084,43.842,277.905,48.137L277.905,48.137z
			 M288.642,16.463v9.484h-0.179h-20.042v-9.484H288.642L288.642,16.463z M216.705,61.916V16.463h22.547
			c11.989,0,18.968,3.758,18.968,16.642v28.811h-11.99V34c0-6.442-1.432-8.053-7.874-8.053h-9.663v35.968H216.705L216.705,61.916z
			 M208.652,0v11.274h-12.705V0H208.652L208.652,0z M208.652,16.463v45.453h-12.705V16.463H208.652L208.652,16.463z M137.789,61.916
			V33.463c0-23.8,4.832-33.463,30.242-33.463h19.863v10.916h-20.937c-10.916,0-15.568,3.937-16.105,15.032h37.042v10.737h-37.042
			v25.232H137.789z"/>
		<rect y="25.955" class="st0" width="2.326" height="35.961"/>
		<rect x="9.484" y="25.955" class="st0" width="2.863" height="35.961"/>
		<rect x="19.505" y="25.955" class="st0" width="3.758" height="35.961"/>
		<rect x="30.421" y="25.955" class="st0" width="5.01" height="35.961"/>
		<rect x="42.589" y="25.955" class="st0" width="6.442" height="35.961"/>
		<rect x="56.189" y="25.955" class="st0" width="8.41" height="35.961"/>
		<rect x="71.579" y="25.955" class="st0" width="11.095" height="35.961"/>
		<rect x="89.831" y="25.955" class="st0" width="14.316" height="35.961"/>
		<rect x="111.126" y="25.955" class="st0" width="18.611" height="35.961"/>
	</g>
</g>
<g id="Layer_1">
</g>
</svg>
