<?xml version="1.0" encoding="utf-8"?>
<!-- Generator: Adobe Illustrator 19.2.0, SVG Export Plug-In . SVG Version: 6.00 Build 0)  -->
<svg version="1.1" id="Layer_1" xmlns="http://www.w3.org/2000/svg" xmlns:xlink="http://www.w3.org/1999/xlink" x="0px" y="0px"
	 viewBox="0 0 145 66" style="enable-background:new 0 0 145 66;" xml:space="preserve">
<style type="text/css">
	.st0{fill:#D71920;}
	.st1{fill:#FFFFFF;}
</style>
<rect class="st0" width="145" height="66"/>
<path class="st1" d="M49.98,49.306c0-0.85,1.01-1.479,3.344-1.479c3.033,0,3.693,0.738,3.693,1.443c0,0.738-1.633,1.811-3.693,2.479
	C51.689,51.12,49.98,50.12,49.98,49.306 M55.773,52.452c1.711-0.889,3.188-2.072,3.188-3.367c0-0.852-0.814-2.775-5.521-2.775
	c-4.666,0-5.404,2.072-5.404,2.996c0,1.26,1.051,2.221,2.566,3.035c-11.705,2.072-27.455,2.109-40.287-1.555v4.957
	c12.677,2.701,29.671,2.555,42.892-2.256c13.611,5.143,46.859,8.732,79.718-0.111V47.53C105.665,56.522,74.477,56.891,55.773,52.452
	 M62.091,25.336c0.768,0,1.574,0.229,1.844,1.267c-2.92,6.371-6.26,11.018-8.373,11.018c-0.846,0-1.383-0.689-1.383-1.803
	C54.179,32.36,58.827,25.336,62.091,25.336 M17.649,41.114c7.49,0,11.141-3.725,15.289-12.515c3.379-0.808,5.684-1.919,6.605-1.919
	c1.346,0,1.422,1.227,0.424,3.414c-1.152,2.572-3.111,6.297-5.648,10.443h5.07c1.307-2.609,2.268-4.375,3.688-6.911
	c1.807-3.3,4.303-5.566,5.34-6.027c1.113,0.922,2.766,1.459,5.607-0.191c-3.379,3.608-4.609,6.947-4.609,9.635
	c0,2.572,1.537,4.07,3.766,4.07c1.996,0,4.033-0.998,6.299-4.107c-0.922,2.879,0.844,4.107,2.457,4.107
	c2.189,0,3.803-1.459,7.338-6.143c4.146-5.528,6.068-8.407,7.181-8.407c0.652,0,1,0.384,0.424,1.767
	c-1.461,3.414-4.15,7.984-6.646,12.207h4.916c1.191-2.264,2.191-4.184,3.881-6.948c2.727-4.492,5.455-6.681,6.453-6.681
	c0.498,0,0.73,0.23,0.73,0.768c0,2.073-5.07,7.947-5.07,10.559c0,1.572,0.959,2.879,2.996,2.879c2.305,0,5.262-1.498,7.451-3.84
	c0.307,2.727,2.766,3.84,4.992,3.84c2.689,0,5.992-0.883,9.143-4.338l-2.113,3.762h4.918c2.587-4.909,5.236-9.784,7.949-14.625
	c3.189-0.27,3.035,1.726,1.5,4.682c-1.652,3.148-3.035,4.955-3.035,7.025c0,2.342,1.881,3.494,4.533,3.494
	c4.494,0,7.988-2.764,9.756-5.066l-0.77-0.846c-1.498,1.574-4.188,3.072-6.145,3.072c-1.037,0-2.65-0.232-2.65-1.844
	c0-0.998,1.459-2.881,2.498-4.723c2.342-4.26,2.572-6.525-0.463-7.37c2.035-0.768,3.418-2.457,5.416-4.183
	c2.574-2.229,4.033-3.11,5.686-3.11l1.881-5.027c-2.611-0.27-4.072,0.691-7.797,5.643c-2.996,3.992-5.955,6.371-9.334,6.295
	c2.191-3.877,4.418-7.793,6.799-11.822c-1.498,0.423-3.688,0.844-5.607,0.882c-2.687,5.128-5.44,10.22-8.258,15.277l-1.076,1.918
	c-3.379,5.914-8.336,8.217-10.486,8.217c-1.268,0-2.459-0.498-2.459-2.111c0-4.11,5.262-11.095,8.336-11.095
	c0.807,0,1.344,0.154,1.689,0.884c-2.381-0.115-3.033,1.228-3.033,2.148c0,1.114,0.768,1.881,1.92,1.881
	c1.729,0,3.072-1.65,3.072-3.569c0-2.033-1.535-3.225-3.764-3.225c-5.801,0-12.061,5.796-13.021,11.786
	c-1.844,1.996-3.65,2.803-4.686,2.764c-0.613,0-0.883-0.307-0.883-0.73c0-1.457,5.338-8.177,5.338-10.902
	c0-1.688-0.844-2.917-2.689-2.917c-1.729,0-4.225,0.691-7.412,4.798c1.268-3.837-0.846-4.798-2.42-4.798
	c-2.535,0-4.877,2.495-9.488,8.674c-2.918,3.842-4.686,5.606-5.301,5.606c-0.268,0-0.461-0.115-0.461-0.422
	c0-0.883,3.727-7.755,7.223-13.206h-3.305l-2.381,1.229c-0.461-1.457-2.035-1.881-3.227-1.881c-1.113,0-2.65,0.461-4.418,1.268
	c-1.15,0.613-2.496,0.958-3.764,0.958c-1.42,0-2.111-1.457-2.342-2.493c-1.191,0.536-4.033,2.417-5.916,4.757
	c0.846-2.8-0.115-4.489-2.42-4.489c-1.92,0-4.955,1.805-9.219,3.187c0.115-0.27,0.27-0.576,0.385-0.844
	c2.996-6.833,6.453-9.636,9.68-11.21c-7.836-0.346-12.061,2.918-15.711,11.554c-0.258,0.65-0.539,1.291-0.844,1.92
	c-2.123,0.208-4.263,0.169-6.377-0.117l-0.5,1.115c2.189,0.461,4.264,0.613,6.186,0.537c-3.342,7.025-6.186,9.713-10.525,9.713
	c-2.189,0-4.417-0.998-4.494-3.186c0.422,0.383,0.922,0.729,1.767,0.729c1.153,0,2.151-0.844,2.151-1.998
	c0-1.19-0.922-2.073-2.304-2.073c-0.961,0-2.996,0.615-2.996,3.418C10.314,38.274,12.003,41.114,17.649,41.114"/>
<path class="st1" d="M64.341,8.523c1.344,0.047,1.893,0.797,1.867,1.563c-0.045,1.265-1.662,2.476-4.158,2.391
	c-1.002-0.036-2.001-0.148-2.986-0.335C60.86,10.207,62.46,8.459,64.341,8.523 M20.282,22.08c3.57,0.125,6.416-2.08,8.342-5.545
	l-0.865-0.531c-2.109,3.192-4.318,4.805-7.158,4.705c-1.498-0.053-2.432-0.814-2.414-2.389c0.135-3.912,5.559-7.297,13.85-7.005
	c7.754,0.271,13.252,2.419,19.053,3.583c-0.832,0.701-1.703,1.477-2.652,2.212c2.939,0.601,5.197-0.241,7.09-1.599
	c0.459,0.057,0.92,0.072,1.379,0.09c6.219,0.216,10.688-2.279,10.799-5.462c0.053-1.496-1.131-2.806-3.551-2.89
	c-3.262-0.113-5.934,1.56-8.902,4.029c-5.41-1.415-11.75-3.674-20.848-3.991c-10.017-0.35-17.756,4.375-17.976,10.703
	C16.327,20.867,18.401,22.016,20.282,22.08"/>
</svg>
