<?xml version="1.0" encoding="utf-8"?>
<!-- Generator: Adobe Illustrator 19.2.1, SVG Export Plug-In . SVG Version: 6.00 Build 0)  -->
<svg version="1.1" xmlns="http://www.w3.org/2000/svg" xmlns:xlink="http://www.w3.org/1999/xlink" x="0px" y="0px"
	 viewBox="0 0 75.7 37.2" style="enable-background:new 0 0 75.7 37.2;" xml:space="preserve">
<style type="text/css">
	.ht-st0{fill:#E20074;}
</style>

<g id="Marke">
	<path class="ht-st0" d="M0,24.6v-7.5h7.5v7.5H0z"/>
	<path class="ht-st0" d="M23,24.6v-7.5h7.5v7.5H23z"/>
	<path class="ht-st0" d="M45.6,24.6v-7.5h7.5v7.5H45.6z"/>
	<path class="ht-st0" d="M68.2,24.6v-7.5h7.5v7.5H68.2z"/>
	<path class="ht-st0" d="M30.1,0H0.4L0,13.1l2,0.3c0.4-3.9,1.4-6.7,3-8.6c1.8-2,4.2-3,7.3-3.1v27.5c0,2.4-0.3,4-1,4.7
		c-0.6,0.6-1.6,1-3,1.1c-0.4,0-1.1,0.1-2.2,0.1v2.1h18.4v-2.1c-1,0-1.7,0-2.2-0.1c-1.4-0.1-2.4-0.5-3-1.1c-0.7-0.7-1-2.3-1-4.7V1.8
		c3.1,0.1,5.5,1.1,7.3,3.1c1.7,1.9,2.7,4.7,3,8.6l2-0.3L30.1,0z"/>
</g>
</svg>
