<?xml version="1.0" encoding="utf-8"?>
<!-- Generator: Adobe Illustrator 19.2.0, SVG Export Plug-In . SVG Version: 6.00 Build 0)  -->
<svg version="1.1" id="Layer_1" xmlns="http://www.w3.org/2000/svg" xmlns:xlink="http://www.w3.org/1999/xlink" x="0px" y="0px"
	 viewBox="0 0 313.848 85.248" style="enable-background:new 0 0 313.848 85.248;" xml:space="preserve">
<style type="text/css">
	.st0{fill-rule:evenodd;clip-rule:evenodd;fill:#005A9C;}
</style>
<g>
	<polygon class="st0" points="56.736,0 134.64,0 149.04,53.64 149.04,0 191.448,0 191.448,85.248 113.4,85.248 99.216,32.256 
		99.216,85.248 56.736,85.248 	"/>
	<path class="st0" d="M0,0h42.552v85.248H0V0L0,0z M21.312,2.52c-10.44,0-18.936,8.496-18.936,18.936
		c0,10.368,8.496,18.864,18.936,18.864c10.368,0,18.864-8.496,18.864-18.864C40.176,11.016,31.68,2.52,21.312,2.52z"/>
	<path class="st0" d="M256.968,21.24l-4.896,21.456h9.792L256.968,21.24L256.968,21.24z M245.952,71.064l-3.312,14.184h-42.552
		L215.064,0h83.808l14.976,85.248h-42.552l-3.312-14.184H245.952z"/>
</g>
</svg>
