<?xml version="1.0" encoding="utf-8"?>
<!-- Generator: Adobe Illustrator 19.2.0, SVG Export Plug-In . SVG Version: 6.00 Build 0)  -->
<svg version="1.1" id="Layer_1" xmlns="http://www.w3.org/2000/svg" xmlns:xlink="http://www.w3.org/1999/xlink" x="0px" y="0px"
	 viewBox="0 0 71.103 16.209" style="enable-background:new 0 0 71.103 16.209;" xml:space="preserve">
<style type="text/css">
	.st0{fill:none;}
	.st1{fill:#FF0000;}
</style>
<rect class="st0" width="71.103" height="16.209"/>
<g>
	<path class="st1" d="M31.229,9.288h4.164l-2.199-3.545l-4.038,6.408l-1.84,0.002l4.916-7.695c0.208-0.313,0.568-0.501,0.96-0.501
		c0.387,0,0.742,0.183,0.951,0.487l4.932,7.709l-1.841-0.002l-0.864-1.432H32.15L31.229,9.288z M50.333,10.72V4.036h-1.562v7.337
		c0,0.203,0.083,0.397,0.228,0.542c0.153,0.151,0.354,0.235,0.572,0.235h7.116l0.918-1.431H50.333z M24.518,9.523
		c1.515,0,2.743-1.229,2.743-2.744c0-1.515-1.229-2.744-2.743-2.744h-6.829v8.114h1.559V5.466h5.162
		c0.727,0,1.313,0.587,1.313,1.313c0,0.725-0.586,1.314-1.313,1.314l-4.397-0.001l4.657,4.058h2.267l-3.133-2.628L24.518,9.523z
		 M8.085,12.15c-2.24,0-4.058-1.815-4.058-4.057c0-2.241,1.817-4.058,4.058-4.058h4.716c2.241,0,4.057,1.817,4.057,4.058
		c0,2.242-1.816,4.058-4.057,4.058L8.085,12.15z M12.697,10.721c1.451,0,2.626-1.176,2.626-2.627c0-1.451-1.175-2.627-2.626-2.627
		L8.19,5.466c-1.451,0-2.627,1.176-2.627,2.627c0,1.451,1.176,2.627,2.627,2.627H12.697z M42.33,12.15
		c-2.24,0-4.058-1.815-4.058-4.057c0-2.241,1.818-4.058,4.058-4.058h5.605l-0.918,1.431l-4.581-0.001
		c-1.452,0-2.628,1.176-2.628,2.627c0,1.451,1.176,2.627,2.628,2.627h5.626l-0.917,1.43H42.33z M61.417,10.721
		c-1.201,0-2.216-0.808-2.526-1.909h6.67l0.919-1.431l-7.591,0c0.311-1.105,1.325-1.914,2.528-1.914l4.578,0.001l0.92-1.431H61.31
		c-2.239,0-4.057,1.817-4.057,4.058c0,2.241,1.818,4.057,4.057,4.057h4.815l0.917-1.43H61.417z"/>
	<path class="st1" d="M67.751,4.9c0-0.395,0.32-0.716,0.717-0.716c0.396,0,0.716,0.321,0.716,0.716c0,0.398-0.319,0.718-0.716,0.718
		C68.072,5.618,67.751,5.297,67.751,4.9z M68.468,5.815c0.504,0,0.913-0.409,0.913-0.912c0-0.504-0.409-0.912-0.913-0.912
		c-0.503,0-0.911,0.408-0.911,0.912C67.557,5.407,67.965,5.815,68.468,5.815z M68.382,4.362c0.141,0,0.198,0.001,0.268,0.027
		c0.18,0.06,0.198,0.226,0.198,0.287c0,0.013-0.002,0.047-0.011,0.084c-0.011,0.039-0.033,0.117-0.127,0.175
		c-0.011,0.008-0.017,0.013-0.046,0.024l0.237,0.425h-0.229l-0.208-0.391h-0.139v0.391h-0.2V4.362H68.382z M68.454,4.824
		c0.062-0.001,0.13-0.006,0.17-0.064c0.017-0.025,0.024-0.053,0.024-0.088c0-0.055-0.029-0.1-0.077-0.124
		C68.524,4.53,68.477,4.53,68.382,4.53h-0.057v0.293H68.454z"/>
</g>
</svg>
