<!DOCTYPE svg PUBLIC "-//W3C//DTD SVG 20010904//EN" "http://www.w3.org/TR/2001/REC-SVG-20010904/DTD/svg10.dtd">
<svg version="1.0" xmlns="http://www.w3.org/2000/svg" width="200px" height="66px" viewBox="0 0 2000 660" preserveAspectRatio="xMidYMid meet">
<g id="layer101" fill="#000000" stroke="none">
 <path d="M50 450 c0 -220 4 -242 49 -294 53 -60 174 -78 249 -36 146 82 132 306 -23 365 -26 10 -62 16 -89 13 l-46 -3 0 82 0 83 -70 0 -70 0 0 -210z m234 -111 c30 -23 33 -45 10 -77 -29 -42 -104 -18 -104 35 0 25 32 63 54 63 7 0 25 -9 40 -21z"/>
 <path d="M595 486 c-87 -38 -132 -116 -122 -212 13 -124 119 -198 246 -173 104 21 172 126 152 234 -9 50 -22 73 -58 107 -57 54 -151 73 -218 44z m115 -146 c11 -11 20 -30 20 -42 0 -53 -74 -79 -104 -36 -22 31 -20 45 9 73 29 30 49 31 75 5z"/>
 <path d="M1616 490 c-15 -5 -37 -17 -48 -27 -44 -40 -48 -62 -48 -268 l0 -195 70 0 70 0 0 55 0 55 40 0 40 0 0 65 0 65 -40 0 -41 0 3 58 c3 54 4 57 31 60 27 3 27 4 27 73 l0 69 -37 -1 c-21 0 -51 -5 -67 -9z"/>
 <path d="M1831 474 c-41 -53 -13 -114 52 -114 43 0 67 26 67 73 0 65 -79 92 -119 41z"/>
 <path d="M900 300 l0 -190 70 0 70 0 0 190 0 190 -70 0 -70 0 0 -190z"/>
 <path d="M1080 367 c0 -110 3 -129 23 -168 49 -93 176 -131 272 -82 87 45 105 88 105 248 l0 125 -70 0 -70 0 0 -108 c0 -120 -10 -142 -63 -142 -45 0 -57 32 -57 147 l0 103 -70 0 -70 0 0 -123z"/>
 </g>
<g id="layer102" fill="#007a97" stroke="none">
 <path d="M1831 474 c-41 -53 -13 -114 52 -114 43 0 67 26 67 73 0 65 -79 92 -119 41z"/>
 </g>
<g id="layer103" fill="#20958d" stroke="none">
 <path d="M1831 474 c-23 -29 -26 -55 -11 -83 19 -37 41 -34 87 11 49 48 52 60 21 82 -34 24 -73 20 -97 -10z"/>
 </g>
<g id="layer104" fill="#57b37f" stroke="none">
 <path d="M1831 474 c-23 -29 -27 -60 -11 -84 8 -12 19 -5 62 38 43 43 50 54 38 62 -28 18 -68 11 -89 -16z"/>
 </g>

</svg>