<svg xmlns="http://www.w3.org/2000/svg" viewBox="0 0 220 60" height="60" width="220"><path d="M82.57 55.535c-4.953 3.48-12.35 5.02-21.546 4.286-7.466-.594-12.7-2.265-17.12-4.654-2.125-1.15-4.035-2.45-5.923-3.857-1.763-1.316-3.51-2.723-5.42-4.175-.537-.405-.997-.782-1.436-1.12-.31-.24-.602-.46-.92-.646-.415-.243-.957-.48-2.125-.61 0 0-2.81-1.034-2.99-3.53-.18-2.5 2.197-3.117 2.197-3.117s.692-.275 1.908-.438c.88-.118 2.035-.172 3.38-.004-.498-.198-.944-.355-1.35-.48-1.68-.505-2.51-.384-4.014.102-2.733.88-8.432 2.518-15.197.406C.143 33.995-.562 24.898.223 21.81c.57-2.234 2.28-4.668 4.526-5.81 0 0 1.977-.86 3.59.983 1.712 1.96.542 4.33.542 4.33-.14.163-.512.81-.51.844.027.508.716 1.575 2.83 1.762 1.877.163 3.262-.178 4.46-.672.976-.404 1.83-.885 2.628-1.322-3.232.76-4.56-2.492-4.122-3.762 2.517-7.3 9.683-9.806 15.21-10.636 0 0-.243-.39-.47-1.323-.442-1.817 1.913-3.007 1.913-3.007.466-.212 16.72-7.47 40.394.608C85 8.504 98.332 9.446 109.467 9.024c11.26-.426 20.203-2.24 25.02-2.937 0 0 1.788-.358 2.763.936.553.733.625 1.89.625 1.89 2.362-.463 4.183.06 5.67 1.298.324-.735.867-1.646 1.73-2.258 1.264-.9 2.777-1.24 2.777-1.24l8.06-1.393c.66-.12 2.655-.29 4.187 1.536 1.368 1.628 1.145 3.346.954 4.092l-.373 2.082c.194-.002.39.005.583.02.785.07 1.518.29 2.176.63l.778-4.303s.28-2.327 2.295-3.625c1.55-1 3.516-.887 3.516-.887l4.747.043c1.828.034 4.347.262 6.365 1.503l.412.274c.11-.107.226-.207.35-.3 1.363-1 3.43-.81 3.43-.81l5.776.78c.313.065 1.784.42 2.596 1.217 1.18 1.16 1.24 2.833 1.17 3.726.335.028.57.063.798.113.297-.75.814-1.715 1.633-2.28 2.03-1.406 4.36-.503 4.36-.503l1.336.41c1.718.53 3.98 1.368 5.67 2.974.898-.397 1.966-.52 3.165-.248l3.393.747c2.5.566 4.67 2.923 4.567 5.794l-.78 5.84c-.398 2.58-2.448 4.928-5.617 4.724 0 0 .575 1.36-.345 2.673-.688.983-2.358.823-2.358.823-18.175-1.017-32.88 1.296-46.054 4.962-13.385 3.724-25.178 8.828-37.287 13.28 0 0-2.844.723-4.088-1.192-.732-1.126-.653-2.43-.653-2.43-2.205.3-3.35.338-5.144-.805l-.128.306c-.236.544-.668 1.435-1.324 2.22-.844 1.01-1.924 1.61-2.547 1.918-.743.366-1.337.548-1.337.548l-6.384 2.376s-.703.234-1.483.302c-.486.042-2 .138-3.343-.85-.33.522-.7.993-1.054 1.305-.778.69-1.608 1.09-2.16 1.313-.657.264-1.137.36-1.137.36l-8.97 2.35s-2.82.118-4.396-1.456c-.402-.396-.666-.86-.837-1.335M34.39 44.1c-2.112-1.603-3.02-2.695-6.16-3.048 0 0 1.726-.634 4.297-.167 2.443.443 5.86 2.4 9.524 3.695 5.513 1.946 9.305 1.677 16.018.75 6.096-.84 5.766.54 11.037-.305 1.386-.222 1.83-1.228 1.457-2.095-.476-1.11-1.714-1.488-3.51-.943-1.794.545-7.76 1.823-10.752 1.56-5.472-.48-9.355-2.268-12.617-4.14-11.525-6.615-13.777-6.958-17.742-5.68-2.548.82-7.407 2.188-13.143.397-9.892-3.087-9.89-10.183-9.492-11.752.357-1.4 1.5-2.956 2.756-3.595 0 0-1.415 1.656-1.33 3.268.166 3.178 3.3 4.775 5.944 5.008 5.018.44 7.73-1.876 10.212-3.02 2.72-1.255 5.592-2.935 11.19-2.442 4.544.4 8.472 2.237 12.226 4.636 3.893 2.49 8.318 4.336 11.484 4.614 3.165.278 7.02-1.363 7.02-1.363s-2.667.402-7.18-.807c-5.807-1.553-14.28-7.146-16.44-8.962-2.157-1.817-7.145-3.836-11.343-4.207-6.678-.585-10.61 3.285-10.59 3.204 1.595-6.418 12.024-8.97 19.206-8.338 4.43.39 10.41 2.367 13.123 3.836 2.712 1.47 7.13 4.012 12.067 4.446 2.298.202 6.112-.794 8.058-1.227 1.063-.235 4.193-.905 8.392-.536 6.753.593 11.228 4.386 13.11 6.334 1.083 1.08.33 2.528.33 2.528l-3.114 6.23s-.81 1.73-2.502.433c-2.05-1.638-5.718-4.098-9.17-4.037-.962.017-1.836.12-1.993.863-.176.84.403 1.235 1.605 1.61 1.776.55 10.462 4.303 9.392 12.607-1.07 8.305-9.037 13.898-24.69 12.65C46.96 54.977 42 49.878 34.388 44.098" fill="#231f20"/><path d="M129.508 13.97c-2.752.608-4.735 2.87-5.77 6.35L118.5 39.747c-.78 3.075 1.447 4.493 4.21 3.417l10.087-3.726c2.76-1.075 4.918-3.904 5.787-7.314l3.752-15.98c.435-2.897-1.443-4.754-4.195-4.143l-8.632 1.97zm1.52 7.494c.453-1.433.99-2.26 1.728-2.384 1.04-.17 1.265.364.92 1.676l-3.063 12.267c-.2.75-.806 2.083-1.978 2.46-.735.237-1.27-.258-.873-1.827l3.267-12.192zM211.067 14.832c-1.082-.246-1.774.273-2.024 1.426l-1.18 6.523c-.167 1.043.8 1.973 1.863 2.042l3.896.33c1.062.066 1.8-.61 1.983-1.793l.746-5.466c.038-1.033-.81-2.07-1.893-2.315l-3.39-.748zm.976 3.132c.076-.357.283-.672.69-.59.382.075.562.36.485.802l-.64 3.868c-.046.252-.19 1-.786.874-.398-.086-.66-.246-.45-1.1l.7-3.854zM164.812 24.82s-.283 1.27.27 1.93c.766.903 1.782.607 1.782.607l6.12-1.495c2.398-.647 6.757-1.362 7.37-4.967.355-2.092-.64-3.51-2.465-4.22l.067-.04c1.645-.46 2.638-2.057 2.898-3.59.688-4.048-2.7-4.925-6.156-4.987l-4.854-.05s-.874-.066-1.524.352c-.664.428-.758 1.235-.758 1.235l-2.752 15.224zm7.713-10.86l.17-1.13s.05-.26.21-.397c.16-.136.34-.133.34-.133.947.018 1.755-.04 1.598 1.218-.153 1.217-.77 1.335-1.718 1.318 0 0-.42.037-.547-.302-.076-.2-.053-.574-.053-.574m-.964 5.418s.134-.46.276-.625c.187-.22.545-.24.545-.24 1.042.02 2.4.005 2.102 1.46-.284 1.384-.89 1.365-2.14 1.83 0 0-.607.275-.918-.128-.23-.294-.146-.68-.146-.68l.283-1.617zM198.686 24.05l2.29.08c3.032.102 5.898-1.714 6.505-5.25.75-4.373-2.103-5.793-5.513-6.845l-1.488-.464s-.697-.29-1.27.106c-.427.296-.524 1.01-.524 1.01l-1.55 9.496s-.124.738.157 1.16c.426.64 1.393.707 1.393.707m3.523-7.657s.067-.32.2-.39c.18-.094.35-.056.44-.014.78.357 1.145.953.962 2.464-.113.94-.75 1.848-1.6 2.012-.14.026-.357.044-.53-.115-.17-.16-.1-.41-.1-.41l.627-3.547zM192.31 16.415c-.105 1.194.774 2.246 1.96 2.352 1.188.104 2.234-.78 2.338-1.975.104-1.195-.775-2.247-1.962-2.35-1.187-.106-2.234.778-2.337 1.973M183.072 24.598c-1.776.182-1.74-.796-1.494-2.61l1.887-12.356c.123-.685.668-1.043 1.346-.944l5.816.784c.634.074 1.043.545.854 1.205l-.174 2.037c-.01.61-.43.964-1.037.888l-2.22-.256c-.435-.04-.8.107-.875.583-.104.465.205.878.684.913l2.086.24c.475.075.802.604.67 1.072l-.183 1.414c-.026.58-.404 1.283-1.078 1.225l-2.006-.137c-.397-.01-.74.284-.722.7-.04.523.385.793.857.81l2.2.106c.3-.002.88.344.777.71l-.276 1.803c-.082.74-.533 1.09-1.252 1.155l-5.862.656zM158.258 18.453c-.12 1.37.89 2.578 2.25 2.7 1.362.118 2.562-.896 2.682-2.266.12-1.37-.89-2.58-2.252-2.7-1.362-.118-2.563.895-2.68 2.266M144.066 34.47c-2.3.942-2.664-1.09-2.105-3.27l4.3-19.4c.187-1.145 1.19-1.765 2.24-2.01l7.962-1.372c.76-.187 1.5.712 1.233 1.436l-.47 2.683c-.23.837-.827 1.656-1.743 1.788l-2.392.37c-.46.075-1.2.238-1.327.78l-.15.64c-.176.774.36.997 1.017.92l2.18-.337c.563.002 1.15.61.947 1.19l-.45 2.954c-.043.733-.8 1.34-1.46 1.506l-2.448.73c-.497.06-1.06.477-1.113 1.006l-.13 1.015c-.135.66.7 1.042 1.215.733l2.408-.945c.44-.147 1.45.05 1.162.728l-.604 3.37c-.105 1.203-1.096 1.873-2.117 2.29l-8.154 3.195zM210.856 28.643c-37.192-2.08-60.317 9.48-84.702 18.444 24.405-9.718 53.522-25.715 84.702-18.444M87.055 54.623l8.755-2.29s1.014-.224 1.774-.898c.623-.55 1.182-2.174 1.182-2.174l2.3-7.67s.18-.632.642-1.166c.44-.508.99-.72.99-.72l1.295-.442s.64-.25 1 .246c.366.512.026 1.237.026 1.237l-2.39 7.96s-.297.73.22 1.182c.575.503 1.76.124 1.76.124l6.475-2.408s1.52-.48 2.29-1.398c.686-.82 1.103-2.155 1.103-2.155l6.93-25.608s.338-1.108-.086-1.59c-.578-.654-1.41-.397-1.41-.397l-5.588.745s-1.438.146-2.263.703c-.74.5-1.154 1.614-1.154 1.614l-2.35 8.14s-.218.852-.654 1.367c-.51.605-.965.732-.965.732l-1.093.312s-.548.22-.79-.13c-.22-.317.03-.956.03-.956l2.472-7.892s.363-1.038-.12-1.53c-.544-.56-1.495-.423-1.495-.423l-7.653.094s-1.004.063-1.628.596c-.578.493-.884 1.297-.884 1.297l-10.32 32.05s-.225.616.13.972c.553.55 1.47.478 1.47.478M134.745 9.2c-11.437 3.037-37.85 11.454-66.244 1.183C47.263 2.7 32 6.038 32 6.038s15.32-6.97 37.887.73c28.575 9.748 55.088 3.85 64.858 2.433M34.39 44.1c-2.112-1.603-3.02-2.695-6.16-3.048 0 0 1.726-.634 4.297-.167 2.443.443 5.86 2.4 9.524 3.694 5.513 1.946 9.305 1.677 16.018.75 6.096-.84 5.766.54 11.037-.305 1.386-.222 1.83-1.228 1.457-2.095-.476-1.11-1.714-1.488-3.51-.943-1.794.545-7.76 1.823-10.752 1.562-5.472-.483-9.355-2.27-12.617-4.144-11.525-6.614-13.777-6.956-17.742-5.68-2.548.82-7.407 2.19-13.143.398-9.892-3.087-9.89-10.182-9.492-11.752.357-1.4 1.5-2.956 2.756-3.595 0 0-1.415 1.656-1.33 3.268.165 3.178 3.3 4.775 5.944 5.008 5.018.44 7.73-1.876 10.212-3.02 2.72-1.255 5.592-2.935 11.19-2.442 4.544.4 8.472 2.237 12.226 4.636 3.893 2.49 8.318 4.336 11.484 4.614 3.165.278 7.02-1.363 7.02-1.363s-2.667.402-7.18-.807c-5.807-1.553-14.28-7.146-16.44-8.962-2.157-1.817-7.145-3.836-11.343-4.207-6.678-.585-10.61 3.285-10.59 3.204 1.595-6.42 12.024-8.97 19.206-8.338 4.43.39 10.41 2.367 13.123 3.836 2.712 1.47 7.13 4.012 12.067 4.446 2.298.202 6.112-.794 8.058-1.227 1.063-.235 4.193-.905 8.392-.536 6.753.593 11.228 4.386 13.11 6.334 1.083 1.08.33 2.528.33 2.528l-3.114 6.23s-.81 1.73-2.502.433c-2.05-1.638-5.718-4.098-9.17-4.037-.962.017-1.836.12-1.993.863-.176.84.403 1.235 1.605 1.61 1.776.55 10.462 4.303 9.392 12.607-1.07 8.306-9.037 13.898-24.69 12.65C46.96 54.977 42 49.878 34.388 44.098" fill="#ffca05"/><path d="M129.568 14.62h-.006l-.006.002c-.365.08-.71.19-1.03.324-.322.136-.634.302-.933.495-1.523.993-2.664 2.73-3.357 5.06l-5.232 19.41-.005.015c-.18.724-.16 1.317.016 1.77.104.27.264.495.47.674.223.19.497.325.81.406.64.164 1.432.095 2.29-.24l.01-.004.003-.002 10.085-3.723h.002l.002-.002h.003c.356-.143.7-.313 1.03-.51.335-.2.658-.432.968-.69 1.59-1.32 2.8-3.33 3.386-5.62l3.748-15.962c.072-.52.057-.995-.035-1.415-.12-.546-.372-1.003-.73-1.347-.373-.356-.86-.594-1.433-.68h-.002c-.427-.066-.908-.046-1.43.07-.01 0-.022.002-.032.004l-8.594 1.962v.003zm-1.308-.918c.387-.163.785-.29 1.19-.38h.002l8.59-1.96c.017-.005.03-.008.045-.01.615-.138 1.198-.16 1.73-.08l.017.002c.757.114 1.408.434 1.914.92.52.5.89 1.173 1.066 1.98.13.598.152 1.267.05 1.99-.003.04-.01.08-.02.12l-3.752 15.98-.005.014c-.664 2.61-2.04 4.9-3.855 6.406-.353.294-.724.558-1.11.79-.38.228-.772.423-1.177.58-.01.007-.023.013-.035.017l-.004.002-10.086 3.724c-1.034.4-2.01.48-2.813.273-.444-.115-.84-.316-1.17-.6-.342-.295-.61-.676-.788-1.136-.282-.73-.327-1.64-.063-2.706l.01-.045 5.238-19.426.006-.022c.797-2.676 2.128-4.683 3.92-5.85.347-.226.714-.42 1.1-.583m2.276 7.563c.25-.792.532-1.43.86-1.896.38-.54.815-.858 1.33-.943.734-.122 1.207.056 1.46.55.234.45.216 1.088-.007 1.936l-.007.025-3.055 12.23-.006.022c-.034.13-.077.27-.127.41-.05.137-.11.29-.188.454l-.015.03c-.383.813-1.04 1.71-2.053 2.035-.266.084-.52.102-.743.043-.176-.045-.338-.137-.475-.275h-.002c-.136-.138-.242-.32-.316-.548-.137-.435-.14-1.04.062-1.835l.005-.013 3.265-12.192.01-.035zm1.638-1.073c-.234.332-.445.82-.646 1.453l-3.262 12.175c-.12.473-.135.782-.078.96.008.028.02.05.035.064.01.012.03.022.055.028.068.017.158.008.262-.025.652-.21 1.087-.817 1.343-1.366l.005-.014c.047-.1.092-.21.13-.322.042-.107.07-.202.09-.28h.003l.005-.013 3.052-12.224.007-.03c.12-.462.163-.747.11-.85-.03-.06-.19-.063-.495-.014-.228.038-.43.194-.616.46M210.993 15.2l-.017-.003c-.46-.1-.826-.048-1.097.145-.257.183-.44.51-.542.968l-.005.02v.002l-1.176 6.503-.01.09c-.02.338.13.667.377.934.273.292.658.5 1.072.567.056.01.112.017.168.02h.006l3.892.33H213.7c.12.006.24.002.353-.016.113-.017.223-.045.323-.085.49-.192.824-.667.93-1.353l.745-5.433v-.008c0-.108-.01-.22-.032-.33-.024-.114-.062-.23-.11-.34-.26-.603-.838-1.107-1.524-1.263v-.002l-3.39-.747zm.132-.742l.018.004 3.383.744.01.002c.852.194 1.576.838 1.912 1.61.068.16.123.327.158.495.037.174.055.353.052.53v.033h-.002c0 .02 0 .035-.005.053l-.744 5.464v.01c-.156 1-.652 1.7-1.388 1.99v-.002h-.002c-.138.056-.285.095-.44.117-.14.02-.29.026-.448.02h-.048l-3.897-.33v-.002c-.067-.004-.136-.013-.2-.023H209.473c-.522-.085-1.012-.353-1.363-.73-.376-.404-.6-.94-.564-1.522.004-.054.01-.115.02-.178l.003-.016 1.174-6.495c.002-.018.005-.034.01-.052l.004-.022c.15-.67.438-1.165.853-1.462.4-.29.91-.375 1.515-.24m.624 3.44v-.014c.016-.063.034-.13.057-.196.024-.07.053-.137.082-.194.18-.347.47-.58.915-.492l.01.002c.066.015.13.034.188.06.065.026.124.06.175.097l.014.012c.287.218.406.58.324 1.056v.003l-.64 3.865-.002.005-.003.014c-.026.158-.086.454-.233.712-.182.316-.465.56-.916.465-.265-.056-.49-.146-.633-.398-.14-.247-.17-.602-.036-1.154v-.002l.697-3.826.002-.01zm.587.125v.007l-.696 3.824c0 .015-.005.03-.007.046-.074.3-.08.456-.04.525.034.062.14.094.273.122.146.03.23-.036.282-.126.08-.138.117-.33.135-.43l.637-3.84.003-.023c.024-.142-.003-.246-.073-.303l-.008-.006c-.022-.017-.047-.03-.072-.04-.027-.013-.06-.023-.092-.03h-.006l-.004-.002h-.004c-.14-.028-.225.03-.27.118-.014.025-.024.05-.032.075-.01.022-.017.05-.024.08v.003zm.334-.277h-.002m-.385 4.243M165.216 24.917c0 .004-.22.986.17 1.445.612.726 1.42.49 1.423.49l.032-.008 6.095-1.49h.006c2.34-.59 6.517-1.648 7.005-4.528v-.002h-.002l.002-.007.008-.04c.04-.234.056-.462.054-.682-.002-.224-.024-.437-.067-.637-.224-1.06-1.016-1.826-2.2-2.287-.217-.082-.323-.37-.24-.643.044-.146.134-.257.24-.317l.067-.04c.038-.022.077-.038.117-.045.193-.056.378-.132.556-.223.183-.096.35-.206.504-.326.804-.635 1.3-1.633 1.464-2.602.298-1.746-.288-2.812-1.323-3.448-1.133-.697-2.785-.92-4.46-.95l-4.853-.05h-.03s-.747-.058-1.288.29c-.453.29-.52.85-.52.85-.002.02-.006.038-.012.056l-2.743 15.17m-.435 2.245c-.725-.857-.375-2.412-.375-2.416l2.742-15.16.006-.037c0-.002.123-1.054.998-1.62.727-.467 1.676-.414 1.754-.408l4.828.048h.002c1.778.03 3.547.278 4.8 1.05 1.35.828 2.114 2.225 1.725 4.523-.21 1.237-.845 2.51-1.87 3.32-.113.09-.232.175-.355.253.89.575 1.49 1.39 1.71 2.438.06.28.093.574.095.882.002.284-.02.585-.072.902 0 .017-.004.033-.007.052v.007h-.003c-.614 3.606-4.372 4.553-6.95 5.204l-.753.19-.023.01-6.103 1.487-.013.005c-.004 0-1.22.355-2.135-.728m15.17-6.36c.063-.263.276-.44.49-.4m-8.326-6.49l.165-1.112.002-.016h-.002c.002-.002.092-.483.402-.747l.003-.003c.275-.23.543-.225.544-.225.028-.003.057-.004.083 0h.115c.244.004.478.008.687.034.784.098 1.296.446 1.134 1.74-.102.815-.38 1.276-.812 1.54-.37.227-.82.26-1.354.25-.016 0-.03 0-.043-.003-.21-.01-.668-.088-.846-.565-.13-.338-.092-.807-.092-.81 0-.03.005-.058.01-.086m.984-.98l-.16 1.064c0 .064-.002.262.018.315v.004c.02.048.14.032.14.032.022-.003.043-.004.063-.003.414.006.746-.01.96-.142.152-.094.257-.3.308-.703.06-.46-.145-.587-.456-.627-.182-.022-.395-.025-.616-.028l-.133-.003c-.03.004-.073.013-.1.036-.01.01-.02.052-.02.052h-.003zm-1.932 6.328c0-.002.168-.585.394-.848.306-.356.838-.39.84-.39h.096c.39.008.812.015 1.19.095.85.178 1.467.658 1.196 1.972-.308 1.496-.87 1.692-1.944 2.057-.177.06-.367.127-.507.18l-.026.007c-.218.078-.893.264-1.296-.258-.38-.49-.244-1.125-.244-1.127.002-.015.006-.028.01-.042l.275-1.574c.003-.024.01-.048.015-.072zm.937-.117c-.05.058-.125.303-.148.38l-.267 1.52c0 .017-.004.034-.007.05 0 0-.028.137.048.236.137.178.477.025.477.024l.042-.017c.232-.087.386-.14.525-.187h.002c.735-.252 1.12-.386 1.298-1.24.102-.496-.19-.69-.586-.772-.322-.066-.71-.074-1.067-.08h-.066c-.002 0-.185.01-.253.087M198.723 23.625l2.29.08h.032c.406.013.81-.012 1.205-.072.396-.06.78-.153 1.146-.28 1.857-.65 3.35-2.183 3.75-4.53.344-2.003-.136-3.33-1.088-4.27-1.004-.99-2.53-1.59-4.197-2.105l-1.487-.466-.014-.005c-.003 0-.57-.23-1 .065-.266.184-.34.704-.34.705l-.008.036-1.543 9.452-.002.006h.002c0 .002-.092.542.092.818.33.493 1.107.564 1.16.567m2.217.927l-2.29-.08h-.004c-.002 0-1.11-.08-1.623-.846-.377-.567-.222-1.502-.222-1.504h.002l1.544-9.456c.003-.014.003-.025.005-.038 0-.002.12-.91.712-1.32.71-.49 1.534-.146 1.537-.145l1.472.46c1.742.537 3.347 1.173 4.436 2.25 1.137 1.122 1.71 2.695 1.305 5.063-.466 2.72-2.166 4.488-4.277 5.227-.408.143-.828.246-1.254.31-.428.065-.865.092-1.307.078l-.036.002zm.935-8.22s.123-.56.423-.717l.013-.007h.003c.034-.017.072-.033.113-.046.037-.015.076-.024.115-.03.187-.032.35.012.45.06l.01.005c.454.21.792.5.997.97l.01.03c.19.457.245 1.06.144 1.89V18.5l-.003.02c-.02.146-.05.296-.093.444-.044.16-.098.31-.16.45l-.003.005c-.327.732-.924 1.323-1.65 1.465-.093.018-.214.03-.343.015-.143-.02-.293-.076-.43-.203-.357-.334-.217-.814-.217-.816.003-.015.005-.028.01-.042l.615-3.506zm.667.12h.002-.002l-.62 3.518-.003.03h-.005.004-.008.002-.003c-.006-.002-.016-.002-.008.006.035.032.078.047.12.053.057.006.116 0 .165-.01.482-.094.883-.492 1.107-.988l.006-.015c.046-.104.083-.204.11-.3.028-.103.05-.207.063-.315v-.01c.078-.645.05-1.086-.076-1.39l-.01-.02c-.125-.287-.355-.475-.672-.62l-.007-.003c-.026-.015-.073-.026-.128-.017-.008 0-.018.003-.028.006v-.002h-.005c0 .026 0 .048-.005.073M192.687 16.428l-.002.013c-.01.125-.005.246.01.362.02.12.05.237.093.35.234.618.817 1.082 1.54 1.145h.01c.5.042.964-.12 1.312-.413.32-.27.54-.654.58-1.09v-.014l.002-.01c.01-.127.006-.248-.01-.364-.018-.12-.05-.237-.092-.35-.234-.618-.817-1.082-1.54-1.146h-.01c-.144-.013-.284-.008-.42.013-.135.02-.264.054-.385.1-.59.228-1.03.76-1.088 1.405zm-.757-.013v-.013l.002-.004c.093-1.065.77-1.924 1.67-2.27.172-.068.35-.115.53-.14.18-.028.366-.035.555-.02h.003l.014.002c.978.086 1.78.746 2.115 1.63.068.183.118.374.147.57.03.204.035.41.02.617v.002l-.002.013v.013l-.002.006c-.068.745-.423 1.388-.94 1.826-.493.416-1.136.644-1.813.588h-.017c-.98-.088-1.78-.748-2.115-1.634-.07-.182-.12-.372-.148-.57-.03-.2-.038-.408-.02-.617M183.057 25.07c-1.05.103-1.582-.18-1.83-.792-.006-.013-.01-.025-.014-.038-.213-.563-.14-1.324-.008-2.296v-.01l1.887-12.354.004-.023.003-.008v-.01c.025-.133.063-.255.107-.365.047-.12.107-.23.178-.333.332-.48.877-.708 1.494-.62l5.81.783v-.002c.098.012.186.03.266.054.293.083.538.25.705.48.19.26.28.592.237.977-.008.072-.02.148-.042.227l-.17 1.982c0 .06-.007.117-.013.17-.05.384-.21.693-.457.904h-.002c-.222.19-.506.292-.832.288h-.018c-.052-.003-.104-.007-.157-.014l-2.21-.255h-.012c-.054-.005-.1-.006-.138-.004h-.002v.002c-.04.002-.077.006-.11.013l-.013.004c-.094.02-.16.07-.174.157l-.008.036-.005.035c-.004.054.015.11.052.157.05.07.137.124.242.147.02.005.05.01.084.012.015 0 .028.003.04.005l2.06.236.02.003H190.04l.103.023c.28.08.516.274.67.52.008.014.015.024.02.036.156.265.227.59.175.92-.004.035-.012.072-.02.11l-.18 1.364-.002.04v.012c-.032.38-.174.788-.414 1.1-.25.324-.602.542-1.043.523l-.007-.002h-.04l-2-.137h-.022c-.097.005-.18.037-.234.09-.023.02-.04.045-.04.07v.091c-.003.07.03.13.085.176.096.08.24.13.397.142l.025.003.018.002 2.184.103c.13 0 .283.037.428.103.1.044.203.106.3.18.105.082.2.178.27.29.13.202.185.442.116.707l-.265 1.733c-.058.52-.25.906-.56 1.18-.278.245-.64.378-1.07.418h-.004l-5.855.652h-.018zm-1.148-1.266c.11.277.44.397 1.14.327h.018l5.847-.652.022-.003c.288-.027.512-.102.66-.232.116-.102.19-.26.215-.483h.002l.003-.025.27-1.764c-.02-.023-.047-.047-.078-.07v-.003c-.048-.037-.108-.07-.17-.098-.073-.034-.14-.053-.18-.053h-.017l-2.2-.106h-.059c-.28-.023-.55-.12-.755-.296-.244-.21-.394-.523-.38-.932v-.014l.003-.022v-.044c.01-.348.15-.64.37-.846.188-.178.436-.285.696-.296H187.402l1.99.135h.013l.038.004c.183.006.324-.08.422-.207.108-.14.173-.328.187-.504h.002l.002-.052.004-.037.185-1.414c.005-.027.01-.055.017-.082l.006-.022c.01-.064-.01-.14-.05-.213l-.015-.02c-.062-.102-.162-.182-.28-.215l-.036-.01h-.004l-2.065-.24h-.008c-.052-.003-.105-.012-.163-.025h-.003c-.26-.06-.48-.206-.63-.41-.168-.224-.254-.516-.23-.834.003-.07.014-.14.03-.207.097-.553.41-.84.825-.937l.02-.005c.073-.016.147-.024.22-.027v.002c.077-.003.148-.002.216.004h.013l.008.002 2.22.257c.042.005.08.008.113.008.16.002.285-.036.37-.107.056-.05.093-.124.104-.22l.006-.05c0-.02 0-.042.002-.063l.174-2.037c.004-.037.01-.075.022-.112.01-.03.016-.065.02-.1.01-.098-.014-.186-.064-.255-.072-.1-.193-.177-.35-.222-.057-.018-.113-.028-.168-.035h-.006l-5.817-.785h-.004c-.352-.052-.64.047-.792.266-.024.035-.046.075-.063.12-.02.048-.035.097-.045.147V9.7l-1.884 12.326v.007c-.108.802-.175 1.415-.054 1.75l.007.024zM158.71 18.467v.013c-.042.506.132.993.444 1.37.338.405.834.682 1.408.736h.014l.01.003c.568.046 1.098-.14 1.494-.473.36-.306.61-.74.656-1.234h-.002l.002-.013v-.014c.013-.14.008-.276-.01-.407-.02-.132-.056-.267-.104-.398-.267-.703-.93-1.23-1.752-1.303l-.01-.002c-.568-.046-1.098.137-1.493.47-.362.308-.61.742-.655 1.236v.013zm-.907-.016v-.013l.002-.013v-.006c.08-.865.49-1.61 1.092-2.118.568-.48 1.31-.743 2.094-.68h.005l.013.002c1.13.1 2.058.863 2.446 1.887.078.205.135.427.17.66.03.233.04.474.02.717V18.913l-.004.006c-.08.864-.49 1.61-1.09 2.116-.567.48-1.312.745-2.096.68h-.015l-.014-.002-.002-.002c-.776-.07-1.455-.456-1.926-1.02-.494-.594-.766-1.388-.695-2.24M144.273 35.048c-.48.195-.893.28-1.252.273-.558-.01-.984-.233-1.296-.61-.29-.353-.457-.823-.52-1.363v-.006c-.076-.678.012-1.488.22-2.306l4.294-19.387c.035-.2.09-.39.164-.572.07-.18.162-.347.27-.502h-.002c.507-.744 1.355-1.182 2.22-1.384.02-.006.037-.01.056-.01l7.902-1.363c.28-.068.56-.04.814.053.27.1.512.275.7.496.196.226.343.5.413.794.068.286.067.588-.025.878l-.463 2.635c-.004.024-.008.047-.016.068l.003.002c-.04.136-.087.276-.145.418-.057.137-.122.273-.195.404-.008.014-.016.025-.023.04-.39.67-1.002 1.207-1.817 1.327h-.003l-2.383.37c-.196.03-.452.08-.66.176-.12.055-.215.115-.23.17-.003.018-.007.034-.013.052l-.137.588c-.012.046-.016.085-.016.113.015.004.032.01.056.015.1.022.227.024.363.008h.013l2.15-.333c.026-.004.053-.006.077-.006.18 0 .358.038.524.104.246.1.474.267.648.474l.04.047c.17.215.29.475.33.755.027.197.017.4-.042.6l-.437 2.868c-.013.155-.046.31-.097.46-.05.143-.113.275-.188.4-.352.572-1 1.004-1.585 1.15l-2.43.726c-.024.005-.048.01-.07.013l-.01.002h-.013c-.035.007-.074.017-.117.03-.047.015-.094.034-.137.055-.195.1-.36.25-.376.404l-.01.07-.122.958-.006.04c.007.007.018.016.03.024.034.02.08.04.13.05l.016.003c.08.013.162.004.223-.032.036-.02.073-.037.11-.048l2.374-.932.024-.01c.234-.078.564-.093.865-.034.222.045.44.128.617.256.016.01.03.023.045.035.223.18.377.426.407.748v.002c.017.168-.005.342-.07.52l-.583 3.253c-.07.768-.413 1.357-.896 1.816-.44.422-1 .726-1.562.954l-.035.012-8.12 3.185.006.003zM143 34.092c.228.004.514-.057.86-.2v.002l.007-.002 8.12-3.185.026-.012c.46-.187.908-.427 1.242-.746.29-.276.494-.618.532-1.046v.002c.003-.022.005-.04.01-.063l.595-3.327.004-.026c-.024-.007-.05-.013-.08-.018-.135-.027-.268-.026-.353 0l-2.35.923c-.273.15-.592.19-.887.136l-.033-.004c-.176-.037-.35-.11-.503-.21-.167-.11-.312-.257-.42-.44-.156-.265-.224-.58-.154-.93l.117-.924.003-.03c.062-.605.492-1.094.99-1.345.093-.046.188-.085.28-.115.085-.026.177-.048.27-.062l2.383-.708.048-.015c.354-.09.742-.34.942-.668.033-.054.06-.107.076-.16.015-.04.024-.086.027-.135h.002c0-.022.002-.045.006-.07l.45-2.942c.006-.042.016-.083.03-.124.004-.012.005-.022.005-.03v-.005c-.005-.03-.022-.066-.048-.102l-.002-.002-.022-.023c-.054-.063-.125-.115-.203-.146-.04-.016-.076-.025-.113-.03l-2.112.327-.037.006c-.25.03-.493.024-.708-.025-.208-.048-.396-.14-.556-.278-.02-.015-.037-.03-.054-.046-.19-.19-.316-.434-.354-.746-.02-.18-.01-.38.04-.603l.002-.005.142-.6c.002-.013.004-.027.008-.04.113-.486.45-.78.85-.96.31-.142.653-.21.916-.252l2.376-.368.02-.004c.47-.067.83-.393 1.066-.8l.017-.03c.047-.086.09-.174.127-.266.033-.08.063-.17.09-.26l.464-2.647c.007-.036.017-.073.028-.108.02-.053.02-.113.006-.173-.02-.082-.064-.164-.125-.232-.065-.077-.146-.137-.233-.17-.073-.026-.15-.034-.23-.015l-.033.006-7.937 1.37c-.64.15-1.254.452-1.59.943-.058.085-.107.178-.148.278-.04.094-.067.2-.086.314l-.008.042-4.3 19.4-.004.022c-.173.675-.25 1.323-.192 1.838l.002.01c.032.287.105.517.225.662.096.12.25.19.47.194M150.693 25.252v.002h.002v-.002zM210.814 29.066c-31.95-1.787-53.513 6.518-74.426 14.572-3.417 1.316-6.816 2.625-10.16 3.856l-.148-.794-.004-.017h.004-.004l.004.017-.004-.017.006-.002h.004c3.66-1.46 7.438-3.062 11.31-4.707 21.925-9.31 46.972-19.944 73.548-13.748l-.13.84zm-62.3 9.137c16.124-5.816 33.663-10.656 56.703-10.198-20.07-2.98-39.218 3.13-56.702 10.198M86.947 53.966l8.716-2.28.027-.006c.133-.032.946-.246 1.564-.792.467-.414.935-1.682 1.016-1.908l2.296-7.658.005-.016c0-.003.212-.747.76-1.38.52-.6 1.153-.844 1.155-.845l.055-.02 1.268-.435.004-.002h.003c.115-.04.997-.315 1.56.467.01.016.022.03.032.048.51.765.192 1.687.097 1.92l-2.375 7.914c-.006.02-.013.037-.02.056-.02.067-.068.25.022.327.348.305 1.21.047 1.29.022l6.475-2.41c.014-.006.03-.01.043-.014.177-.058 1.42-.487 2.05-1.24.59-.707.96-1.85.986-1.93v-.005l.002-.003L120.9 18.19l.006-.014h-.002c0-.003.21-.7.072-.855-.35-.396-.894-.228-.895-.227-.034.01-.07.018-.104.02l-5.558.74-.02.004c-.003 0-1.325.134-2.06.63-.55.372-.878 1.157-.935 1.3l-2.348 8.13-.007.026c-.055.194-.308 1.028-.768 1.573-.607.717-1.174.876-1.175.877l-.017.004-1.092.314-.007.002c-.218.067-.918.228-1.33-.37-.427-.615-.113-1.544-.066-1.674l2.462-7.857.002-.006c0-.003.198-.607.055-.753-.355-.363-1.086-.26-1.088-.26-.018.002-.036.003-.054.002l-7.626.095c-.002 0-.857.053-1.366.487-.416.356-.67.942-.72 1.066L85.952 53.455c-.006.02-.012.035-.02.053-.012.038-.04.13-.034.135l.023.024c.34.313.9.305 1.024.3m9.01-.99l-8.756 2.29c-.02.006-.04.01-.062.012-.003 0-1.092.087-1.82-.595l-.047-.04c-.585-.587-.4-1.442-.322-1.708l.013-.048 10.31-32.025c.01-.03.018-.057.03-.086 0-.003.35-.92 1.035-1.506.74-.63 1.886-.702 1.89-.702h.014l7.622-.094c.113-.014 1.197-.128 1.893.586.82.84.297 2.308.296 2.31l-2.457 7.84c-.008.032-.018.065-.03.096 0 0-.138.192-.12.222.007.008.077-.03.13-.057.016-.01.034-.02.053-.028l.003-.002c.018-.01.038-.016.058-.02l1.09-.31.003-.002c.072-.025.375-.15.738-.58.305-.36.483-.95.522-1.092l.012-.047 2.35-8.138h.002l.01-.03c0-.004.486-1.31 1.365-1.906.915-.62 2.46-.776 2.464-.777v.002l5.533-.74c.205-.05 1.168-.234 1.885.58.71.806.245 2.32.245 2.324l-.002-.002-6.918 25.567-.01.043c-.003.004-.46 1.465-1.222 2.376-.79.944-2.244 1.458-2.476 1.536l-.012.004-6.475 2.408h-.006c-.003.003-1.438.458-2.22-.227-.862-.752-.49-1.847-.435-1.992l2.375-7.917c.01-.046.027-.088.046-.13 0 0 .14-.3.062-.44l-.01-.01c-.1-.143-.368-.054-.416-.036l-.01.003-.013.005-1.286.44c-.107.048-.49.23-.798.585-.374.432-.523.95-.523.952h-.002l-2.29 7.637c-.005.022-.012.042-.02.063-.002.005-.605 1.76-1.336 2.408-.785.694-1.798.956-1.947.992l-.01.003zm7.858-14.354M134.802 9.707c-.774.205-1.532.41-2.345.633-12.475 3.4-37.404 10.196-64.1.54-21.15-7.65-36.275-4.342-36.32-4.333l-.15-.994c.046-.02 15.448-7.026 38.14.714l.02.008h.003c25.664 8.747 49.67 4.84 61.3 2.946 1.29-.21 2.43-.395 3.38-.533l.072 1.02zm-66.157.177c22.06 7.98 42.938 4.632 56.47 1.335-12.913 1.84-33.522 3.494-55.343-3.944l-.022-.007h-.002C55.142 2.286 43.628 3.464 37.354 4.9c6.266-.366 17.523.004 31.29 4.984M34.088 44.67c-.284-.216-.594-.46-.886-.69-1.495-1.183-2.51-1.986-5.06-2.272l-.034-1.284c.005 0 1.847-.678 4.533-.19l.002-.002h.006v.003c1.48.27 3.257 1.054 5.22 1.92 1.386.61 2.867 1.263 4.364 1.79 2.707.955 4.994 1.368 7.43 1.427 2.457.06 5.06-.235 8.39-.694 3.146-.435 4.608-.287 5.984-.15 1.29.13 2.5.253 5.04-.155.197-.03.37-.08.517-.145.246-.107.41-.245.495-.395.062-.11.082-.234.062-.36h-.002c-.01-.06-.026-.123-.05-.183l-.002-.003v-.002l-.006-.013v-.003c-.047-.106-.104-.204-.172-.294-.07-.09-.148-.17-.235-.236h-.002c-.524-.404-1.392-.46-2.54-.113l-.003.003-.008.002v-.002c-.266.08-.608.174-1.004.273-.4.1-.863.208-1.368.318-2.6.566-6.336 1.18-8.537.987-2.77-.244-5.145-.82-7.24-1.573-2.096-.754-3.903-1.68-5.55-2.623-5.736-3.29-9.156-5.02-11.613-5.76-2.392-.722-3.88-.498-5.78.113-1.295.418-3.178.974-5.472 1.198-2.3.226-5.004.117-7.932-.797-2.533-.79-4.438-1.84-5.862-2.996-.737-.6-1.35-1.23-1.855-1.867-.51-.642-.91-1.294-1.225-1.933-1.23-2.507-1.11-4.863-.89-5.74h-.003l.002-.004v-.003l.223.067.284.08-.505-.153c.06-.23.135-.463.226-.692.09-.227.195-.453.314-.676.597-1.12 1.54-2.16 2.552-2.675l.505 1.083c-.004.005-1.208 1.41-1.14 2.7l-.53.092.528-.09v.017h.003c.02.368.09.714.202 1.036.112.326.268.63.457.907 1.032 1.52 3.046 2.323 4.834 2.48 3.847.338 6.306-1.01 8.362-2.137.57-.313 1.11-.607 1.62-.843.234-.108.496-.23.76-.357 2.568-1.213 5.462-2.58 10.66-2.126 2.313.204 4.47.774 6.526 1.597 2.053.822 3.998 1.894 5.89 3.105l.015.01-.27.592.272-.592c.54.346 1.09.678 1.642.992.58.33 1.14.634 1.672.904 2.864 1.453 5.737 2.447 7.962 2.643.955.083 1.976-.014 2.928-.188-.957-.133-2.07-.346-3.317-.68h-.005c-.826-.22-1.707-.524-2.618-.885-.9-.357-1.83-.775-2.766-1.23-4.783-2.322-9.653-5.618-11.222-6.94l-.004-.004c-.28-.233-.622-.48-1.017-.732-.395-.252-.832-.502-1.3-.743-2.447-1.26-5.815-2.36-8.782-2.62-.167-.016-.288-.025-.368-.03-5.5-.35-8.982 2.39-9.72 2.996-.143.366-.323.455-.482.388-.568.427-.79.395-.447-.95v-.012l.005-.008c.25-.998.69-1.91 1.283-2.734.578-.805 1.3-1.524 2.13-2.16 4.13-3.175 11.117-4.4 16.375-3.94l.013.002c.62.054 1.28.143 1.972.257.68.112 1.372.25 2.064.407 3.577.81 7.262 2.147 9.24 3.218l.478.26c2.706 1.475 6.854 3.735 11.425 4.135h.01c1.925.166 5-.546 7.035-1.017.373-.085.716-.166.88-.2.536-.12 1.596-.35 3.07-.504 1.462-.153 3.324-.23 5.455-.044h.013c.957.085 1.875.235 2.752.437.878.2 1.704.448 2.48.73 4 1.464 6.757 3.875 8.142 5.307 1.423 1.428.42 3.355.418 3.36l-3.11 6.223h.003c-.004.007-1.103 2.344-3.257.694l-.006-.006c-1.006-.803-2.41-1.81-3.98-2.603-1.55-.784-3.265-1.365-4.913-1.335-.44.007-.858.033-1.162.136-.16.054-.268.115-.284.19-.027.128.01.23.107.317.218.2.61.364 1.15.532l.01.002h.003c.266.084.666.23 1.145.44.486.21 1.064.492 1.687.844 3.26 1.844 7.724 5.645 6.907 12.014v.005-.005.01l-.526-.053.524.057c-.16 1.233-.463 2.41-.91 3.517-.45 1.108-1.045 2.148-1.786 3.106-3.71 4.795-11.15 7.53-22.593 6.617-12.658-1.01-18.02-5.188-24.45-10.2-.738-.577-1.492-1.165-2.452-1.892m-.27-1.82c.255.202.525.415.872.68.733.555 1.607 1.235 2.463 1.904 6.313 4.92 11.577 9.022 23.99 10.012 11.085.883 18.217-1.672 21.702-6.175.657-.848 1.184-1.77 1.58-2.748.397-.98.665-2.02.806-3.11l.002-.01.525.053-.524-.057c.72-5.577-3.374-9.01-6.36-10.698-.59-.335-1.14-.602-1.605-.805-.463-.202-.83-.337-1.064-.41h-.014v-.003c-.656-.204-1.152-.425-1.48-.726-.45-.41-.612-.93-.462-1.64.142-.668.55-1.03 1.106-1.218.413-.14.914-.175 1.434-.184 1.803-.03 3.65.588 5.308 1.427 1.634.828 3.087 1.87 4.13 2.7 1.232.943 1.748-.168 1.75-.17l.005-.008 3.114-6.23c.002-.003.5-.96-.234-1.69l-.007-.007c-1.323-1.368-3.96-3.67-7.798-5.075-.75-.274-1.543-.514-2.375-.702-.832-.19-1.714-.333-2.647-.416h-.012c-2.067-.183-3.87-.11-5.287.04-1.408.147-2.445.37-2.97.488-.36.08-.605.136-.872.2-2.087.48-5.247 1.212-7.305 1.036h-.002l-.013-.002c-4.74-.415-8.983-2.727-11.752-4.236l-.477-.26c-1.922-1.04-5.518-2.343-9.02-3.137-.684-.154-1.363-.29-2.018-.398-.645-.107-1.285-.192-1.91-.247h-.013c-5.075-.446-11.785.71-15.712 3.727-.738.568-1.37 1.197-1.868 1.888-.096.134-.187.27-.272.41 1.722-1.077 4.824-2.502 9.005-2.234.17.01.302.02.39.026 3.07.272 6.56 1.41 9.09 2.715.5.257.96.52 1.372.782h.002c.412.262.787.53 1.113.806l.007.006-.32.555.32-.555c1.54 1.294 6.32 4.528 11.03 6.816.914.442 1.824.85 2.71 1.202.873.348 1.723.64 2.523.853h.004c4.43 1.187 7.004.8 7.012.8l.16 1.273c-.01.005-3.967 1.687-7.24 1.4-2.324-.203-5.305-1.232-8.263-2.732-.6-.305-1.174-.613-1.716-.923-.57-.323-1.132-.664-1.68-1.014h.002-.003l-.014-.01.27-.592-.272.59c-1.858-1.188-3.756-2.234-5.74-3.03-1.982-.794-4.062-1.343-6.292-1.538-4.958-.436-7.733.876-10.193 2.04-.25.116-.496.233-.77.36-.515.237-1.022.515-1.555.807-2.174 1.192-4.773 2.616-8.885 2.254-2.01-.176-4.297-1.112-5.512-2.9-.248-.366-.453-.768-.604-1.207-.153-.44-.25-.922-.28-1.44l.002-.006v-.02l-.002.005c-.01-.22 0-.44.028-.657l-.014.026c-.09.17-.17.344-.24.517-.065.165-.12.328-.16.486v.005-.005.004l-.224-.063.222.066.002-.003-.002.003-.222-.066-.284-.082.505.152c-.172.68-.247 2.565.8 4.694.277.566.634 1.146 1.09 1.72.46.58 1.02 1.155 1.7 1.707 1.344 1.09 3.15 2.086 5.562 2.838 2.808.877 5.4.98 7.602.764 2.206-.215 4.028-.753 5.282-1.157 2.066-.665 3.686-.908 6.292-.125 2.54.767 6.01 2.516 11.797 5.838 1.616.927 3.382 1.83 5.41 2.562 2.03.73 4.335 1.287 7.035 1.526 2.1.186 5.735-.416 8.275-.968.496-.108.95-.215 1.342-.312.395-.1.722-.19.96-.26l.004-.004.008-.002v.002c1.433-.435 2.57-.32 3.322.257.16.124.303.268.425.43.124.16.23.345.32.55v.004c.077.178.13.358.158.54h-.002c.078.485-.003.976-.25 1.408-.222.39-.577.72-1.066.933-.217.093-.464.166-.74.21-2.658.426-3.92.3-5.265.163-1.334-.133-2.75-.274-5.784.144-3.386.467-6.034.768-8.53.708-2.516-.063-4.88-.488-7.685-1.478-1.55-.55-3.034-1.202-4.422-1.815-1.922-.848-3.66-1.614-5.03-1.864v.002h-.006v-.004c-.19-.034-.373-.062-.553-.085.674.384 1.268.855 1.958 1.4M2.798 22.228l.002-.005.223.064-.222-.067v.003h-.002v.004zm1.403-.092v.003-.004zm40.373 3.5l-.002-.002h.003zm-5.707-5.374l.002.002-.002-.002zm46.366 23.145v.006-.006z" fill="#ec1c24"/></svg>