<?xml version="1.0" encoding="utf-8"?>
<!-- Generator: Adobe Illustrator 19.2.0, SVG Export Plug-In . SVG Version: 6.00 Build 0)  -->
<svg version="1.1" id="Layer_1" xmlns="http://www.w3.org/2000/svg" xmlns:xlink="http://www.w3.org/1999/xlink" x="0px" y="0px"
	 viewBox="0 0 799.968 225.907" style="enable-background:new 0 0 799.968 225.907;" xml:space="preserve">
<style type="text/css">
	.st0{fill:#FDFDFD;}
	.st1{fill:#717171;}
	.st2{fill:#727272;}
	.st3{fill:#0478D8;}
</style>
<g>
	<path class="st0" d="M0,225.907C0,150.39,0,75.241,0,0c266.667,0,533.333,0,799.968,0c0,75.32,0,150.613,0,225.907
		C533.334,225.907,266.733,225.907,0,225.907z M193.153,52.085c-2.263,0.318-4.533,0.6-6.789,0.961
		c-21.333,3.416-42.515,0.95-63.695-1.614c-4.022-0.487-8.036-1.031-12.067-1.551c0,19.376,0,38.078,0,55.998
		c15.464-1.677,30.648-3.269,45.809-5.06c1.35-0.16,3.071-1.323,3.737-2.513c9.305-16.632,20.593-31.836,32.931-46.301l0.065-0.266
		C193.144,51.738,193.153,52.085,193.153,52.085z M402.052,170.906c0.999,0.649,1.995,1.86,2.998,1.865
		c20.307,0.111,40.614,0.11,60.921,0c0.999-0.005,1.991-1.216,2.987-1.865c0.851-3.803-2.127-2.931-4.012-3.188
		c-15.21-2.07-18.46-5.668-18.784-20.926c-0.007-0.333-0.005-0.666-0.005-0.999c-0.001-31.811,0.078-63.622-0.091-95.431
		c-0.025-4.631,1.581-7.17,6.104-7.126c8.467,0.083,16.992-0.016,25.379,0.947c8.208,0.943,13.398,6.237,15.496,14.293
		c0.79,3.032,1.339,6.126,2.02,9.294c1.568,0,2.974,0,3.742,0c0-10.65,0-20.995,0-31.195c-43.211,0-85.426,0-127.881,0
		c-0.096,1.461-0.251,2.758-0.255,4.055c-0.022,8.955-0.011,17.911-0.011,26.795c4.725,0.646,4.725,0.646,5.216-3.463
		c1.846-15.459,6.59-20.005,22.018-20.679c6.151-0.269,12.324-0.254,18.481-0.099c6.952,0.175,8.46,1.839,8.463,8.71
		c0.012,30.811-0.172,61.624,0.075,92.433c0.142,17.703-4.573,22.579-20.305,23.672
		C403.692,168.065,402.901,169.897,402.052,170.906z M81.162,45.089c-0.252-0.267-0.504-0.534-0.755-0.801
		c0.614-1.098,1.228-2.195,2.027-3.625c-1.791-0.681-3.156-1.183-4.508-1.717c-10.19-4.02-20.891-3.724-31.536-3.571
		c-6.132,0.088-12.939-0.881-16.052,6.631c-0.827,1.995-2.294,4.354-1.847,6.139c1.978,7.89,4.512,15.642,6.917,23.422
		c1.104,3.57,2.376,7.087,3.66,10.891c1.091,0,2.801,0,4.992,0c-2.636,7.129-5,13.873-7.677,20.491
		c-0.609,1.506-2.072,3.2-3.534,3.734c-6.57,2.403-6.612,2.262-5.111,9.412c0.936,4.458,1.841,8.923,2.757,13.368
		c-2.969,0.743-5.013,1.254-7.169,1.794c0.046,1.009-0.098,1.716,0.131,2.268c3.749,9.071,7.506,18.139,11.392,27.151
		c0.38,0.882,1.602,1.959,2.462,1.985c5.895,0.174,11.797,0.091,17.738,0.091c-0.946-9.508-1.96-10.307-10.297-9.238
		c-1.087,0.139-2.665-0.288-3.384-1.05c-6.5-6.883-4.25-14.139,4.924-16.177c1.135-0.252,2.306-0.342,3.456-0.532
		c7.056-1.165,8.75-3.646,7.186-10.661c-0.288-1.29-0.879-2.509-1.285-3.776c-2.962-9.238-0.073-17.103,8.19-21.873
		c3.594-2.074,7.574-3.551,10.937-5.925c1.871-1.321,2.775-3.972,4.223-5.944c0.999-1.361,1.964-3.359,3.321-3.743
		c6.734-1.906,7.277-1.468,10.579,5.876c6.737-3.879,7.503-5.585,5.311-11.147c-1.683-4.271-5.621-4.301-9.111-4.729
		c-3.28-0.402-6.657,0.048-9.981-0.108c-0.712-0.033-1.555-0.958-1.97-1.683c-0.152-0.265,0.746-1.643,1.198-1.661
		c3.927-0.154,8.127-2.543,11.482,1.171c6.008-2.241,7.72-6.489,7.241-12.601c-0.512-6.531-2.537-13.978,6.454-17.3
		c-1.303-1.596-1.979-2.832-3.007-3.592c-1.767-1.307-3.72-3.056-5.66-3.143c-0.991-0.044-2.635,2.992-3.097,4.855
		c-1.35,5.447-2.254,11.004-3.336,16.537c-6.808,1.47-19.236,0.221-25.062-4.843c5.64,1.018,10.093,1.821,14.546,2.625
		c0.237-0.51,0.473-1.021,0.71-1.531c-1.75-1.032-3.414-2.268-5.272-3.042c-2.091-0.871-4.724-1.077-2.822-4.957
		c2.94,1.516,5.615,3.787,8.518,4.131c2.667,0.316,5.581-1.443,8.386-2.288c-0.191-0.734-0.381-1.468-0.572-2.202
		C84.957,44.5,83.059,44.795,81.162,45.089z M243.418,45.437c-1.806,0-3.613,0-5.388,0c5.949,9.773,11.466-0.173,17.191,0.218
		c0.262,0.522,0.524,1.043,0.786,1.565c-3.185,2.004-6.37,4.008-9.556,6.013c0.227,0.467,0.454,0.934,0.681,1.401
		c4.429-0.732,8.859-1.465,13.288-2.197c-5.502,4.541-16.657,6.002-24.012,3.928c-0.695-4.275-1.062-8.618-2.188-12.755
		c-0.816-2.997-2.64-5.72-4.014-8.565c-2.623,2.074-5.254,4.138-7.851,6.244c-0.189,0.153-0.13,0.611-0.271,1.4
		c6.52,2.187,6.704,7.547,6.11,13.291c-0.154,1.484,0.15,3.031-0.105,4.487c-1.042,5.95,1.863,9.419,7.001,10.57
		c4.305,0,8.609,0,12.914,0c0.144,0.496,0.289,0.991,0.433,1.487c-1.185,0.578-2.343,1.569-3.561,1.651
		c-2.979,0.199-6-0.225-8.98-0.032c-5.898,0.381-9.04,3.059-9.888,7.886c-0.929,5.294,3.298,6.382,6.508,8.703
		c0.577-1.853,0.592-3.915,1.559-4.567c1.782-1.203,4.146-2.199,6.223-2.119c1.964,0.076,5.598,1.8,5.532,2.531
		c-0.557,6.168,3.958,7.103,7.982,9.246c7.416,3.949,16.645,6.671,16.506,17.63c-0.045,3.562-0.727,7.22-1.749,10.646
		c-2.304,7.721-0.66,10.662,7.136,12.23c2.903,0.584,5.918,1.271,8.499,2.636c3.838,2.03,3.789,5.747,2.191,9.148
		c-1.28,2.724-1.641,6.675-6.587,5.909c-7.713-1.194-9.598,0.786-9.481,9.365c5.625,0,11.272,0.208,16.882-0.155
		c1.305-0.084,2.971-1.881,3.637-3.286c3.133-6.612,6.111-13.307,8.887-20.078c3.05-7.44,2.927-7.491-4.643-9.903
		c-0.044-0.748-0.27-1.595-0.109-2.361c0.921-4.393,1.994-8.754,2.895-13.151c0.756-3.687,0.381-6.641-4.472-6.956
		c-1.297-0.084-3.228-1.006-3.664-2.048c-3.031-7.238-5.744-14.609-8.681-22.255c2.713-0.234,4.298-0.37,5.236-0.451
		c0.859-3.008,1.519-5.522,2.296-8c2.681-8.553,5.583-17.042,8.034-25.659c1.279-4.497-3.075-11.658-7.689-11.932
		c-10.408-0.619-20.886-0.89-31.29-0.374c-4.962,0.246-9.819,2.612-15.058,4.114c0.767,1.698,1.232,2.727,1.697,3.757
		C243.995,44.91,243.707,45.174,243.418,45.437z M533.288,149.899c-1.591,14.347-3.275,16.244-16.954,17.864
		c-3.911,0.463-2.995,2.469-2.44,4.99c19.015,0,37.803,0.09,56.59-0.04c8.642-0.06,17.383,0.182,25.9-1
		c19.011-2.638,34.757-11.166,45.015-28.075c14.27-23.523,11.889-59.659-5.411-81.03c-15.563-19.225-36.57-26.36-60.493-26.517
		c-19.31-0.126-38.623,0.103-57.933-0.011c-3.683-0.022-4.942,1.003-3.601,4.679c1.843,0.209,3.656,0.352,5.448,0.628
		c8.938,1.378,12.393,4.969,13.504,13.966c0.142,1.153,0.299,2.305,0.449,3.457C533.338,89.173,533.313,119.536,533.288,149.899z
		 M80.393,194.01c0.127,2.656,0.505,4.824,0.274,6.924c-0.493,4.488,1.204,6.646,5.615,8.275
		c18.228,6.732,36.887,11.333,56.252,13.014c34.046,2.956,67.115-1.087,99.011-13.724c2.501-0.991,3.787-2.208,3.547-5.078
		c-0.257-3.07-0.058-6.179-0.058-9.691c23.178,0,45.526,0,68.764,0c-3.232-3.551-5.848-6.425-8.76-9.625
		c6.185-3.626,11.911-6.985,18.83-11.041c-33.355,0-65.133-0.028-96.91,0.065c-2.092,0.006-4.181,0.942-6.271,1.446
		c0.03,0.586,0.06,1.172,0.09,1.758c7.272,0.753,14.543,1.507,22.617,2.343c-30.927,20.053-133.945,19.934-160.598-0.185
		c7.856-0.814,15.021-1.557,22.187-2.3c-4.168-3.679-91.017-5.093-102.478-2.748c6.305,3.611,12.297,7.044,19.533,11.188
		c-3.746,3.056-6.912,5.639-10.078,8.222c0.21,0.386,0.419,0.772,0.629,1.157c11.072,0,22.143,0,33.215,0
		C57.121,194.01,68.439,194.01,80.393,194.01z M795.992,172.542c1.417-3.526-0.212-4.738-3.161-5.348
		c-6.116-1.263-10.909-4.698-14.957-9.359c-14.198-16.346-28.441-32.654-42.649-48.991c-0.694-0.799-1.225-1.74-1.592-2.27
		c6.3-2.239,12.64-3.876,18.422-6.669c13.568-6.554,19.194-17.434,17.93-33.12c-1.096-13.609-9.035-23.871-22.933-27.674
		c-7.285-1.993-15.075-2.776-22.659-2.914c-20.134-0.368-40.279-0.091-60.42-0.058c-1.131,0.002-2.261,0.116-3.33,0.174
		c-1.846,4.784,1.233,5.049,4.395,5.53c11.774,1.79,14.303,4.673,14.776,16.599c0.073,1.83,0.058,3.664,0.059,5.496
		c0.003,26.151,0.036,52.302-0.029,78.453c-0.011,4.487-0.24,8.993-0.719,13.453c-0.759,7.066-3.671,9.942-10.666,11.089
		c-1.643,0.269-3.289,0.695-4.938,0.714c-3.857,0.044-3.7,2.191-3.059,4.886c20.333,0,40.374,0,60.405,0
		c0.091-4.348,0.091-4.348-3.649-4.822c-10.173-1.287-14.337-3.532-14.801-10.435c-1.056-15.722-1.186-31.506-1.693-47.275
		c5.828-0.999,9.824,0.784,13.152,4.069c2.838,2.801,5.52,5.789,8.035,8.886c12.494,15.384,24.869,30.864,37.417,46.203
		c1.228,1.501,3.322,3.183,5.059,3.233C774.836,172.693,785.301,172.542,795.992,172.542z M145.466,172.708
		c6.69,0.34,12.883,0.873,16.35,7.299c0.161,0.299,2.929-0.06,3.252-0.716c2.649-5.394,7.394-6.284,12.607-6.308
		c5.831-0.027,11.665-0.058,17.494,0.056c5.237,0.102,9.815-1.775,12.531-6.005c2.725-4.244,5.585-9.085,6.113-13.912
		c1.1-10.053,0.77-20.269,0.797-30.419c0.002-0.953-1.532-2.6-2.538-2.76c-13.636-2.168-27.296-4.196-40.981-6.023
		c-1.184-0.158-3.229,1.022-3.797,2.131C158.09,134.028,151.63,153.063,145.466,172.708z M199.565,16.914
		c-2.754-1.003-5.202-1.894-7.854-2.859c0.646-2.938,1.232-5.602,1.887-8.578c-3.629-0.718-6.669-1.319-9.623-1.903
		c-3.74,9.541-3.74,9.541-11.955,7.494c-0.156-2.866-0.315-5.789-0.478-8.779c-4.948,0-9.513,0-14.279,0
		c-0.153,3.225-0.292,6.14-0.443,9.318c-3.266,0.231-6.172,0.436-9.139,0.645c-0.912-3.122-1.686-5.775-2.563-8.776
		c-3.489,0.679-6.654,1.295-10.004,1.947c0.767,3.251,1.399,5.926,2.06,8.728c-2.879,0.972-5.327,1.798-7.872,2.657
		c-1.425-2.773-2.697-5.248-4.134-8.044c-2.676,1.295-5.107,2.47-7.794,3.77c4.201,8.794,8.115,16.984,11.981,25.077
		c23.539-5.085,46.483-5.117,69.66-0.041c4.175-8.244,8.273-16.338,12.576-24.835c-2.801-1.286-5.145-2.361-7.817-3.588
		C202.316,11.837,201.066,14.143,199.565,16.914z M110.443,119.705c0,10.498-0.338,19.98,0.146,29.42
		c0.233,4.548,1.673,9.135,3.179,13.493c2.084,6.033,9.568,11.642,16.076,10.067c7.602-19.69,15.11-39.135,22.941-59.417
		C138.576,115.429,124.647,117.546,110.443,119.705z M214.438,106.733c0-18.895,0-37.707,0-57.988
		c-16.092,16.198-29.226,33.02-40.392,51.714C187.745,102.586,200.958,104.638,214.438,106.733z M268.329,117.538
		c-1.796-4.216-2.352-9.294-4.703-10.341c-7.532-3.353-15.627-5.649-23.697-7.526c-7.649-1.779-11.989,3.488-9.203,10.847
		c0.859,2.269,3.061,4.215,5.036,5.837c3.381,2.777,7.067,5.181,10.794,7.864c-1.4,1.74-2.222,2.769-3.053,3.792
		c-3.113,3.831-6.161,7.101-11.877,3.915c-3.248-1.81-5.748,0.079-6.778,3.56c-0.597,2.019-1.039,4.084-1.704,6.739
		c9.03-0.009,17.517,1.939,24.851-5.016c4.96-4.704,10.882-8.393,16.939-12.963c-3.787-2.644-6.686-4.668-9.584-6.692
		c0.096-0.272,0.193-0.543,0.289-0.815C259.207,116.964,262.776,117.188,268.329,117.538z M58.408,116.91
		c3.884-0.255,7.767-0.51,12.579-0.826c-3.851,2.753-6.99,4.998-10.784,7.711c5.584,4.192,10.943,7.381,15.254,11.633
		c7.621,7.517,16.63,6.882,25.945,5.992c-0.593-10.175-2.558-11.619-11.689-8.994c-1.068,0.307-2.783,0.208-3.504-0.457
		c-2.635-2.428-4.976-5.175-7.891-8.297c4.376-3.082,8.164-5.719,11.919-8.402c4.383-3.133,6.075-8.268,4.13-12.64
		c-2.29-5.148-6.824-4.302-10.779-3.365c-5.97,1.414-11.797,3.466-17.631,5.409C58.145,107.275,58.022,107.568,58.408,116.91z
		 M13.791,43.664c0.521-0.224,1.041-0.448,1.562-0.672c1.58,2.376,3.805,4.563,4.57,7.177c0.855,2.923,0.903,6.321,0.392,9.359
		c-1.323,7.856-3.077,15.644-4.789,23.43c-2.085,9.484-2.056,18.813,1.636,27.937c0.957,2.365,1.909,4.974,5.31,3.579
		c3.314-1.359,1.819-3.89,0.996-5.909c-4.917-12.054-4.558-24.185-1.796-36.723c1.624-7.373,2.497-15.178,2.021-22.682
		c-0.643-10.148-6.242-12.403-14.764-7.043c-6.107,3.841-5.925,11.943,0.566,15.766C12.014,53.494,16.789,49.952,13.791,43.664z
		 M315.548,58.936c4.661-3.633,6.895-8.625,4.178-12.011c-2.643-3.295-7.025-6.271-11.093-7.056
		c-4.366-0.842-6.628,3.997-6.765,7.763c-0.268,7.386-0.517,15.029,1.042,22.169c2.982,13.665,4.042,26.912-1.489,40.171
		c-0.544,1.303,0.123,4.213,1.169,4.862c2.63,1.632,4.212-0.384,5.149-2.818c2.863-7.438,4.139-15.102,2.7-23.003
		c-1.131-6.211-2.914-12.311-3.867-18.543c-0.948-6.198-1.624-12.498-1.641-18.756c-0.01-3.814,2.186-6.952,7.344-8.225
		C307.595,50.605,313.653,53.873,315.548,58.936z M273.97,19.103c-2.708,3.969-5.842,4.54-9.779,3.195
		c-1.849-0.632-4.093-0.108-6.272-0.108c1.489,9.191,1.489,9.19,9.486,9.192c3.828,0.001,7.656,0.003,11.483,0.004
		c8.368,0.003,8.862-0.429,10.124-8.829C284.23,20.237,277.916,26.697,273.97,19.103z M67.036,22.269
		c-5.331-2.345-11.784,3.482-15.94-3.784c-3.901,7.149-10.378,1.276-15.043,3.844c2.021,8.45,2.021,8.45,10.261,8.448
		c3.811-0.001,7.621-0.001,11.432,0.002C65.822,30.784,65.822,30.784,67.036,22.269z"/>
	<path class="st1" d="M80.393,194.01c-11.954,0-23.272,0-34.59,0c-11.072,0-22.143,0-33.215,0c-0.21-0.386-0.419-0.772-0.629-1.157
		c3.166-2.583,6.332-5.166,10.078-8.222c-7.235-4.144-13.228-7.577-19.533-11.188c11.462-2.345,98.311-0.931,102.478,2.748
		c-7.166,0.743-14.331,1.486-22.187,2.3c26.653,20.119,129.671,20.238,160.598,0.185c-8.074-0.836-15.345-1.59-22.617-2.343
		c-0.03-0.586-0.06-1.172-0.09-1.758c2.09-0.503,4.179-1.439,6.271-1.446c31.777-0.093,63.555-0.065,96.91-0.065
		c-6.919,4.057-12.645,7.415-18.83,11.041c2.912,3.2,5.528,6.074,8.76,9.625c-23.238,0-45.586,0-68.764,0
		c0,3.513-0.199,6.621,0.058,9.691c0.24,2.87-1.046,4.087-3.547,5.078c-31.896,12.637-64.965,16.68-99.011,13.724
		c-19.365-1.681-38.024-6.283-56.252-13.014c-4.411-1.629-6.108-3.786-5.615-8.275C80.897,198.833,80.52,196.666,80.393,194.01z
		 M190.446,212.351c-0.165-0.176-0.337-0.344-0.516-0.505c0.88-1.769,2.058-3.455,2.578-5.325c1.157-4.152-1.418-6.167-4.897-7.287
		c-3.62-1.166-5.39-0.503-6.277,2.063c8.207,1.94,9.155,4.754,4.002,11.858c-0.784,1.081-1.532,2.188-2.911,4.163
		c5.177-0.96,9.178-1.701,13.179-2.443c0.049-0.64,0.098-1.279,0.148-1.919C193.984,212.753,192.215,212.552,190.446,212.351z
		 M158.815,208.735c-0.062-0.175-0.124-0.351-0.186-0.526c0-2.306,0.613-6.36-0.107-6.613c-3.011-1.056-6.609-1.775-9.634-1.074
		c-2.898,0.671-3.471,3.607-1.675,6.515c0.419,0.679,0.308,2.105-0.142,2.824c-1.627,2.603-1.965,4.967,0.69,7.015
		c2.643,2.039,9.064,1.761,10.473-0.958C159.251,213.951,158.678,211.159,158.815,208.735z M172.327,203.681
		c-1.921,4.407-3.743,8.588-5.565,12.768c0.271,0.4,0.543,0.799,0.814,1.199c1.178-0.404,3.091-0.496,3.414-1.261
		c2.235-5.284,4.139-10.708,6.228-16.296c-4.71,0-8.784,0-12.859,0c-0.138,0.594-0.277,1.189-0.415,1.783
		C166.51,202.427,169.076,202.98,172.327,203.681z M136.182,203.215c-1.036,11.674-1.036,11.674,2.547,11.66
		c0.888-5.675,1.78-11.376,2.797-17.882c-3.706,1.733-6.502,3.041-9.299,4.349c0.095,0.366,0.189,0.731,0.284,1.097
		C133.654,202.68,134.796,202.922,136.182,203.215z"/>
	<path class="st1" d="M795.992,172.542c-10.691,0-21.155,0.151-31.607-0.149c-1.737-0.05-3.831-1.732-5.059-3.233
		c-12.548-15.339-24.923-30.819-37.417-46.203c-2.515-3.097-5.196-6.084-8.035-8.886c-3.328-3.285-7.325-5.068-13.152-4.069
		c0.507,15.769,0.637,31.553,1.693,47.275c0.464,6.903,4.628,9.148,14.801,10.435c3.74,0.473,3.74,0.473,3.649,4.822
		c-20.03,0-40.071,0-60.405,0c-0.641-2.695-0.798-4.842,3.059-4.886c1.648-0.019,3.295-0.444,4.938-0.714
		c6.995-1.147,9.907-4.023,10.666-11.089c0.479-4.46,0.708-8.967,0.719-13.453c0.065-26.151,0.033-52.302,0.029-78.453
		c0-1.832,0.014-3.666-0.059-5.496c-0.473-11.926-3.002-14.81-14.776-16.599c-3.162-0.481-6.241-0.746-4.395-5.53
		c1.069-0.058,2.199-0.172,3.33-0.174c20.141-0.033,40.286-0.309,60.42,0.058c7.584,0.139,15.374,0.921,22.659,2.914
		c13.898,3.803,21.836,14.065,22.933,27.674c1.264,15.686-4.363,26.566-17.93,33.12c-5.782,2.793-12.122,4.43-18.422,6.669
		c0.367,0.53,0.898,1.471,1.592,2.27c14.208,16.337,28.451,32.645,42.649,48.991c4.048,4.661,8.841,8.096,14.957,9.359
		C795.78,167.804,797.409,169.017,795.992,172.542z M701.185,105.417c10.345-1.686,19.779-2.53,28.813-4.902
		c8.027-2.107,13.759-8.016,14.904-16.492c3.807-28.18-6.816-42.591-33.537-42.304c-1.164,0.012-2.328,0.08-3.49,0.043
		c-4.862-0.153-6.783,2.187-6.737,7.022c0.144,15.294,0.05,30.591,0.049,45.886C701.185,97.624,701.185,100.578,701.185,105.417z"/>
	<path class="st2" d="M533.364,58.811c-0.15-1.152-0.307-2.304-0.449-3.457c-1.111-8.997-4.565-12.589-13.504-13.966
		c-1.793-0.276-3.606-0.419-5.448-0.628c-1.342-3.676-0.082-4.701,3.601-4.679c19.31,0.114,38.623-0.116,57.933,0.011
		c23.923,0.157,44.93,7.291,60.493,26.517c17.299,21.37,19.681,57.507,5.411,81.03c-10.258,16.909-26.004,25.437-45.015,28.075
		c-8.517,1.182-17.258,0.94-25.9,1c-18.787,0.131-37.575,0.04-56.59,0.04c-0.556-2.52-1.471-4.526,2.44-4.99
		c13.679-1.62,15.363-3.517,16.954-17.864c0.572-1.535,1.636-3.068,1.642-4.605c0.1-28.129,0.075-56.259,0.066-84.388
		c0-0.979-0.107-1.957-0.164-2.936C534.342,58.25,533.853,58.53,533.364,58.811z M554.841,44.912
		c-0.614,1.147-1.713,2.275-1.758,3.444c-0.196,5.083-0.168,10.18-0.019,15.267c0.032,1.103,0.897,2.182,1.378,3.272
		c-0.016,22.944-0.032,45.889-0.048,68.833c-1.915,3.46-2.639,6.88,0.348,10.173c0.653,3.085,1.15,6.214,1.992,9.247
		c1.496,5.387,5.16,8.786,10.385,10.592c23.271,8.04,47.872-4.448,53.986-28.133c5.523-21.396,4.856-42.939-2.031-63.992
		c-5.318-16.259-16.438-27.028-33.436-30.25c-8.082-1.532-16.54-1.281-24.832-1.357C558.827,41.988,556.83,43.892,554.841,44.912z"
		/>
	<path class="st1" d="M244.283,44.647c-0.465-1.029-0.93-2.059-1.697-3.757c5.239-1.502,10.096-3.867,15.058-4.114
		c10.404-0.516,20.882-0.244,31.29,0.374c4.614,0.274,8.968,7.435,7.689,11.932c-2.451,8.618-5.353,17.106-8.034,25.659
		c-0.777,2.478-1.437,4.992-2.296,8c-0.938,0.081-2.522,0.217-5.236,0.451c2.937,7.645,5.651,15.016,8.681,22.255
		c0.436,1.041,2.367,1.964,3.664,2.048c4.853,0.315,5.228,3.269,4.472,6.956c-0.902,4.397-1.975,8.758-2.895,13.151
		c-0.161,0.766,0.065,1.613,0.109,2.361c7.57,2.412,7.693,2.463,4.643,9.903c-2.776,6.771-5.753,13.466-8.887,20.078
		c-0.666,1.404-2.332,3.202-3.637,3.286c-5.61,0.363-11.257,0.155-16.882,0.155c-0.117-8.579,1.768-10.559,9.481-9.365
		c4.946,0.766,5.307-3.186,6.587-5.909c1.598-3.4,1.646-7.118-2.191-9.148c-2.581-1.365-5.596-2.052-8.499-2.636
		c-7.795-1.569-9.44-4.509-7.136-12.23c1.022-3.426,1.704-7.083,1.749-10.646c0.139-10.959-9.09-13.681-16.506-17.63
		c-4.024-2.143-8.539-3.078-7.982-9.246c0.066-0.731-3.568-2.455-5.532-2.531c-2.077-0.08-4.441,0.916-6.223,2.119
		c-0.966,0.652-0.982,2.714-1.559,4.567c-3.21-2.321-7.437-3.41-6.508-8.703c0.847-4.826,3.99-7.505,9.888-7.886
		c2.98-0.192,6.001,0.231,8.98,0.032c1.218-0.081,2.376-1.073,3.561-1.651c-0.144-0.496-0.289-0.991-0.433-1.487
		c-4.305,0-8.609,0-12.914,0c-5.138-1.151-8.043-4.621-7.001-10.57c0.255-1.457-0.049-3.003,0.105-4.487
		c0.595-5.743,0.41-11.104-6.11-13.291c0.141-0.789,0.083-1.247,0.271-1.4c2.597-2.106,5.228-4.17,7.851-6.244
		c1.374,2.845,3.198,5.568,4.014,8.565c1.126,4.137,1.493,8.48,2.188,12.755c7.355,2.074,18.51,0.613,24.012-3.928
		c-4.429,0.732-8.859,1.465-13.288,2.197c-0.227-0.467-0.454-0.934-0.681-1.401c3.185-2.004,6.37-4.008,9.556-6.013
		c-0.262-0.522-0.524-1.043-0.786-1.565c-5.725-0.39-11.242,9.555-17.191-0.218c1.775,0,3.582,0,5.389-0.002
		c0.358,0.423,0.714,0.847,1.07,1.272c0.174-0.092,0.349-0.184,0.523-0.276C244.77,45.836,244.527,45.242,244.283,44.647z
		 M259.734,42.312c0.057,0.517,0.114,1.033,0.171,1.55c2.638-0.166,5.275-0.332,9.095-0.573
		C264.963,38.229,262.345,40.134,259.734,42.312z"/>
	<path class="st1" d="M81.162,45.089c1.897-0.295,3.795-0.589,5.692-0.884c0.191,0.734,0.381,1.468,0.572,2.202
		c-2.805,0.845-5.718,2.604-8.386,2.288c-2.903-0.344-5.579-2.615-8.518-4.131c-1.902,3.88,0.732,4.086,2.822,4.957
		c1.857,0.774,3.522,2.01,5.272,3.042c-0.237,0.51-0.473,1.021-0.71,1.531C73.453,53.29,69,52.487,63.36,51.469
		c5.826,5.064,18.254,6.313,25.062,4.843c1.082-5.532,1.986-11.09,3.336-16.537c0.462-1.864,2.106-4.899,3.097-4.855
		c1.941,0.086,3.894,1.836,5.66,3.143c1.028,0.76,1.704,1.997,3.007,3.592c-8.991,3.322-6.966,10.769-6.454,17.3
		c0.479,6.112-1.233,10.359-7.241,12.601c-3.356-3.714-7.555-1.325-11.482-1.171c-0.452,0.018-1.35,1.396-1.198,1.661
		c0.415,0.725,1.258,1.649,1.97,1.683c3.324,0.156,6.701-0.294,9.981,0.108c3.491,0.428,7.428,0.459,9.111,4.729
		c2.192,5.562,1.426,7.268-5.311,11.147c-3.302-7.344-3.845-7.782-10.579-5.876c-1.356,0.384-2.321,2.381-3.321,3.743
		c-1.448,1.972-2.352,4.623-4.223,5.944c-3.363,2.374-7.343,3.85-10.937,5.925c-8.263,4.769-11.153,12.634-8.19,21.873
		c0.406,1.266,0.998,2.486,1.285,3.776c1.564,7.016-0.13,9.496-7.186,10.661c-1.15,0.19-2.321,0.279-3.456,0.532
		c-9.174,2.038-11.424,9.295-4.924,16.177c0.719,0.761,2.297,1.189,3.384,1.05c8.337-1.068,9.351-0.27,10.297,9.238
		c-5.941,0-11.843,0.083-17.738-0.091c-0.86-0.025-2.082-1.103-2.462-1.985c-3.886-9.012-7.643-18.08-11.392-27.151
		c-0.228-0.553-0.084-1.259-0.131-2.268c2.156-0.54,4.2-1.051,7.169-1.794c-0.916-4.445-1.821-8.91-2.757-13.368
		c-1.501-7.15-1.459-7.009,5.111-9.412c1.462-0.535,2.925-2.229,3.534-3.734c2.677-6.618,5.041-13.363,7.677-20.491
		c-2.191,0-3.9,0-4.992,0c-1.284-3.804-2.556-7.321-3.66-10.891c-2.406-7.78-4.94-15.532-6.917-23.422
		c-0.448-1.786,1.02-4.144,1.847-6.139c3.112-7.512,9.919-6.543,16.052-6.631c10.645-0.153,21.346-0.448,31.536,3.571
		c1.352,0.533,2.717,1.036,4.508,1.717c-0.799,1.429-1.413,2.527-2.024,3.626c-0.404,0.468-0.81,0.936-1.216,1.403
		c0.18,0.166,0.361,0.332,0.541,0.497C80.21,45.823,80.686,45.456,81.162,45.089z M66.362,43.458
		c-4.971-5.138-6.286-5.201-9.724-0.696C59.834,42.991,62.393,43.174,66.362,43.458z"/>
	<path class="st1" d="M402.052,170.906c0.849-1.009,1.64-2.841,2.555-2.905c15.732-1.093,20.447-5.969,20.305-23.672
		c-0.246-30.809-0.063-61.622-0.075-92.433c-0.003-6.872-1.511-8.535-8.463-8.71c-6.156-0.155-12.33-0.17-18.481,0.099
		c-15.428,0.675-20.172,5.22-22.018,20.679c-0.491,4.109-0.491,4.109-5.216,3.463c0-8.884-0.01-17.839,0.011-26.795
		c0.003-1.297,0.159-2.594,0.255-4.055c42.455,0,84.67,0,127.881,0c0,10.2,0,20.545,0,31.195c-0.767,0-2.173,0-3.742,0
		c-0.681-3.168-1.23-6.262-2.02-9.294c-2.098-8.056-7.288-13.351-15.496-14.293c-8.387-0.963-16.912-0.864-25.379-0.947
		c-4.523-0.044-6.128,2.495-6.104,7.126c0.169,31.81,0.09,63.621,0.091,95.431c0,0.333-0.002,0.666,0.005,0.999
		c0.324,15.258,3.574,18.856,18.784,20.926c1.885,0.257,4.863-0.615,4.012,3.188C446.655,170.906,424.354,170.906,402.052,170.906z"
		/>
	<path class="st3" d="M145.466,172.708c6.165-19.645,12.624-38.679,21.828-56.658c0.568-1.11,2.613-2.289,3.797-2.131
		c13.685,1.827,27.345,3.856,40.981,6.023c1.006,0.16,2.54,1.808,2.538,2.76c-0.026,10.15,0.303,20.366-0.797,30.419
		c-0.528,4.828-3.388,9.669-6.113,13.912c-2.717,4.231-7.294,6.107-12.531,6.005c-5.83-0.114-11.663-0.083-17.494-0.056
		c-5.213,0.024-9.958,0.914-12.607,6.308c-0.323,0.657-3.091,1.015-3.252,0.716C158.348,173.581,152.155,173.047,145.466,172.708z"
		/>
	<path class="st3" d="M193.09,52.012c-12.348,14.457-23.636,29.66-32.941,46.293c-0.666,1.191-2.387,2.354-3.737,2.513
		c-15.161,1.791-30.345,3.384-45.809,5.06c0-17.92,0-36.622,0-55.998c4.031,0.52,8.046,1.064,12.067,1.551
		c21.179,2.564,42.362,5.031,63.695,1.614c2.256-0.361,4.526-0.643,6.789-0.961C193.153,52.085,193.09,52.012,193.09,52.012z"/>
	<path class="st1" d="M199.565,16.914c1.501-2.77,2.751-5.077,4.209-7.766c2.672,1.226,5.016,2.302,7.817,3.588
		c-4.303,8.497-8.401,16.59-12.576,24.835c-23.176-5.076-46.121-5.044-69.66,0.041c-3.867-8.093-7.78-16.283-11.981-25.077
		c2.688-1.3,5.118-2.476,7.794-3.77c1.437,2.796,2.709,5.271,4.134,8.044c2.545-0.859,4.993-1.685,7.872-2.657
		c-0.661-2.802-1.293-5.477-2.06-8.728c3.35-0.652,6.515-1.268,10.004-1.947c0.876,3.001,1.651,5.655,2.563,8.776
		c2.967-0.21,5.873-0.415,9.139-0.645c0.151-3.178,0.29-6.092,0.443-9.318c4.766,0,9.331,0,14.279,0
		c0.163,2.99,0.322,5.913,0.478,8.779c8.215,2.047,8.215,2.047,11.955-7.494c2.955,0.584,5.994,1.185,9.623,1.903
		c-0.655,2.976-1.241,5.64-1.887,8.578C194.363,15.02,196.811,15.911,199.565,16.914z"/>
	<path class="st3" d="M110.443,119.705c14.204-2.159,28.133-4.276,42.342-6.436c-7.831,20.282-15.338,39.726-22.941,59.417
		c-6.508,1.575-13.991-4.035-16.076-10.067c-1.506-4.358-2.946-8.945-3.179-13.493C110.105,139.686,110.443,130.203,110.443,119.705
		z"/>
	<path class="st3" d="M214.438,106.733c-13.48-2.094-26.693-4.147-40.392-6.275c11.165-18.693,24.3-35.515,40.392-51.714
		C214.438,69.025,214.438,87.837,214.438,106.733z"/>
	<path class="st1" d="M268.329,117.538c-5.553-0.349-9.122-0.574-12.691-0.798c-0.096,0.272-0.193,0.543-0.289,0.815
		c2.899,2.024,5.798,4.048,9.584,6.692c-6.057,4.569-11.979,8.259-16.939,12.963c-7.334,6.955-15.82,5.007-24.851,5.016
		c0.665-2.655,1.107-4.72,1.704-6.739c1.03-3.48,3.53-5.37,6.778-3.56c5.716,3.186,8.764-0.084,11.877-3.915
		c0.831-1.022,1.652-2.052,3.053-3.792c-3.727-2.683-7.413-5.088-10.794-7.864c-1.975-1.622-4.176-3.567-5.036-5.837
		c-2.787-7.359,1.554-12.626,9.203-10.847c8.07,1.877,16.165,4.172,23.697,7.526C265.977,108.243,266.533,113.322,268.329,117.538z"
		/>
	<path class="st2" d="M58.408,116.91c-0.386-9.342-0.263-9.635,7.549-12.236c5.834-1.943,11.661-3.995,17.631-5.409
		c3.955-0.937,8.489-1.783,10.779,3.365c1.945,4.372,0.253,9.508-4.13,12.64c-3.755,2.683-7.543,5.32-11.919,8.402
		c2.914,3.122,5.256,5.869,7.891,8.297c0.721,0.664,2.436,0.763,3.504,0.457c9.131-2.625,11.096-1.18,11.689,8.994
		c-9.315,0.89-18.324,1.525-25.945-5.992c-4.311-4.252-9.67-7.442-15.254-11.633c3.794-2.713,6.933-4.957,10.784-7.711
		C66.175,116.4,62.292,116.655,58.408,116.91z"/>
	<path class="st2" d="M13.791,43.664c2.998,6.288-1.777,9.83-4.296,14.218c-6.491-3.823-6.673-11.925-0.566-15.766
		c8.522-5.36,14.121-3.105,14.764,7.043c0.475,7.504-0.398,15.309-2.021,22.682c-2.761,12.538-3.12,24.669,1.796,36.723
		c0.823,2.019,2.318,4.55-0.996,5.909c-3.401,1.395-4.353-1.214-5.31-3.579c-3.692-9.124-3.721-18.453-1.636-27.937
		c1.712-7.786,3.466-15.574,4.789-23.43c0.512-3.038,0.463-6.436-0.392-9.359c-0.764-2.614-2.989-4.801-4.57-7.177
		C14.832,43.216,14.312,43.44,13.791,43.664z"/>
	<path class="st2" d="M315.548,58.936c-1.895-5.063-7.953-8.331-3.272-15.448c-5.158,1.274-7.354,4.412-7.344,8.225
		c0.016,6.257,0.693,12.558,1.641,18.756c0.953,6.232,2.736,12.332,3.867,18.543c1.439,7.9,0.163,15.565-2.7,23.003
		c-0.937,2.434-2.519,4.451-5.149,2.818c-1.045-0.649-1.712-3.558-1.169-4.862c5.531-13.259,4.471-26.505,1.489-40.171
		c-1.558-7.14-1.31-14.784-1.042-22.169c0.137-3.765,2.399-8.605,6.765-7.763c4.068,0.785,8.449,3.761,11.093,7.056
		C322.443,50.311,320.21,55.303,315.548,58.936z"/>
	<path class="st2" d="M273.97,19.103c3.946,7.594,10.26,1.134,15.042,3.454c-1.262,8.4-1.756,8.832-10.124,8.829
		c-3.828-0.002-7.656-0.004-11.483-0.004c-7.997-0.002-7.997-0.001-9.486-9.192c2.179,0,4.423-0.524,6.272,0.108
		C268.128,23.643,271.262,23.072,273.97,19.103z"/>
	<path class="st2" d="M67.036,22.269c-1.214,8.516-1.214,8.515-9.291,8.51c-3.811-0.002-7.621-0.002-11.432-0.002
		c-8.24,0.001-8.24,0.002-10.261-8.448c4.666-2.568,11.142,3.305,15.043-3.844C55.252,25.751,61.705,19.924,67.036,22.269z"/>
	<path class="st1" d="M533.364,58.811c0.489-0.28,0.978-0.56,1.468-0.841c0.057,0.979,0.164,1.957,0.164,2.936
		c0.009,28.129,0.034,56.259-0.066,84.388c-0.005,1.537-1.07,3.07-1.642,4.605C533.313,119.536,533.338,89.173,533.364,58.811z"/>
	<path class="st2" d="M402.052,170.906c22.302,0,44.603,0,66.905,0c-0.995,0.649-1.988,1.86-2.987,1.865
		c-20.307,0.11-40.614,0.111-60.921,0C404.047,172.766,403.051,171.556,402.052,170.906z"/>
	<path class="st3" d="M193.153,52.085l-0.009-0.347c0,0-0.065,0.266-0.06,0.27C193.09,52.012,193.153,52.085,193.153,52.085z"/>
	<path class="st0" d="M158.815,208.735c-0.137,2.424,0.437,5.215-0.582,7.183c-1.408,2.72-7.829,2.997-10.473,0.958
		c-2.655-2.048-2.317-4.413-0.69-7.015c0.449-0.719,0.561-2.145,0.142-2.824c-1.795-2.908-1.223-5.844,1.675-6.515
		c3.025-0.7,6.623,0.018,9.634,1.074c0.72,0.253,0.107,4.307,0.107,6.613C158.69,208.385,158.753,208.56,158.815,208.735z
		 M156.667,212.897c-1.74-1.428-2.964-3.092-3.722-2.902c-1.186,0.298-2.6,1.729-2.866,2.915c-0.172,0.768,1.58,2.803,2.382,2.757
		C153.676,215.597,154.814,214.209,156.667,212.897z M156.875,204.284c-1.898-1.209-2.983-2.424-4.068-2.424
		c-0.844,0-2.486,1.682-2.352,2.321c0.23,1.103,1.487,2.65,2.453,2.758C153.873,207.045,155.008,205.615,156.875,204.284z"/>
	<path class="st0" d="M190.446,212.351c1.769,0.201,3.538,0.403,5.307,0.604c-0.049,0.64-0.098,1.279-0.148,1.919
		c-4.001,0.741-8.002,1.483-13.179,2.443c1.379-1.974,2.127-3.081,2.911-4.163c5.153-7.104,4.205-9.918-4.002-11.858
		c0.887-2.566,2.657-3.228,6.277-2.063c3.479,1.12,6.054,3.135,4.897,7.287c-0.521,1.869-1.699,3.555-2.578,5.325
		c-0.212,0.189-0.424,0.377-0.637,0.566C189.678,212.391,190.062,212.371,190.446,212.351z"/>
	<path class="st0" d="M172.327,203.681c-3.25-0.7-5.816-1.253-8.382-1.806c0.138-0.594,0.277-1.189,0.415-1.783
		c4.075,0,8.149,0,12.859,0c-2.089,5.588-3.992,11.012-6.228,16.296c-0.324,0.765-2.237,0.857-3.414,1.261
		c-0.271-0.4-0.543-0.799-0.814-1.199C168.584,212.268,170.406,208.087,172.327,203.681z"/>
	<path class="st0" d="M136.182,203.215c-1.387-0.293-2.529-0.535-3.671-0.776c-0.095-0.366-0.189-0.731-0.284-1.097
		c2.797-1.308,5.593-2.616,9.299-4.349c-1.018,6.506-1.91,12.208-2.797,17.882C135.147,214.889,135.147,214.889,136.182,203.215z"/>
	<path class="st0" d="M701.185,105.417c0-4.838,0-7.792,0-10.746c0.002-15.296,0.095-30.592-0.049-45.886
		c-0.045-4.835,1.875-7.175,6.737-7.022c1.162,0.037,2.327-0.031,3.49-0.043c26.721-0.287,37.344,14.124,33.537,42.304
		c-1.145,8.476-6.876,14.384-14.904,16.492C720.965,102.886,711.53,103.731,701.185,105.417z"/>
	<path class="st0" d="M554.395,135.728c0.016-22.944,0.032-45.889,0.048-68.833c0.133-7.327,0.266-14.655,0.399-21.982
		c1.989-1.02,3.986-2.924,5.965-2.906c8.292,0.076,16.75-0.175,24.832,1.357c16.998,3.222,28.117,13.991,33.436,30.25
		c6.887,21.053,7.554,42.596,2.031,63.992c-6.114,23.685-30.715,36.173-53.986,28.133c-5.225-1.805-8.888-5.204-10.385-10.592
		c-0.842-3.033-1.339-6.161-1.992-9.247C554.626,142.509,554.51,139.119,554.395,135.728z"/>
	<path class="st1" d="M554.841,44.912c-0.133,7.327-0.266,14.655-0.399,21.982c-0.482-1.09-1.346-2.169-1.379-3.272
		c-0.148-5.086-0.176-10.184,0.019-15.267C553.128,47.187,554.227,46.059,554.841,44.912z"/>
	<path class="st1" d="M554.395,135.728c0.116,3.391,0.232,6.782,0.348,10.173C551.756,142.608,552.48,139.188,554.395,135.728z"/>
	<path class="st0" d="M259.734,42.312c2.61-2.178,5.228-4.083,9.266,0.977c-3.82,0.241-6.458,0.407-9.095,0.573
		C259.848,43.346,259.791,42.829,259.734,42.312z"/>
	<path class="st0" d="M244.283,44.647c0.243,0.595,0.487,1.19,0.73,1.784c-0.174,0.092-0.349,0.184-0.523,0.276
		c-0.356-0.425-0.713-0.849-1.07-1.272C243.707,45.174,243.995,44.91,244.283,44.647z"/>
	<path class="st0" d="M66.362,43.458c-3.968-0.284-6.528-0.467-9.724-0.696C60.076,38.257,61.391,38.32,66.362,43.458z"/>
	<path class="st0" d="M81.162,45.089c-0.476,0.367-0.951,0.734-1.427,1.1c-0.18-0.166-0.361-0.332-0.541-0.497
		c0.406-0.467,0.812-0.934,1.216-1.403C80.658,44.556,80.91,44.822,81.162,45.089z"/>
	<path class="st2" d="M156.667,212.897c-1.853,1.312-2.991,2.7-4.206,2.77c-0.802,0.046-2.554-1.989-2.382-2.757
		c0.266-1.187,1.68-2.617,2.866-2.915C153.703,209.805,154.927,211.469,156.667,212.897z"/>
	<path class="st2" d="M156.875,204.284c-1.867,1.331-3.003,2.762-3.967,2.654c-0.966-0.107-2.223-1.654-2.453-2.758
		c-0.133-0.638,1.509-2.32,2.352-2.321C153.892,201.86,154.977,203.075,156.875,204.284z"/>
	<path class="st1" d="M190.446,212.351c-0.384,0.02-0.768,0.04-1.153,0.061c0.212-0.189,0.424-0.377,0.637-0.566
		C190.109,212.006,190.281,212.175,190.446,212.351z"/>
</g>
</svg>
