<?xml version="1.0" encoding="utf-8"?>
<!-- Generator: Adobe Illustrator 19.2.0, SVG Export Plug-In . SVG Version: 6.00 Build 0)  -->
<svg version="1.1" id="Layer_1" xmlns="http://www.w3.org/2000/svg" xmlns:xlink="http://www.w3.org/1999/xlink" x="0px" y="0px"
	 viewBox="0 0 96.803 32.144" style="enable-background:new 0 0 96.803 32.144;" xml:space="preserve">
<g>
	<path d="M43.679,14.751c0.66,0,2.112-0.033,2.64-0.231c0.628-0.231,0.825,0,0.265,0.396c-0.858,0.594-2.244,0.825-3.201,0.891
		c-0.595,1.947-3.169,8.845-1.717,10.43c0.429,0.462,1.122,0.527,1.849,0c1.683-1.255,3.069-3.829,4.125-5.974
		c0.363-0.726,0.858-0.561,0.495,0.231c-1.716,3.631-2.541,4.753-4.026,6.205c-1.155,1.122-2.574,1.485-3.729,0.891
		c-3.004-1.551,0.297-9.505,1.089-11.782c-1.485,0-8.185-0.297-11.188-0.429c-2.574,7.657-8.614,15.545-17.129,16.634
		C5.624,32.97-1.769,28.646,0.376,20.395c0.561-2.145,2.971-4.159,4.027-4.191c0.693,0,0.396,0.33,0.066,0.462
		c-1.089,0.462-3.003,2.476-3.367,5.215c-0.924,7.195,7.096,8.944,11.717,7.921c9.241-2.08,13.565-8.747,15.743-14.489
		c-0.693,0-1.353,0.231-1.98,0.528c-0.363,0.165-1.386,0.495-0.891-0.363c0.297-0.495,1.188-1.155,2.046-1.254h1.287
		c1.65-4.125,4.125-9.307,4.818-10.693c-6.469,0.726-14.258,0.231-16.634,7.855c-1.122,3.598,0.99,6.601,4.324,5.38
		c2.442-0.891,3.333-5.248,2.904-5.875c-0.363-0.528,0.198-0.726,0.429-0.231c1.254,2.739-0.924,5.875-3.3,6.733
		c-3.961,1.452-7.69-2.211-6.601-6.535c2.079-8.351,12.905-7.492,19.341-8.12c0.231-0.396,1.485-2.31,2.541-2.64
		c0.958-0.264,1.881,0,1.881,0.924c0,1.551-2.574,2.442-3.895,2.442c-1.254,2.442-3.696,9.34-4.257,10.759
		c4.422,0,8.878,0.561,11.188,0.561c0.495-1.386,4.588-12.113,7.195-13.004c1.287-0.462,2.772-0.66,1.552-0.033
		C49.884,2.078,46.319,7.061,43.679,14.751z M35.428,2.639c2.805-0.429,2.145-1.584,1.749-1.584
		C36.847,0.889,35.89,2.044,35.428,2.639z"/>
	<path d="M50.009,26.633c-1.65,0-3.135-1.089-3.168-3.168c-0.033-1.98,1.089-4.456,2.541-6.172c1.684-1.98,4.191-3.234,5.644-2.145
		c1.255,0.957,0.298,3.201-1.815,4.818c-1.022,0.759-3.168,1.453-4.06,1.453c-0.494,1.188-1.056,4.521,1.123,4.521
		c2.904,0,4.687-3.894,5.445-5.644c0.264-0.594,0.924-0.66,0.594,0.033C55.092,22.97,53.673,26.633,50.009,26.633z M51.363,17.755
		c-0.858,1.056-1.684,2.508-1.98,3.102c0.594,0,2.311-0.462,3.499-1.452C55.587,17.127,55.422,12.837,51.363,17.755z"/>
	<path d="M57.631,20.131c-0.165,0.562-0.495,1.354-0.692,2.179c-0.99,3.96,1.649,4.521,3.399,2.079
		c1.089-1.551,2.013-3.333,2.442-4.191c0.297-0.562,0.792-0.495,0.495,0.165c-0.825,1.749-2.542,6.205-5.875,6.205
		c-3.697,0-2.112-4.522-1.552-6.502c1.023-3.696,3.103-8.449,5.017-11.65c2.344-3.928,5.908-3.466,3.532,1.815
		C62.879,13.629,60.866,17.194,57.631,20.131z M63.111,8.249c-1.618,2.277-4.192,8.185-5.215,10.825
		c2.343-2.376,4.72-6.271,6.007-9.34C64.563,8.216,64.893,5.708,63.111,8.249z"/>
	<path d="M64.627,20.131c-0.165,0.562-0.495,1.354-0.692,2.179c-0.99,3.96,1.649,4.521,3.399,2.079
		c1.089-1.551,2.013-3.333,2.442-4.191c0.297-0.562,0.792-0.495,0.495,0.165c-0.825,1.749-2.542,6.205-5.875,6.205
		c-3.697,0-2.112-4.522-1.552-6.502c1.023-3.696,3.103-8.449,5.017-11.65c2.344-3.928,5.908-3.466,3.532,1.815
		C69.875,13.629,67.862,17.194,64.627,20.131z M70.107,8.249c-1.618,2.277-4.192,8.185-5.215,10.825
		c2.343-2.376,4.72-6.271,6.007-9.34C71.559,8.216,71.889,5.708,70.107,8.249z"/>
	<path d="M76.21,26.237c-0.99,0-1.684-0.363-2.112-0.858c-0.924,0.693-1.914,1.155-2.871,1.122
		c-2.509-0.066-2.872-3.069-1.617-6.007c1.287-3.037,4.026-5.611,6.271-5.545c2.509,0.033,2.871,3.069,1.617,6.007
		c-0.495,1.155-1.519,2.706-2.772,3.895c0.265,0.495,0.759,0.825,1.552,0.825c2.112,0,3.828-4.092,4.62-5.677
		c0.165-0.33,0.727-0.198,0.495,0.297C80.831,21.55,78.983,26.237,76.21,26.237z M71.887,20.362
		c-1.287,2.706-1.585,5.017-0.396,5.38c0.627,0.165,1.452-0.165,2.244-0.825c-0.363-0.528-0.528-1.122-0.528-1.617
		c0.033-0.759,0.33-1.419,1.155-1.419c0.562,0,0.99,0.462,0.99,0.99c0,0.133-0.032,0.231-0.065,0.363
		c0.362-0.528,0.726-1.155,1.022-1.782c1.287-2.707,1.452-5.05,0.265-5.413C75.155,15.643,73.108,17.755,71.887,20.362z"/>
	<path d="M84.064,26.963c-0.76,0-1.255-0.594-1.122-1.354c0.099-0.759,0.825-1.353,1.584-1.353c0.726,0,1.254,0.594,1.122,1.353
		C85.516,26.369,84.823,26.963,84.064,26.963z M85.747,22.97l-0.33-0.033l0.033-0.231l8.384-15.975
		c0.462-0.891,1.881-0.627,2.739-0.66l0.165,0.066l0.065,0.198C96.441,7.325,86.968,21.121,85.747,22.97z"/>
</g>
</svg>
