<?xml version="1.0" encoding="utf-8"?>
<!-- Generator: Adobe Illustrator 19.2.0, SVG Export Plug-In . SVG Version: 6.00 Build 0)  -->
<svg version="1.1" id="Layer_1" xmlns="http://www.w3.org/2000/svg" xmlns:xlink="http://www.w3.org/1999/xlink" x="0px" y="0px"
	 viewBox="0 0 465.146 204.12" style="enable-background:new 0 0 465.146 204.12;" xml:space="preserve">
<style type="text/css">
	.croski-st0{fill:#FDFDFE;}
	.croski-st1{fill:#D1D3D4;}
	.croski-st2{fill:#0668B2;}
	.croski-st3{fill:#0B69B2;}
	.croski-st4{fill:#CE757B;}
	.croski-st5{fill:#E92228;}
</style>
<g>
	<path class="croski-st0" d="M261.433,103.254l0.12-0.414l-0.075,0.417c-1.902-0.045-3.803-0.09-5.705-0.135
		c0.756-1.016-0.08-1.077-0.718-1.078c-0.648,0-1.479,0.078-0.658,1.069c-18.129,0.036-36.257,0.072-54.386,0.108
		c-0.28-0.908-0.806-1.816-0.805-2.724c0.019-29.948,0.098-59.896,0.131-89.844c0.002-1.817-0.346-3.632-0.434-5.453
		c-0.118-2.432-1.257-3.581-3.762-3.575c-19.969,0.047-39.938,0.043-59.907,0.081c-0.741,0.001-1.937-0.34-2.027,0.722
		c-0.05,0.592,0.751,1.545,1.4,1.865c6.657,3.278,12.937,7.454,20.429,8.792l0.011,0.005c0.644,1.827,2.496,2.05,3.874,2.883
		c6.359,3.849,13.427,6.539,18.995,11.681c5.485,5.064,4.899,9.977-1.332,13.978c-5.95,3.821-12.57,5.78-19.184,7.921
		c-11.025,3.569-22.554,5.71-32.982,10.963c-7.124,3.588-7.306,7.773-1.225,12.829c10.971,9.121,23.604,15.454,36.48,21.168
		c9.692,4.3,18.874,10.416,30.258,9.99c7.774-0.29,7.767-0.032,7.788,7.767c0.08,29.933,0.171,59.865,0.258,89.798
		c0.214,0.832,0.585,1.709,1.515,1.702c6.938-0.049,14.147,1.848,20.489-2.713c0.352-0.107,0.704-0.215,1.056-0.322
		c16.835-5.965,32.563-14.138,47.428-23.98c3.678-2.435,8.724-4.878,7.968-9.869c-0.733-4.843-6.091-6.185-10.319-7.562
		c-11.986-3.905-24.086-7.461-36.059-11.406c-5.198-1.713-10.349-3.798-14.18-8.017c-3.811-4.198-3.668-7.368,0.505-11.119
		c3.35-3.011,7.169-5.356,11.04-7.644c11.069-6.543,23.046-11.265,34.39-17.251c0.123-0.018,0.246-0.035,0.369-0.053
		c-0.142,0.058-0.285,0.117-0.427,0.175C261.532,103.807,261.424,103.556,261.433,103.254z M264.574,98.063
		c2.829,0,5.679,0.224,8.484-0.037c17.418-1.621,32.351-8.006,41.32-23.878c7.592-13.435,7.616-28.026,3.598-42.508
		c-3.466-12.491-12.176-20.558-24.01-25.478c-6.509-2.706-13.408-3.892-20.278-4.569c-15.862-1.563-31.134,0.544-44.623,9.892
		c-11.847,8.21-17.252,20.107-18.646,34.065c-1.904,19.072,4.727,39.043,25.931,47.893
		C245.508,97.266,254.908,98.133,264.574,98.063z M56.882,0.1C43.056-0.54,30.132,1.792,18.828,9.907
		C1.772,22.15-1.657,39.736,0.636,59.047c2.241,18.872,13.042,30.778,31.453,35.491c9.382,2.402,19.024,3.113,28.665,2.431
		c5.742-0.406,12.151-0.35,16.899-2.969c3.696-2.039,1.91-8.572,2.948-13.03c0.262-1.128,0.217-2.348,0.597-3.426
		c1.498-4.237-0.139-5.14-4.01-4.022c-8.147,2.352-16.53,1.894-24.789,1.362c-5.412-0.348-10.768-1.942-15.026-5.925
		c-9.084-8.496-8.645-19.051-5.754-29.594c2.918-10.643,10.885-16.176,21.563-18.278c8.896-1.752,17.48-0.463,25.975,2.02
		c3.074,0.898,4.201,0.276,4-3.076c-0.259-4.316-0.283-8.665-0.087-12.985c0.142-3.139-1.248-4.548-4.12-5.141
		C71.597,0.388,64.182-0.231,56.882,0.1z M394.181,201.117c4.161,0,8.322,0.042,12.482-0.025c1.265-0.02,2.896,0.607,3.697-0.71
		c0.813-1.336-0.485-2.44-1.133-3.55c-7.612-13.028-14.979-26.209-22.972-39c-2.893-4.629-1.926-7.666,0.989-11.514
		c8.506-11.229,16.723-22.676,25.056-34.035c2.071-2.823,2.03-4.339-2.138-4.262c-8.485,0.155-16.976,0.141-25.462-0.007
		c-2.761-0.048-4.157,1.135-5.398,3.434c-6.866,12.724-15.545,24.291-23.618,36.234c-2.293,3.392-2.719,5.842-0.719,9.409
		c5.51,9.827,11.531,19.498,15.751,29.88C375.271,198.175,381.123,205.04,394.181,201.117z M446.143,201.124
		c2.33,0,4.66,0.016,6.989-0.003c8.889-0.072,7.875,0.884,7.851-7.607c-0.042-14.944,0.84-29.829,1.846-44.738
		c0.803-11.897,1.075-23.836,2.178-35.725c0.226-2.441,0.676-5.115-3.419-5.018c-7.484,0.178-14.977,0.1-22.465,0.022
		c-3.056-0.032-4.078,1.44-4.052,4.307c0.097,10.462-0.622,20.91-0.843,31.354c-0.366,17.259-0.618,34.489-3.143,51.602
		c-0.582,3.946,0.167,6.45,5.081,5.876C439.45,200.81,442.815,201.121,446.143,201.124z M339.699,108.049
		c-3.831,0-7.663,0.081-11.491-0.026c-2.999-0.084-4.113,1.265-4.173,4.196c-0.278,13.625-0.662,27.247-1.055,40.869
		c-0.062,2.146-0.511,4.283-0.54,6.427c-0.176,12.783-1.238,25.508-2.417,38.225c-0.252,2.716,1.151,3.418,3.596,3.391
		c7.327-0.081,14.656-0.095,21.983,0.005c2.604,0.035,3.415-1.02,3.509-3.549c0.581-15.591,1.164-31.184,2.019-46.762
		c0.708-12.901,1.7-25.788,2.775-38.664c0.26-3.112-0.597-4.285-3.715-4.142C346.699,108.179,343.196,108.056,339.699,108.049z
		 M298.779,134.745c0.008,0,0.016,0,0.024,0c0-9.153,0.021-18.306-0.018-27.459c-0.007-1.742,0.459-3.994-2.387-4.004
		c-2.817-0.011-5.993-0.637-8.396,0.414c-16.433,7.183-33.208,13.778-48.02,24.144c-7.19,5.032-6.891,9.127,0.589,13.927
		c1.811,1.162,3.779,2.101,5.738,3.006c7.428,3.432,15.445,5.071,23.182,7.566c9.115,2.94,18.836,4.387,26.704,10.538
		c0.695,0.543,0.771,2.248,1.948,1.582c0.554-0.314,0.607-1.799,0.612-2.754C298.797,152.718,298.779,143.731,298.779,134.745z
		 M96.661,53.121c-0.007,0-0.013,0-0.02,0c0,15.316,0.097,30.634-0.064,45.948c-0.043,4.105,1.338,5.515,5.505,5.466
		c16.646-0.198,33.297-0.07,49.945-0.143c1.38-0.006,3.593,0.851,4.026-0.81c0.555-2.131-1.942-2.375-3.339-2.952
		c-12.431-5.133-24.464-11.101-36.179-17.664c-5.922-3.317-11.604-7.138-16.238-12.27c-2.866-3.174-2.461-5.697,0.894-8.35
		c5.681-4.491,12.634-5.688,19.204-7.821c10.232-3.323,20.835-5.588,30.677-9.994c4.739-2.121,10.65-4.526,11.059-10.377
		c0.372-5.325-5.204-7.52-9.204-10.054c-14.062-8.908-29.466-15.135-44.554-21.961c-6.915-3.129-11.706-0.184-11.708,6.53
		C96.658,23.486,96.661,38.304,96.661,53.121z M269.415,203.973c0,0.01,0,0.02,0,0.03c8.478,0,16.956,0.021,25.434-0.017
		c1.736-0.008,3.932,0.483,3.929-2.418c-0.012-9.807-0.027-19.614-0.084-29.421c-0.003-0.602-0.379-1.201-0.581-1.801
		c-0.437,0.376-0.96,0.688-1.298,1.139c-2.441,3.256-5.697,5.558-9.036,7.753c-13.931,9.16-28.975,16.151-44.254,22.687
		c-0.805,0.344-2.148,0.219-2.146,1.489c0,0.188,1.691,0.53,2.602,0.535C252.459,203.99,260.937,203.973,269.415,203.973z"/>
	<path class="croski-st1" d="M264.574,98.063c-9.667,0.071-19.066-0.797-28.224-4.62c-21.203-8.85-27.835-28.821-25.931-47.893
		c1.394-13.958,6.799-25.855,18.646-34.065c13.489-9.348,28.76-11.455,44.623-9.892c6.87,0.677,13.769,1.863,20.278,4.569
		c11.834,4.92,20.544,12.987,24.01,25.478c4.018,14.483,3.994,29.073-3.598,42.508c-8.969,15.873-23.902,22.257-41.32,23.878
		C270.254,98.287,267.404,98.063,264.574,98.063z M290.072,49.102c0-0.833,0.005-1.665-0.001-2.498
		c-0.088-12.987-7.444-22.032-19.084-23.469c-15.525-1.916-25.759,3.764-29.232,16.758c-1.35,5.051-1.368,10.264-0.953,15.678
		c1.662,21.65,23.575,24.784,36.513,18.632C287.851,69.192,289.646,59.418,290.072,49.102z"/>
	<path class="croski-st1" d="M56.882,0.1c7.3-0.331,14.716,0.287,22.067,1.805c2.872,0.593,4.262,2.003,4.12,5.141
		c-0.196,4.32-0.172,8.668,0.087,12.985c0.201,3.352-0.926,3.974-4,3.076c-8.495-2.482-17.079-3.771-25.975-2.02
		c-10.678,2.102-18.644,7.635-21.563,18.278c-2.891,10.543-3.331,21.097,5.754,29.594c4.259,3.983,9.614,5.577,15.026,5.925
		c8.258,0.532,16.642,0.989,24.789-1.362c3.872-1.118,5.508-0.215,4.01,4.022c-0.381,1.077-0.335,2.297-0.597,3.426
		c-1.037,4.459,0.749,10.992-2.948,13.03c-4.748,2.619-11.157,2.563-16.899,2.969c-9.641,0.682-19.283-0.029-28.665-2.431
		C13.678,89.826,2.878,77.919,0.636,59.047C-1.657,39.736,1.772,22.15,18.828,9.907C30.132,1.792,43.056-0.54,56.882,0.1z"/>
	<path class="croski-st2" d="M221.04,200.735c-0.352,0.107-0.704,0.215-1.056,0.322c-4.993,0.007-9.989-0.064-14.98,0.053
		c-2.59,0.061-4-0.542-3.992-3.561c0.072-29.628,0.042-59.256,0.046-88.885c0-1.707-0.045-3.524,2.399-3.527
		c13.149-0.018,26.298-0.039,39.446,0.026c1.826,0.009,3.341,1.335,3.35,3.019c0.007,1.395-1.437,2.672-3.05,2.784
		c-5.686,0.395-9.326,4.875-14.146,6.869c-3.607,1.493-6.564,4.058-10,5.789c-3.738,1.883-9.317,4.67-8.13,11.53
		c0.885,5.114,4.479,7.35,8.058,9.911c7.01,5.016,15.58,6.379,23.366,9.49c7.22,2.884,15.156,4.29,22.778,6.308
		c3.862,1.023,6.475,2.778,7.689,6.021c1.394,3.724-1.903,5.993-4.411,7.555c-14.382,8.95-28.996,17.506-45.243,22.774
		C221.409,197.782,221.013,199.119,221.04,200.735z"/>
	<path class="croski-st1" d="M394.181,201.117c-13.058,3.923-18.911-2.942-23.464-14.146c-4.22-10.383-10.241-20.054-15.751-29.88
		c-2-3.567-1.574-6.017,0.719-9.409c8.072-11.943,16.752-23.51,23.618-36.234c1.241-2.3,2.637-3.483,5.398-3.434
		c8.485,0.148,16.977,0.162,25.462,0.007c4.169-0.076,4.209,1.439,2.138,4.262c-8.333,11.359-16.551,22.807-25.056,34.035
		c-2.915,3.849-3.882,6.885-0.989,11.514c7.993,12.79,15.36,25.971,22.972,39c0.648,1.11,1.946,2.214,1.133,3.55
		c-0.801,1.317-2.432,0.69-3.697,0.71C402.503,201.158,398.342,201.117,394.181,201.117z"/>
	<path class="croski-st1" d="M446.143,201.122c-3.328-0.001-6.693-0.312-9.976,0.071c-4.915,0.574-5.663-1.93-5.081-5.876
		c2.525-17.113,2.777-34.342,3.143-51.602c0.221-10.444,0.94-20.892,0.843-31.354c-0.026-2.867,0.996-4.338,4.052-4.307
		c7.488,0.078,14.98,0.156,22.465-0.022c4.095-0.097,3.645,2.577,3.419,5.018c-1.102,11.889-1.375,23.829-2.178,35.725
		c-1.006,14.908-1.888,29.793-1.846,44.738c0.024,8.491,1.038,7.535-7.851,7.607C450.803,201.14,448.473,201.124,446.143,201.122z"
		/>
	<path class="croski-st1" d="M339.699,108.052c3.497,0.003,7.001,0.127,10.491-0.033c3.118-0.143,3.974,1.03,3.715,4.142
		c-1.075,12.876-2.067,25.764-2.775,38.664c-0.855,15.578-1.437,31.171-2.019,46.762c-0.094,2.53-0.905,3.584-3.509,3.549
		c-7.327-0.099-14.656-0.086-21.983-0.005c-2.445,0.027-3.848-0.675-3.596-3.391c1.179-12.718,2.241-25.442,2.417-38.225
		c0.03-2.144,0.478-4.281,0.54-6.427c0.394-13.622,0.777-27.244,1.055-40.869c0.06-2.931,1.174-4.28,4.173-4.196
		C332.035,108.13,335.868,108.049,339.699,108.052z"/>
	<path class="croski-st3" d="M298.779,134.745c0,8.987,0.017,17.973-0.025,26.96c-0.005,0.956-0.057,2.441-0.612,2.754
		c-1.177,0.666-1.253-1.039-1.948-1.582c-7.868-6.151-17.589-7.599-26.704-10.538c-7.737-2.495-15.754-4.134-23.182-7.566
		c-1.959-0.905-3.927-1.844-5.738-3.006c-7.48-4.8-7.779-8.895-0.589-13.927c14.813-10.366,31.588-16.962,48.02-24.144
		c2.403-1.051,5.578-0.425,8.396-0.414c2.846,0.011,2.38,2.263,2.387,4.004c0.039,9.153,0.018,18.306,0.018,27.459
		C298.796,134.745,298.787,134.745,298.779,134.745z"/>
	<path class="croski-st4" d="M197.98,202.068c-0.087-29.933-0.178-59.865-0.258-89.798c-0.021-7.799-0.014-8.057-7.788-7.767
		c-11.383,0.425-20.566-5.69-30.258-9.99c-12.877-5.714-25.51-12.047-36.48-21.168c-6.081-5.056-5.899-9.24,1.225-12.829
		c10.429-5.253,21.957-7.394,32.982-10.963c6.614-2.141,13.235-4.1,19.184-7.921c6.23-4.001,6.817-8.914,1.332-13.978
		c-5.569-5.142-12.637-7.832-18.995-11.681c-1.377-0.834-3.229-1.057-3.874-2.884c1.786,0.27,3.975-0.027,5.29,0.907
		c6.693,4.75,14.34,7.955,20.728,13.215c4.108,3.383,4.821,7.441,1.363,11.44c-7.829,9.053-18.881,11.583-29.678,14.291
		c-9.124,2.288-18.074,5.06-26.649,8.781c-6.349,2.754-6.403,5.348-1.422,10.313c2.008,2.001,4.248,3.652,6.672,5.16
		c10.344,6.436,21.004,12.296,32.142,17.202c9.01,3.968,18.02,7.922,28.398,7.129c4.167-0.318,5.285-1.45,5.264-5.518
		c-0.151-28.329-0.346-56.664,0.157-84.985c0.106-5.951-3.425-7.411-6.921-7.527c-14.815-0.49-29.656-0.187-44.487-0.236
		c-1.322-0.004-1.632,0.409-2.18,1.626c-0.843,1.874,0.367,1.738,1.325,2.363c3.236,2.112,7.507,2.451,9.987,5.834
		c-7.492-1.338-13.771-5.514-20.429-8.792c-0.649-0.32-1.451-1.272-1.4-1.865c0.09-1.062,1.286-0.721,2.027-0.722
		c19.969-0.039,39.938-0.035,59.907-0.081c2.504-0.006,3.644,1.143,3.762,3.575c0.088,1.821,0.436,3.636,0.434,5.453
		c-0.034,29.948-0.112,59.896-0.131,89.844c-0.001,0.908,0.525,1.816,0.813,2.723c-2.88,1.371-1.796,4.035-1.805,6.167
		C198.082,140.281,198.042,171.174,197.98,202.068z"/>
	<path class="croski-st3" d="M197.98,202.068c0.062-30.893,0.102-61.787,0.234-92.68c0.009-2.132-1.075-4.796,1.805-6.167
		c18.122-0.035,36.25-0.071,54.367-0.109c0.454,0.002,0.921,0.006,1.388,0.01c1.902,0.045,3.803,0.09,5.706,0.135
		c0.001,0-0.046-0.003-0.046-0.003c-0.009,0.302,0.098,0.554,0.322,0.755c0-0.001,0.059-0.121,0.059-0.121
		c-11.344,5.986-23.321,10.708-34.39,17.251c-3.871,2.288-7.691,4.633-11.04,7.644c-4.173,3.751-4.317,6.921-0.505,11.119
		c3.83,4.219,8.981,6.304,14.18,8.017c11.973,3.944,24.073,7.501,36.059,11.406c4.228,1.377,9.586,2.719,10.319,7.562
		c0.756,4.991-4.291,7.435-7.968,9.869c-14.865,9.842-30.594,18.015-47.428,23.98c-0.027-1.616,0.37-2.953,2.123-3.521
		c16.247-5.268,30.862-13.824,45.243-22.774c2.509-1.561,5.805-3.831,4.411-7.555c-1.214-3.243-3.827-4.999-7.689-6.021
		c-7.622-2.018-15.558-3.423-22.778-6.308c-7.786-3.11-16.356-4.473-23.366-9.49c-3.579-2.561-7.173-4.797-8.058-9.911
		c-1.187-6.86,4.392-9.647,8.13-11.53c3.436-1.731,6.393-4.297,10-5.789c4.821-1.994,8.46-6.475,14.146-6.869
		c1.613-0.112,3.057-1.389,3.05-2.784c-0.009-1.684-1.524-3.01-3.35-3.019c-13.148-0.065-26.297-0.044-39.446-0.026
		c-2.444,0.003-2.399,1.82-2.399,3.527c-0.004,29.628,0.026,59.256-0.046,88.885c-0.007,3.019,1.402,3.622,3.992,3.561
		c4.991-0.117,9.986-0.046,14.98-0.053c-6.342,4.561-13.55,2.663-20.489,2.713C198.565,203.776,198.194,202.9,197.98,202.068z"/>
	<path class="croski-st4" d="M96.661,53.121c0-14.818-0.004-29.635,0.002-44.453c0.002-6.714,4.794-9.659,11.708-6.53
		c15.088,6.826,30.491,13.052,44.554,21.961c4,2.534,9.576,4.73,9.204,10.054c-0.408,5.851-6.32,8.256-11.059,10.377
		c-9.842,4.406-20.445,6.671-30.677,9.994c-6.57,2.134-13.524,3.33-19.204,7.821c-3.356,2.653-3.761,5.176-0.894,8.35
		c4.634,5.132,10.316,8.953,16.238,12.27c11.715,6.562,23.748,12.53,36.179,17.664c1.397,0.577,3.894,0.821,3.339,2.952
		c-0.432,1.661-2.645,0.804-4.026,0.81c-16.648,0.073-33.299-0.055-49.945,0.143c-4.166,0.049-5.548-1.361-5.505-5.466
		c0.161-15.315,0.064-30.632,0.064-45.948C96.648,53.121,96.655,53.121,96.661,53.121z M98.904,32.56
		c0,8.316-0.046,16.632,0.052,24.946c0.014,1.174-0.824,4.194,2.238,2.355c7.229-4.344,15.317-6.231,23.215-8.763
		c9.31-2.985,19.091-4.387,27.798-9.471c9.005-5.258,9.913-9.374,1.163-14.873c-14.946-9.392-31.05-16.654-47.407-23.244
		c-4.726-1.904-7.007,0.207-7.039,5.601C98.877,16.927,98.912,24.744,98.904,32.56z M99.156,87.537c-0.079,0-0.157,0-0.236,0.001
		c0,2.832,0.253,5.691-0.059,8.488c-0.475,4.26,1.239,6.213,5.447,6.3c4.65,0.095,9.303,0.197,13.945,0.472
		c8.465,0.502,16.914-1.646,25.391-0.065c1.199,0.223,2.854,0.462,3.378-1.258c0.331-1.087-0.296-2.144-1.449-2.162
		c-3.963-0.061-6.507-3.1-9.81-4.539c-12.273-5.347-23.991-11.747-34.367-20.312c-2.229-1.84-2.155-0.053-2.191,1.108
		C99.079,79.556,99.156,83.548,99.156,87.537z"/>
	<path class="croski-st3" d="M269.415,203.973c-8.478,0-16.956,0.017-25.434-0.025c-0.91-0.004-2.601-0.347-2.602-0.535
		c-0.003-1.269,1.341-1.144,2.146-1.489c15.279-6.537,30.323-13.527,44.254-22.687c3.338-2.195,6.595-4.497,9.036-7.753
		c0.338-0.451,0.861-0.763,1.298-1.139c0.202,0.6,0.577,1.2,0.581,1.801c0.057,9.807,0.072,19.614,0.084,29.421
		c0.004,2.901-2.193,2.41-3.929,2.418c-8.478,0.038-16.956,0.017-25.434,0.017C269.415,203.993,269.415,203.983,269.415,203.973z"/>
	<path class="croski-st4" d="M255.773,103.122c-0.467-0.004-0.934-0.008-1.388-0.01c-0.809-0.989,0.022-1.067,0.67-1.067
		C255.693,102.045,256.53,102.106,255.773,103.122z"/>
	<path class="croski-st4" d="M261.814,103.887c0,0-0.059,0.12-0.059,0.121c0.143-0.057,0.285-0.116,0.427-0.174
		C262.06,103.852,261.937,103.87,261.814,103.887z"/>
	<polygon class="croski-st4" points="261.433,103.254 261.479,103.257 261.553,102.84 	"/>
	<path class="croski-st0" d="M290.072,49.102c-0.425,10.317-2.221,20.09-12.756,25.1c-12.939,6.153-34.852,3.018-36.513-18.632
		c-0.416-5.414-0.397-10.627,0.953-15.678c3.473-12.993,13.706-18.674,29.232-16.758c11.64,1.437,18.996,10.482,19.084,23.469
		C290.077,47.436,290.072,48.269,290.072,49.102z"/>
	<path class="croski-st5" d="M155.038,13.086c-2.48-3.384-6.751-3.722-9.987-5.834c-0.958-0.625-2.168-0.489-1.325-2.363
		c0.547-1.217,0.858-1.631,2.18-1.626c14.831,0.049,29.672-0.254,44.487,0.236c3.496,0.116,7.027,1.575,6.921,7.527
		c-0.503,28.321-0.308,56.656-0.157,84.985c0.022,4.068-1.097,5.199-5.264,5.518c-10.378,0.793-19.388-3.161-28.398-7.129
		c-11.138-4.906-21.798-10.765-32.142-17.202c-2.424-1.508-4.665-3.158-6.672-5.16c-4.98-4.965-4.926-7.559,1.422-10.313
		c8.575-3.72,17.525-6.493,26.649-8.781c10.797-2.708,21.849-5.237,29.678-14.291c3.458-3.999,2.745-8.057-1.363-11.44
		c-6.388-5.261-14.035-8.466-20.728-13.215c-1.316-0.934-3.504-0.636-5.29-0.907C155.049,13.09,155.038,13.086,155.038,13.086z"/>
	<path class="croski-st5" d="M98.908,32.56c0.004-7.817-0.031-15.633,0.016-23.45c0.032-5.393,2.313-7.505,7.039-5.601
		c16.358,6.59,32.461,13.852,47.407,23.244c8.75,5.499,7.842,9.615-1.163,14.873c-8.707,5.084-18.488,6.486-27.798,9.471
		c-7.898,2.532-15.986,4.419-23.215,8.763c-3.062,1.84-2.224-1.18-2.238-2.355C98.858,49.192,98.904,40.876,98.908,32.56z"/>
	<path class="croski-st5" d="M99.156,87.537c0-3.99-0.077-7.981,0.048-11.967c0.036-1.161-0.038-2.948,2.191-1.108
		c10.376,8.564,22.094,14.964,34.367,20.312c3.303,1.439,5.848,4.478,9.81,4.539c1.154,0.018,1.78,1.075,1.449,2.162
		c-0.524,1.72-2.179,1.482-3.378,1.258c-8.476-1.58-16.926,0.568-25.391,0.065c-4.641-0.275-9.295-0.377-13.945-0.472
		c-4.208-0.086-5.922-2.04-5.447-6.3c0.312-2.797,0.059-5.657,0.059-8.488C98.999,87.538,99.078,87.538,99.156,87.537z"/>
</g>
</svg>
