<?xml version="1.0" encoding="utf-8"?>
<!-- Generator: Adobe Illustrator 19.2.0, SVG Export Plug-In . SVG Version: 6.00 Build 0)  -->
<svg version="1.1" id="Layer_1" xmlns="http://www.w3.org/2000/svg" xmlns:xlink="http://www.w3.org/1999/xlink" x="0px" y="0px"
	 viewBox="0 0 150.353 40.05" style="enable-background:new 0 0 150.353 40.05;" xml:space="preserve">
<style type="text/css">
	.diners-st0{fill:#FFFFFF;}
	.diners-st1{fill:#004A97;}
</style>
<circle class="diners-st0" cx="20.172" cy="20.371" r="19.334"/>
<g>
	<g>
		<path d="M52.753,8.617c0-1.894-0.99-1.769-1.937-1.791V6.281c0.82,0.039,1.663,0.039,2.485,0.039c0.884,0,2.085-0.039,3.644-0.039
			c5.454,0,8.424,3.641,8.424,7.371c0,2.086-1.221,7.33-8.677,7.33c-1.072,0-2.065-0.041-3.054-0.041
			c-0.948,0-1.876,0.021-2.823,0.041v-0.549c1.261-0.127,1.875-0.168,1.937-1.6V8.617z M54.817,18.496
			c0,1.623,1.16,1.811,2.191,1.811c4.551,0,6.045-3.432,6.045-6.57c0-3.938-2.527-6.781-6.592-6.781
			c-0.864,0-1.262,0.06-1.643,0.084V18.496z"/>
		<path d="M66.109,20.434h0.399c0.59,0,1.011,0,1.011-0.697v-5.705c0-0.928-0.314-1.055-1.096-1.473v-0.338
			c0.991-0.297,2.17-0.693,2.255-0.76c0.148-0.082,0.272-0.104,0.38-0.104c0.104,0,0.146,0.125,0.146,0.293v8.086
			c0,0.697,0.465,0.697,1.053,0.697h0.357v0.549c-0.716,0-1.453-0.041-2.211-0.041c-0.758,0-1.516,0.021-2.295,0.041V20.434z
			 M68.364,8.113c-0.55,0-1.034-0.506-1.034-1.053c0-0.527,0.505-1.014,1.034-1.014c0.546,0,1.032,0.443,1.032,1.014
			C69.396,7.629,68.931,8.113,68.364,8.113z"/>
		<path d="M72.617,14.156c0-0.777-0.231-0.988-1.221-1.387v-0.402c0.904-0.295,1.768-0.57,2.779-1.01
			c0.063,0,0.125,0.041,0.125,0.207v1.373c1.203-0.865,2.235-1.58,3.646-1.58c1.791,0,2.422,1.305,2.422,2.947v5.432
			c0,0.697,0.465,0.697,1.053,0.697h0.38v0.549c-0.739,0-1.476-0.041-2.231-0.041c-0.76,0-1.518,0.021-2.276,0.041v-0.549h0.38
			c0.59,0,1.009,0,1.009-0.697v-5.451c0-1.203-0.735-1.791-1.937-1.791c-0.675,0-1.747,0.547-2.445,1.012v6.23
			c0,0.697,0.467,0.697,1.057,0.697h0.379v0.549c-0.737,0-1.477-0.041-2.236-0.041c-0.756,0-1.516,0.021-2.273,0.041v-0.549h0.382
			c0.589,0,1.009,0,1.009-0.697V14.156z"/>
		<path d="M83.404,15.17c-0.045,0.19-0.045,0.504,0,1.221c0.123,2.002,1.41,3.645,3.094,3.645c1.159,0,2.067-0.633,2.845-1.412
			l0.295,0.295c-0.97,1.285-2.169,2.38-3.896,2.38c-3.351,0-4.023-3.243-4.023-4.591c0-4.129,2.779-5.35,4.252-5.35
			c1.707,0,3.542,1.072,3.561,3.305c0,0.129,0,0.254-0.019,0.381L89.32,15.17H83.404z M87.132,14.494
			c0.524,0,0.586-0.273,0.586-0.525c0-1.076-0.652-1.939-1.832-1.939c-1.283,0-2.168,0.947-2.421,2.465H87.132z"/>
		<path d="M90.015,20.434h0.571c0.589,0,1.007,0,1.007-0.697V13.82c0-0.652-0.777-0.779-1.094-0.949v-0.312
			c1.537-0.654,2.382-1.201,2.572-1.201c0.124,0,0.188,0.061,0.188,0.274v1.894h0.045c0.524-0.82,1.41-2.168,2.694-2.168
			c0.526,0,1.199,0.356,1.199,1.115c0,0.568-0.397,1.076-0.989,1.076c-0.654,0-0.654-0.508-1.391-0.508
			c-0.357,0-1.537,0.484-1.537,1.75v4.945c0,0.697,0.42,0.697,1.011,0.697h1.179v0.549c-1.158-0.02-2.041-0.041-2.947-0.041
			c-0.864,0-1.748,0.021-2.508,0.041V20.434z"/>
		<path d="M98.124,18.055c0.276,1.389,1.118,2.57,2.656,2.57c1.241,0,1.702-0.76,1.702-1.496c0-2.484-4.588-1.688-4.588-5.076
			c0-1.182,0.949-2.695,3.266-2.695c0.673,0,1.578,0.19,2.399,0.609l0.148,2.148h-0.484c-0.21-1.326-0.948-2.086-2.297-2.086
			c-0.843,0-1.642,0.486-1.642,1.391c0,2.467,4.886,1.707,4.886,5.014c0,1.389-1.116,2.864-3.622,2.864
			c-0.846,0-1.834-0.294-2.571-0.714l-0.231-2.424L98.124,18.055z"/>
		<path d="M123.189,10.092h-0.526c-0.399-2.463-2.148-3.453-4.505-3.453c-2.425,0-5.943,1.621-5.943,6.674
			c0,4.258,3.038,7.312,6.278,7.312c2.085,0,3.813-1.432,4.235-3.644l0.482,0.125l-0.482,3.076
			c-0.885,0.549-3.268,1.116-4.658,1.116c-4.928,0-8.042-3.181-8.042-7.919c0-4.318,3.852-7.416,7.981-7.416
			c1.707,0,3.348,0.549,4.97,1.117L123.189,10.092z"/>
		<path d="M123.947,20.434h0.402c0.59,0,1.012,0,1.012-0.697V8.01c0-1.371-0.316-1.414-1.117-1.645V6.027
			c0.842-0.273,1.727-0.65,2.17-0.906c0.23-0.125,0.4-0.232,0.463-0.232c0.128,0,0.168,0.127,0.168,0.297v14.551
			c0,0.697,0.465,0.697,1.055,0.697h0.358v0.549c-0.713,0-1.452-0.041-2.213-0.041c-0.756,0-1.514,0.021-2.297,0.041V20.434z"/>
		<path d="M137.473,19.822c0,0.381,0.23,0.4,0.589,0.4c0.252,0,0.57-0.02,0.844-0.02v0.443c-0.908,0.084-2.634,0.525-3.037,0.651
			l-0.104-0.062v-1.704c-1.262,1.031-2.234,1.767-3.73,1.767c-1.137,0-2.314-0.735-2.314-2.503V13.4c0-0.549-0.085-1.076-1.262-1.18
			v-0.4c0.76-0.023,2.439-0.146,2.716-0.146c0.233,0,0.233,0.146,0.233,0.609v5.434c0,0.631,0,2.443,1.832,2.443
			c0.714,0,1.662-0.549,2.546-1.281v-5.67c0-0.42-1.011-0.65-1.767-0.863v-0.379c1.894-0.127,3.076-0.293,3.285-0.293
			c0.169,0,0.169,0.146,0.169,0.379V19.822z"/>
		<path d="M141.663,12.871c0.843-0.713,1.982-1.514,3.14-1.514c2.443,0,3.918,2.129,3.918,4.422c0,2.758-2.021,5.519-5.037,5.519
			c-1.558,0-2.377-0.505-2.926-0.735l-0.632,0.482l-0.44-0.23c0.186-1.242,0.292-2.467,0.292-3.75V8.01
			c0-1.371-0.314-1.414-1.115-1.645V6.027c0.845-0.273,1.727-0.65,2.17-0.906c0.229-0.125,0.399-0.232,0.465-0.232
			c0.126,0,0.166,0.127,0.166,0.297V12.871z M141.663,18.602c0,0.801,0.758,2.148,2.172,2.148c2.255,0,3.202-2.213,3.202-4.088
			c0-2.273-1.729-4.168-3.37-4.168c-0.783,0-1.435,0.506-2.004,0.992V18.602z"/>
	</g>
	<g>
		<path d="M50.793,33.228h0.16c0.412,0,0.849-0.055,0.849-0.652v-6.004c0-0.598-0.437-0.652-0.849-0.652h-0.16v-0.348
			c0.448,0,1.134,0.047,1.697,0.047c0.573,0,1.26-0.047,1.798-0.047v0.348h-0.16c-0.412,0-0.849,0.055-0.849,0.652v6.004
			c0,0.598,0.437,0.652,0.849,0.652h0.16v0.346c-0.55,0-1.238-0.045-1.81-0.045c-0.562,0-1.237,0.045-1.685,0.045V33.228z"/>
		<path d="M54.289,33.622c-0.554,0-1.24-0.045-1.81-0.045l0,0c-0.562,0-1.235,0.045-1.685,0.045l0,0h-0.051v-0.049v-0.344v-0.049
			h0.051h0.16c0.416-0.01,0.795-0.045,0.797-0.606l0,0v-6.004c-0.002-0.561-0.382-0.598-0.797-0.605l0,0h-0.211v-0.047v-0.395h0.051
			c0.45,0,1.136,0.045,1.697,0.045l0,0c0.57,0,1.256-0.045,1.798-0.045l0,0h0.051v0.051v0.391h-0.051h-0.159
			c-0.417,0.008-0.797,0.045-0.799,0.605l0,0v6.004c0.002,0.561,0.383,0.596,0.799,0.606l0,0h0.21v0.049v0.393H54.289L54.289,33.622
			z M54.239,33.524l0.001-0.244h-0.111c-0.409,0-0.898-0.072-0.9-0.705l0,0v-6.004c0.002-0.633,0.491-0.703,0.9-0.703l0,0h0.11
			v-0.244c-0.529,0-1.193,0.045-1.749,0.045l0,0c-0.544,0-1.203-0.043-1.647-0.045l0,0v0.244h0.11c0.408,0,0.897,0.07,0.897,0.703
			l0,0v6.004c0,0.633-0.489,0.705-0.897,0.705l0,0h-0.11v0.244c0.444-0.006,1.092-0.047,1.635-0.047l0,0
			C53.037,33.478,53.7,33.521,54.239,33.524L54.239,33.524z"/>
	</g>
	<g>
		<path d="M62.163,31.315l0.023-0.023v-4.297c0-0.939-0.654-1.076-0.999-1.076h-0.251v-0.348c0.538,0,1.067,0.047,1.605,0.047
			c0.469,0,0.941-0.047,1.408-0.047v0.348h-0.17c-0.482,0-1.022,0.09-1.022,1.453v5.217c0,0.4,0.014,0.801,0.069,1.156h-0.436
			l-5.901-6.578v4.721c0,1,0.193,1.34,1.076,1.34h0.195v0.346c-0.492,0-0.985-0.045-1.479-0.045c-0.512,0-1.042,0.045-1.557,0.045
			v-0.346h0.16c0.791,0,1.032-0.535,1.032-1.453v-4.826c0-0.642-0.53-1.029-1.043-1.029h-0.149v-0.348
			c0.434,0,0.882,0.047,1.316,0.047c0.344,0,0.678-0.047,1.021-0.047L62.163,31.315z"/>
		<path d="M62.826,33.796l-0.472-0.018l-5.817-6.482v4.592c0.015,0.998,0.166,1.281,1.028,1.293l0,0h0.246v0.047v0.395H57.76
			c-0.496,0-0.989-0.045-1.479-0.045l0,0c-0.511,0-1.038,0.045-1.559,0.045l0,0h-0.05v-0.049v-0.392h0.05h0.162
			c0.758-0.006,0.974-0.492,0.984-1.406l0,0v-4.826c-0.002-0.609-0.503-0.98-0.995-0.982l0,0h-0.201v-0.051v-0.391h0.05
			c0.439,0,0.886,0.045,1.318,0.045l0,0c0.34,0,0.672-0.045,1.06-0.027l0,0l5.036,5.668v-4.215
			c-0.006-0.912-0.613-1.021-0.949-1.029l0,0h-0.303v-0.051v-0.391h0.052c0.54,0,1.069,0.045,1.605,0.045l0,0
			c0.465,0,0.936-0.045,1.408-0.045l0,0h0.052v0.047v0.395h-0.052h-0.17c-0.475,0.014-0.958,0.057-0.972,1.406l0,0v5.217
			c0,0.398,0.012,0.799,0.067,1.148l0,0l0.01,0.059H62.826L62.826,33.796z M62.391,33.694h0.38c-0.052-0.344-0.06-0.727-0.06-1.105
			l0,0v-5.217c0-1.375,0.575-1.504,1.069-1.504l0,0h0.122v-0.244c-0.454,0.002-0.905,0.045-1.36,0.045l0,0
			c-0.525,0-1.036-0.043-1.555-0.045l0,0v0.244h0.201c0.353,0,1.047,0.156,1.047,1.127l0,0l-0.014,4.332l-0.025,0.021l-0.039,0.037
			l-5.096-5.762c-0.341,0-0.673,0.045-1.021,0.045l0,0c-0.419,0-0.851-0.043-1.266-0.045l0,0l-0.002,0.244h0.101
			c0.538,0,1.091,0.41,1.091,1.08l0,0v4.826c0,0.918-0.255,1.502-1.08,1.506l0,0l-0.11-0.004v0.248
			c0.496-0.006,1.006-0.047,1.506-0.047l0,0c0.48,0,0.956,0.041,1.429,0.047l0,0V33.28h-0.145c-0.902-0.004-1.126-0.395-1.126-1.393
			l0,0v-4.85L62.391,33.694L62.391,33.694z M62.163,31.315l0.037-0.033L62.163,31.315L62.163,31.315z M62.136,31.292v-0.004
			l-0.009-0.008L62.136,31.292L62.136,31.292z"/>
	</g>
	<g>
		<path d="M65.665,26.146c-0.86,0-0.891,0.207-1.065,1.043h-0.343c0.046-0.32,0.103-0.641,0.139-0.975
			c0.044-0.32,0.067-0.643,0.067-0.973h0.276c0.092,0.344,0.378,0.33,0.688,0.33h5.913c0.309,0,0.596-0.01,0.619-0.354l0.272,0.047
			c-0.042,0.307-0.089,0.617-0.124,0.928c-0.023,0.309-0.023,0.619-0.023,0.928l-0.343,0.129c-0.022-0.426-0.081-1.104-0.849-1.104
			h-1.879v6.098c0,0.885,0.402,0.984,0.951,0.984h0.217v0.346c-0.446,0-1.25-0.045-1.868-0.045c-0.687,0-1.491,0.045-1.938,0.045
			v-0.346h0.218c0.632,0,0.951-0.055,0.951-0.959v-6.123H65.665z"/>
		<path d="M70.185,33.622c-0.452,0-1.254-0.045-1.87-0.045l0,0c-0.687,0-1.487,0.045-1.938,0.045l0,0h-0.048v-0.049v-0.392h0.048
			h0.218c0.632-0.016,0.887-0.024,0.9-0.912l0,0v-6.074h-1.83v-0.049v-0.049h1.931v6.172c0,0.918-0.371,1.012-1.001,1.012l0,0
			h-0.168v0.242c0.453-0.004,1.223-0.045,1.888-0.045l0,0c0.598,0,1.364,0.041,1.817,0.045l0,0V33.28h-0.166
			c-0.555,0-1.003-0.135-1.003-1.037l0,0v-6.147h1.931c0.77,0.002,0.87,0.654,0.895,1.08l0,0l0.25-0.092
			c0-0.297,0.002-0.598,0.021-0.9l0,0c0.032-0.293,0.075-0.586,0.118-0.879l0,0l-0.174-0.029c-0.057,0.332-0.377,0.352-0.664,0.348
			l0,0h-5.911c-0.023,0-0.042,0-0.06,0l0,0c-0.27,0-0.563-0.014-0.665-0.332l0,0h-0.191c0,0.316-0.023,0.623-0.068,0.93l0,0
			c-0.033,0.314-0.085,0.617-0.127,0.918l0,0h0.245c0.152-0.797,0.249-1.057,1.104-1.043l0,0v0.049v0.049
			c-0.847,0.018-0.828,0.158-1.017,1.006l0,0l-0.006,0.039h-0.042H64.2l0.008-0.059c0.044-0.32,0.104-0.641,0.139-0.975l0,0
			c0.046-0.318,0.069-0.637,0.069-0.965l0,0V25.19h0.048h0.314l0.008,0.037c0.079,0.289,0.289,0.291,0.582,0.297l0,0
			c0.02,0,0.037,0,0.06,0l0,0h5.911c0.318-0.006,0.552-0.012,0.571-0.311l0,0l0.004-0.053l0.052,0.01l0.322,0.051l-0.006,0.049
			c-0.045,0.309-0.09,0.617-0.123,0.924l0,0c-0.023,0.307-0.023,0.617-0.023,0.926l0,0v0.035l-0.033,0.014l-0.406,0.148
			l-0.002-0.068c-0.031-0.43-0.077-1.055-0.801-1.055l0,0h-1.83v6.049c0.012,0.865,0.355,0.926,0.902,0.938l0,0h0.266v0.047v0.395
			H70.185L70.185,33.622z"/>
	</g>
	<g>
		<path d="M72.601,33.228h0.16c0.412,0,0.847-0.055,0.847-0.652v-6.004c0-0.598-0.434-0.652-0.847-0.652h-0.16v-0.348
			c0.696,0,1.893,0.047,2.853,0.047c0.964,0,2.154-0.047,2.932-0.047c-0.019,0.494-0.008,1.252,0.026,1.756l-0.347,0.092
			c-0.054-0.744-0.192-1.34-1.396-1.34h-1.59v3h1.359c0.689,0,0.84-0.387,0.906-1.006h0.342c-0.021,0.447-0.033,0.893-0.033,1.34
			c0,0.438,0.012,0.871,0.033,1.307l-0.342,0.068c-0.066-0.688-0.102-1.135-0.895-1.135H75.08v2.67c0,0.746,0.662,0.746,1.395,0.746
			c1.377,0,1.982-0.092,2.326-1.398l0.32,0.08c-0.148,0.609-0.286,1.213-0.389,1.822c-0.732,0-2.052-0.045-3.084-0.045
			c-1.031,0-2.395,0.045-3.047,0.045V33.228z"/>
		<path d="M78.732,33.622c-0.736,0-2.054-0.047-3.084-0.047l0,0c-1.031,0-2.393,0.047-3.047,0.047l0,0H72.55v-0.049v-0.346v-0.047
			h0.051h0.16c0.414-0.008,0.793-0.045,0.797-0.606l0,0v-6.004c-0.004-0.559-0.383-0.596-0.797-0.605l0,0H72.55v-0.047v-0.395h0.051
			c0.698,0,1.893,0.045,2.853,0.045l0,0c0.962,0,2.152-0.045,2.932-0.045l0,0h0.052v0.051c-0.01,0.172-0.014,0.375-0.014,0.594l0,0
			c0,0.394,0.014,0.828,0.035,1.154l0,0v0.041l-0.037,0.012l-0.402,0.106l-0.002-0.061c-0.068-0.742-0.166-1.283-1.348-1.293l0,0
			h-1.545v2.9h1.314c0.662-0.004,0.777-0.344,0.856-0.961l0,0l0.004-0.045h0.044h0.396v0.051c-0.023,0.447-0.037,0.893-0.037,1.34
			l0,0c0,0.434,0.014,0.869,0.037,1.307l0,0v0.039l-0.041,0.01l-0.399,0.078l-0.004-0.053c-0.079-0.699-0.083-1.082-0.845-1.092l0,0
			L75.124,29.7v2.623c0.002,0.697,0.602,0.693,1.35,0.697l0,0c1.381-0.008,1.933-0.076,2.277-1.363l0,0l0.012-0.047l0.049,0.01
			l0.367,0.096l-0.011,0.047c-0.148,0.606-0.284,1.213-0.388,1.818l0,0l-0.008,0.041H78.732L78.732,33.622z M78.69,33.522
			c0.099-0.578,0.229-1.158,0.372-1.734l0,0l-0.228-0.057c-0.343,1.283-1.007,1.396-2.36,1.387l0,0c-0.724,0-1.445,0-1.449-0.795
			l0,0v-2.719h1.426c0.801-0.01,0.881,0.475,0.938,1.127l0,0l0.248-0.051c-0.021-0.422-0.032-0.848-0.032-1.268l0,0
			c0-0.43,0.012-0.859,0.032-1.293l0,0h-0.248c-0.063,0.6-0.249,1.018-0.949,1.01l0,0h-1.414v-3.104h1.645
			c1.191-0.006,1.391,0.609,1.439,1.328l0,0l0.248-0.066c-0.02-0.324-0.031-0.736-0.031-1.119l0,0c0-0.199,0.004-0.383,0.01-0.545
			l0,0c-0.779,0.002-1.94,0.045-2.882,0.045l0,0c-0.941,0-2.103-0.043-2.804-0.045l0,0v0.244h0.111c0.408,0,0.896,0.07,0.898,0.703
			l0,0v6.004c-0.002,0.633-0.49,0.701-0.898,0.705l0,0H72.65v0.242c0.666-0.002,1.992-0.045,2.998-0.045l0,0
			C76.66,33.478,77.949,33.521,78.69,33.522L78.69,33.522z"/>
	</g>
	<g>
		<path d="M80.669,26.788c0-0.838-0.459-0.869-0.814-0.869h-0.209v-0.348c0.367,0,1.078,0.047,1.779,0.047
			c0.685,0,1.236-0.047,1.846-0.047c1.44,0,2.725,0.391,2.725,2.02c0,1.031-0.686,1.66-1.591,2.02l1.96,2.93
			c0.32,0.486,0.547,0.621,1.11,0.688v0.346c-0.378,0-0.744-0.045-1.122-0.045c-0.357,0-0.724,0.045-1.078,0.045
			c-0.882-1.156-1.64-2.395-2.385-3.715h-0.754v2.453c0,0.885,0.411,0.916,0.938,0.916h0.209v0.346c-0.656,0-1.32-0.045-1.974-0.045
			c-0.55,0-1.088,0.045-1.663,0.045v-0.346h0.209c0.422,0,0.814-0.191,0.814-0.617V26.788z M82.136,29.446h0.56
			c1.147,0,1.765-0.434,1.765-1.787c0-1.018-0.653-1.674-1.674-1.674c-0.346,0-0.492,0.037-0.65,0.047V29.446z"/>
		<path d="M87.475,33.622c-0.384,0-0.748-0.045-1.126-0.045l0,0c-0.348,0-0.716,0.045-1.115,0.027l0,0
			c-0.877-1.154-1.631-2.385-2.372-3.695l0,0h-0.677v2.402c0.012,0.863,0.358,0.855,0.889,0.869l0,0h0.257v0.047v0.395h-0.052
			c-0.656,0-1.322-0.045-1.972-0.045l0,0c-0.548,0-1.084,0.045-1.661,0.045l0,0h-0.047v-0.049v-0.392h0.047h0.209
			c0.412-0.004,0.758-0.184,0.762-0.57l0,0v-5.822c-0.008-0.812-0.406-0.811-0.762-0.822l0,0h-0.256v-0.047v-0.395h0.047
			c0.373,0,1.08,0.045,1.779,0.045l0,0c0.683,0,1.234-0.045,1.846-0.045l0,0c1.442,0,2.773,0.402,2.777,2.064l0,0
			c0,1.035-0.686,1.682-1.568,2.041l0,0l1.925,2.883c0.32,0.477,0.519,0.596,1.076,0.668l0,0l0.042,0.004v0.043v0.395H87.475
			L87.475,33.622z M82.134,29.81h0.783l0.014,0.025c0.746,1.318,1.5,2.555,2.344,3.689l0,0c0.351,0,0.719-0.047,1.074-0.047l0,0
			c0.366,0,0.721,0.039,1.076,0.045l0,0v-0.252c-0.538-0.064-0.789-0.227-1.102-0.701l0,0l-1.996-2.984l0.059-0.024
			c0.896-0.354,1.56-0.965,1.562-1.973l0,0c-0.002-1.588-1.238-1.959-2.677-1.965l0,0c-0.605,0-1.158,0.045-1.846,0.045l0,0
			c-0.676,0-1.354-0.043-1.729-0.045l0,0v0.244h0.158c0.355,0,0.86,0.059,0.86,0.92l0,0v5.822c0,0.461-0.429,0.67-0.86,0.67l0,0
			h-0.158v0.242c0.552-0.002,1.072-0.045,1.61-0.045l0,0c0.643,0,1.288,0.043,1.923,0.045l0,0V33.28h-0.156
			c-0.522,0-0.989-0.064-0.989-0.969l0,0V29.81H82.134L82.134,29.81z M82.134,29.495h-0.05v-3.51l0.044-0.004
			c0.156-0.014,0.311-0.043,0.658-0.043l0,0c1.043,0,1.723,0.678,1.725,1.723l0,0c-0.004,1.367-0.66,1.834-1.815,1.834l0,0H82.134
			L82.134,29.495z M82.696,29.398c1.134-0.012,1.707-0.404,1.717-1.736l0,0c-0.006-1-0.629-1.621-1.626-1.627l0,0
			c-0.311,0-0.455,0.027-0.602,0.043l0,0v3.32H82.696L82.696,29.398z"/>
	</g>
	<g>
		<path d="M95.255,31.315l0.021-0.023v-4.297c0-0.939-0.652-1.076-0.995-1.076h-0.253v-0.348c0.541,0,1.064,0.047,1.605,0.047
			c0.471,0,0.939-0.047,1.411-0.047v0.348h-0.171c-0.482,0-1.021,0.09-1.021,1.453v5.217c0,0.4,0.01,0.801,0.066,1.156h-0.434
			l-5.902-6.578v4.721c0,1,0.195,1.34,1.078,1.34h0.195v0.346c-0.494,0-0.988-0.045-1.48-0.045c-0.516,0-1.043,0.045-1.558,0.045
			v-0.346h0.157c0.793,0,1.033-0.535,1.033-1.453v-4.826c0-0.642-0.527-1.029-1.042-1.029h-0.148v-0.348
			c0.434,0,0.884,0.047,1.317,0.047c0.343,0,0.675-0.047,1.02-0.047L95.255,31.315z"/>
		<path d="M95.919,33.796l-0.471-0.018l-5.816-6.482v4.592c0.015,1,0.165,1.281,1.029,1.293l0,0h0.243v0.047v0.395h-0.05
			c-0.496,0-0.988-0.047-1.479-0.047l0,0c-0.513,0-1.043,0.047-1.558,0.047l0,0h-0.054v-0.049v-0.392h0.054h0.157
			c0.757-0.004,0.975-0.492,0.982-1.408l0,0v-4.824c-0.002-0.611-0.5-0.98-0.991-0.982l0,0h-0.202v-0.047v-0.395h0.054
			c0.436,0,0.886,0.045,1.317,0.045l0,0c0.338,0,0.669-0.045,1.053-0.031l0,0l5.039,5.672v-4.215
			c-0.001-0.912-0.613-1.023-0.946-1.029l0,0h-0.303v-0.047v-0.395h0.05c0.543,0,1.07,0.045,1.605,0.045l0,0
			c0.467,0,0.938-0.045,1.409-0.045l0,0h0.05v0.051v0.391h-0.05h-0.169c-0.473,0.012-0.961,0.057-0.973,1.406l0,0v5.217
			c0,0.398,0.01,0.795,0.067,1.148l0,0l0.006,0.059H95.919L95.919,33.796z M95.486,33.694h0.375
			c-0.048-0.342-0.059-0.727-0.059-1.105l0,0v-5.217c0-1.375,0.58-1.502,1.072-1.504l0,0h0.119v-0.244
			c-0.451,0.002-0.904,0.045-1.359,0.045l0,0c-0.525,0-1.038-0.043-1.555-0.045l0,0v0.244h0.202
			c0.353,0.002,1.048,0.156,1.048,1.127l0,0l-0.016,4.332l-0.021,0.021l-0.037,0.039l-5.1-5.764c-0.341,0-0.675,0.045-1.02,0.045
			l0,0c-0.425,0-0.854-0.043-1.27-0.045l0,0v0.244h0.101c0.538,0.002,1.091,0.408,1.091,1.08l0,0v4.824
			c0,0.92-0.26,1.504-1.082,1.508l0,0h-0.109v0.242c0.496-0.004,1.007-0.045,1.51-0.045l0,0c0.479,0,0.955,0.041,1.43,0.045l0,0
			V33.28h-0.145c-0.902,0-1.129-0.393-1.131-1.393l0,0v-4.85L95.486,33.694L95.486,33.694z M95.255,31.315l0.037-0.033
			L95.255,31.315L95.255,31.315z M95.228,31.292v-0.004l-0.007-0.008L95.228,31.292L95.228,31.292z"/>
	</g>
	<g>
		<path d="M98.89,31.935c-0.116,0.389-0.256,0.689-0.256,0.893c0,0.346,0.484,0.4,0.861,0.4h0.127v0.346
			c-0.461-0.023-0.93-0.045-1.389-0.045c-0.413,0-0.824,0.021-1.236,0.045v-0.346h0.067c0.447,0,0.827-0.264,0.995-0.744
			l1.836-5.258c0.148-0.426,0.357-0.998,0.424-1.424c0.367-0.125,0.826-0.354,1.044-0.492c0.035-0.012,0.054-0.021,0.091-0.021
			c0.033,0,0.057,0,0.081,0.033c0.034,0.092,0.067,0.195,0.104,0.287l2.107,5.994c0.137,0.4,0.274,0.826,0.423,1.17
			c0.139,0.32,0.38,0.455,0.758,0.455h0.067v0.346c-0.515-0.023-1.031-0.045-1.58-0.045c-0.561,0-1.135,0.021-1.718,0.045v-0.346
			h0.126c0.262,0,0.709-0.043,0.709-0.33c0-0.15-0.102-0.459-0.231-0.826l-0.445-1.33h-2.603L98.89,31.935z M100.562,26.857h-0.023
			l-1.066,3.244h2.143L100.562,26.857z"/>
		<path d="M104.992,33.622c-0.513-0.021-1.027-0.047-1.576-0.047l0,0c-0.561,0-1.131,0.025-1.718,0.047l0,0l-0.052,0.004v-0.053
			v-0.396h0.052h0.126c0.264,0,0.656-0.059,0.656-0.279l0,0c0.002-0.131-0.098-0.445-0.225-0.809l0,0l-0.436-1.297H99.29
			l-0.357,1.156c-0.117,0.393-0.252,0.695-0.252,0.881l0,0c0.004,0.279,0.434,0.348,0.814,0.348l0,0h0.175v0.053v0.396l-0.052-0.004
			c-0.459-0.021-0.928-0.047-1.385-0.047l0,0c-0.411,0-0.824,0.025-1.234,0.047l0,0l-0.051,0.004v-0.053v-0.396h0.049h0.067
			c0.427,0,0.781-0.244,0.946-0.709l0,0l1.837-5.26c0.15-0.426,0.356-0.996,0.455-1.451l0,0c0.358-0.125,0.819-0.355,1.042-0.494
			l0,0c0.032-0.012,0.062-0.027,0.109-0.027l0,0c0.027-0.002,0.091,0.008,0.125,0.068l0,0c0.035,0.094,0.07,0.195,0.104,0.287l0,0
			l2.112,5.996c0.135,0.4,0.271,0.824,0.42,1.162l0,0c0.133,0.307,0.344,0.428,0.712,0.428l0,0h0.118v0.053v0.396L104.992,33.622
			L104.992,33.622z M101.746,33.519c0.565-0.018,1.123-0.041,1.67-0.041l0,0c0.533,0,1.031,0.023,1.53,0.041l0,0V33.28h-0.018
			c-0.392,0.004-0.661-0.152-0.804-0.488l0,0c-0.148-0.348-0.288-0.773-0.423-1.174l0,0l-2.11-5.994
			c-0.035-0.092-0.069-0.195-0.098-0.277l0,0c-0.012-0.012-0.008-0.012-0.018-0.012l0,0c-0.006,0-0.014,0-0.021,0l0,0
			c-0.023,0-0.037,0.008-0.065,0.016l0,0c-0.222,0.143-0.683,0.369-1.022,0.459l0,0c-0.069,0.435-0.275,1.006-0.426,1.43l0,0
			l-1.832,5.262c-0.176,0.498-0.577,0.779-1.044,0.779l0,0h-0.018v0.238c0.392-0.018,0.789-0.041,1.186-0.041l0,0
			c0.443,0,0.897,0.023,1.334,0.041l0,0V33.28h-0.072c-0.375-0.004-0.896-0.045-0.909-0.451l0,0c0-0.229,0.14-0.523,0.253-0.908l0,0
			l0.051,0.014l-0.051-0.016l0.378-1.225h2.671l0.459,1.361c0.13,0.369,0.234,0.674,0.234,0.842l0,0
			c-0.018,0.352-0.5,0.377-0.758,0.383l0,0h-0.078V33.519L101.746,33.519z M99.402,30.151l1.098-3.344h0.039h0.023v0.049
			l-0.012,0.004l0.012-0.004v-0.049h0.034l1.088,3.344H99.402L99.402,30.151z M99.54,30.052h2.006l-0.997-3.072L99.54,30.052
			L99.54,30.052z M100.511,26.872l0.027-0.008L100.511,26.872L100.511,26.872z"/>
	</g>
	<g>
		<path d="M105.501,26.146c-0.861,0-0.894,0.207-1.066,1.043h-0.346c0.047-0.32,0.105-0.641,0.139-0.975
			c0.047-0.32,0.069-0.643,0.069-0.973h0.274c0.092,0.344,0.379,0.33,0.688,0.33h5.914c0.309,0,0.594-0.01,0.617-0.354l0.275,0.047
			c-0.044,0.307-0.088,0.617-0.125,0.928c-0.027,0.309-0.027,0.619-0.027,0.928l-0.341,0.129c-0.02-0.426-0.079-1.104-0.847-1.104
			h-1.879v6.098c0,0.885,0.401,0.984,0.951,0.984h0.216v0.346c-0.445,0-1.247-0.045-1.866-0.045c-0.688,0-1.492,0.045-1.939,0.045
			v-0.346h0.219c0.633,0,0.954-0.055,0.954-0.959v-6.123H105.501z"/>
		<path d="M110.014,33.622c-0.447,0-1.249-0.045-1.866-0.045l0,0c-0.686,0-1.486,0.045-1.939,0.045l0,0h-0.048v-0.049v-0.392h0.048
			h0.219c0.633-0.016,0.885-0.024,0.9-0.912l0,0v-6.074h-1.826v-0.049v-0.049h1.926v6.172c0,0.918-0.369,1.008-1,1.012l0,0h-0.168
			v0.244c0.453-0.006,1.223-0.047,1.889-0.047l0,0c0.598,0,1.365,0.041,1.818,0.047l0,0l-0.002-0.244h-0.168
			c-0.552-0.004-0.997-0.135-0.999-1.037l0,0v-6.147h1.929c0.771,0.002,0.869,0.654,0.893,1.08l0,0l0.249-0.092
			c0-0.297,0-0.598,0.024-0.899l0,0c0.031-0.295,0.076-0.588,0.116-0.879l0,0l-0.171-0.031c-0.055,0.332-0.377,0.352-0.664,0.348
			l0,0h-5.914c-0.022,0-0.041,0-0.059,0l0,0c-0.271,0.002-0.562-0.014-0.666-0.336l0,0h-0.188c-0.004,0.32-0.024,0.627-0.07,0.934
			l0,0c-0.031,0.316-0.088,0.617-0.13,0.918l0,0h0.247c0.15-0.797,0.248-1.059,1.107-1.043l0,0v0.049v0.049
			c-0.852,0.016-0.832,0.158-1.019,1.006l0,0l-0.008,0.039h-0.04h-0.404l0.008-0.059c0.047-0.32,0.104-0.641,0.139-0.971l0,0
			c0.047-0.322,0.068-0.641,0.068-0.969l0,0V25.19h0.052h0.31l0.01,0.037c0.081,0.289,0.292,0.291,0.583,0.297l0,0
			c0.021,0,0.038,0,0.059,0l0,0h5.914c0.316-0.006,0.55-0.012,0.568-0.311l0,0l0.002-0.053l0.055,0.01l0.326,0.051l-0.01,0.049
			c-0.049,0.309-0.091,0.617-0.125,0.924l0,0c-0.021,0.307-0.021,0.617-0.021,0.926l0,0v0.035l-0.035,0.014l-0.406,0.148v-0.068
			c-0.029-0.43-0.076-1.055-0.801-1.055l0,0h-1.83v6.049c0.012,0.865,0.354,0.926,0.9,0.938l0,0h0.268v0.047v0.395H110.014
			L110.014,33.622z"/>
	</g>
	<g>
		<path d="M112.489,33.228h0.16c0.415,0,0.849-0.055,0.849-0.652v-6.004c0-0.598-0.434-0.652-0.849-0.652h-0.16v-0.348
			c0.447,0,1.134,0.047,1.695,0.047c0.573,0,1.261-0.047,1.802-0.047v0.348h-0.16c-0.415,0-0.853,0.055-0.853,0.652v6.004
			c0,0.598,0.438,0.652,0.853,0.652h0.16v0.346c-0.552,0-1.238-0.045-1.812-0.045c-0.563,0-1.238,0.045-1.685,0.045V33.228z"/>
		<path d="M115.986,33.622c-0.554,0-1.24-0.047-1.812-0.047l0,0c-0.561,0-1.238,0.047-1.685,0.047l0,0h-0.048v-0.049v-0.346v-0.047
			h0.048h0.16c0.415-0.008,0.794-0.045,0.796-0.606l0,0v-6.004c-0.002-0.559-0.381-0.598-0.796-0.605l0,0h-0.208v-0.047v-0.395
			h0.048c0.447,0,1.136,0.045,1.695,0.045l0,0c0.573,0,1.259-0.045,1.802-0.045l0,0h0.046v0.047v0.395h-0.046h-0.16
			c-0.419,0.008-0.797,0.047-0.801,0.605l0,0v6.004c0.004,0.561,0.382,0.598,0.801,0.606l0,0h0.206v0.047v0.395H115.986
			L115.986,33.622z M115.933,33.522V33.28h-0.107c-0.411,0-0.898-0.072-0.898-0.705l0,0v-6.004c0-0.633,0.487-0.703,0.898-0.703l0,0
			h0.107v-0.244c-0.528,0.002-1.189,0.045-1.749,0.045l0,0c-0.544,0-1.202-0.043-1.646-0.045l0,0v0.244h0.11
			c0.407,0,0.898,0.07,0.898,0.703l0,0v6.004c0,0.633-0.49,0.705-0.898,0.705l0,0h-0.11v0.242c0.443-0.006,1.09-0.045,1.636-0.045
			l0,0C114.73,33.478,115.394,33.519,115.933,33.522L115.933,33.522z"/>
	</g>
	<g>
		<path d="M120.556,25.401c2.442,0,4.391,1.514,4.391,3.955c0,2.637-1.891,4.389-4.332,4.389c-2.433,0-4.285-1.648-4.285-4.115
			C116.33,27.249,118.173,25.401,120.556,25.401z M120.728,33.241c2.227,0,2.611-1.961,2.611-3.631c0-1.676-0.902-3.703-2.806-3.703
			c-2.005,0-2.601,1.787-2.601,3.32C117.933,31.28,118.873,33.241,120.728,33.241z"/>
		<path d="M116.277,29.63c0.006-2.41,1.871-4.275,4.279-4.279l0,0v0.051v0.051c-2.358,0-4.182,1.82-4.182,4.178l0,0
			c0.004,2.438,1.833,4.063,4.24,4.064l0,0c2.416-0.002,4.279-1.729,4.285-4.34l0,0c-0.002-2.41-1.921-3.9-4.344-3.902l0,0v-0.051
			v-0.051c2.461,0.004,4.435,1.533,4.438,4.004l0,0c-0.002,2.664-1.915,4.436-4.38,4.441l0,0
			C118.164,33.79,116.283,32.12,116.277,29.63L116.277,29.63z M117.881,29.228c0.004-1.541,0.608-3.373,2.652-3.373l0,0
			c1.948,0.004,2.854,2.07,2.856,3.756l0,0c-0.002,1.67-0.396,3.678-2.662,3.678l0,0v-0.047v-0.049
			c2.182-0.002,2.558-1.912,2.563-3.582l0,0c0-1.662-0.896-3.652-2.758-3.654l0,0c-1.966,0.002-2.548,1.746-2.552,3.271l0,0
			c0.002,2.043,0.934,3.959,2.746,3.965l0,0v0.049v0.047C118.827,33.286,117.885,31.292,117.881,29.228L117.881,29.228z"/>
	</g>
	<g>
		<path d="M132.671,31.315l0.022-0.023v-4.297c0-0.939-0.653-1.076-1.001-1.076h-0.246v-0.348c0.535,0,1.064,0.047,1.602,0.047
			c0.473,0,0.941-0.047,1.41-0.047v0.348h-0.172c-0.482,0-1.021,0.09-1.021,1.453v5.217c0,0.4,0.014,0.801,0.069,1.156h-0.437
			l-5.901-6.578v4.721c0,1,0.194,1.34,1.078,1.34h0.194v0.346c-0.493,0-0.984-0.045-1.479-0.045c-0.516,0-1.044,0.045-1.561,0.045
			v-0.346h0.162c0.793,0,1.029-0.535,1.029-1.453v-4.826c0-0.642-0.524-1.029-1.043-1.029h-0.148v-0.348
			c0.438,0,0.883,0.047,1.319,0.047c0.343,0,0.675-0.047,1.019-0.047L132.671,31.315z"/>
		<path d="M133.335,33.796l-0.475-0.018l-5.815-6.482v4.592c0.014,1,0.166,1.279,1.026,1.289l0,0h0.249v0.053v0.393h-0.051
			c-0.495,0-0.988-0.045-1.479-0.045l0,0c-0.514,0-1.04,0.045-1.561,0.045l0,0h-0.047v-0.049v-0.396h0.047h0.162
			c0.756-0.002,0.974-0.488,0.979-1.402l0,0v-4.826c0-0.611-0.499-0.98-0.993-0.982l0,0h-0.195v-0.047v-0.395h0.047
			c0.439,0,0.887,0.045,1.319,0.045l0,0c0.339,0,0.669-0.045,1.059-0.027l0,0l5.034,5.668v-4.215
			c-0.002-0.912-0.611-1.021-0.949-1.029l0,0h-0.299v-0.047v-0.395h0.051c0.539,0,1.07,0.045,1.6,0.045l0,0
			c0.473,0,0.938-0.045,1.414-0.045l0,0h0.049v0.047v0.395h-0.049h-0.172c-0.471,0.014-0.96,0.057-0.97,1.406l0,0v5.217
			c0,0.398,0.01,0.799,0.064,1.148l0,0l0.01,0.059H133.335L133.335,33.796z M132.898,33.694h0.379
			c-0.051-0.344-0.061-0.727-0.061-1.105l0,0v-5.217c0-1.377,0.579-1.502,1.07-1.504l0,0h0.124v-0.244
			c-0.455,0.002-0.907,0.045-1.366,0.045l0,0c-0.518,0-1.031-0.043-1.551-0.045l0,0v0.244h0.199
			c0.357,0.002,1.049,0.158,1.049,1.127l0,0l-0.014,4.332l-0.02,0.021l-0.036,0.039l-5.104-5.764c-0.338,0-0.672,0.045-1.019,0.045
			l0,0c-0.423,0-0.854-0.043-1.269-0.045l0,0v0.244h0.099c0.54,0.002,1.094,0.408,1.094,1.08l0,0v4.826
			c0,0.918-0.255,1.502-1.08,1.506l0,0h-0.112v0.242c0.498-0.004,1.007-0.045,1.511-0.045l0,0c0.479,0,0.955,0.041,1.429,0.045l0,0
			V33.28h-0.148c-0.899,0-1.124-0.393-1.124-1.393l0,0v-4.85L132.898,33.694L132.898,33.694z M132.671,31.315l0.036-0.033
			L132.671,31.315L132.671,31.315z M132.642,31.292v-0.004l-0.01-0.008L132.642,31.292L132.642,31.292z"/>
	</g>
	<g>
		<path d="M136.3,31.935c-0.111,0.389-0.25,0.689-0.25,0.893c0,0.346,0.484,0.4,0.857,0.4h0.128v0.346
			c-0.459-0.023-0.928-0.045-1.387-0.045c-0.417,0-0.827,0.021-1.236,0.045v-0.346h0.063c0.449,0,0.83-0.264,0.999-0.744
			l1.837-5.258c0.148-0.426,0.354-0.998,0.422-1.424c0.366-0.125,0.825-0.354,1.043-0.492c0.035-0.012,0.059-0.021,0.093-0.021
			c0.032,0,0.054,0,0.079,0.033c0.035,0.092,0.067,0.195,0.105,0.287l2.107,5.994c0.135,0.4,0.275,0.826,0.424,1.17
			c0.137,0.32,0.38,0.455,0.758,0.455h0.067v0.346c-0.515-0.023-1.032-0.045-1.581-0.045c-0.561,0-1.137,0.021-1.721,0.045v-0.346
			h0.127c0.263,0,0.712-0.043,0.712-0.33c0-0.15-0.105-0.459-0.232-0.826l-0.445-1.33h-2.6L136.3,31.935z M137.974,26.857h-0.022
			l-1.066,3.244h2.146L137.974,26.857z"/>
		<path d="M142.408,33.622c-0.516-0.02-1.033-0.045-1.578-0.045l0,0c-0.56,0-1.135,0.025-1.719,0.045l0,0l-0.051,0.004v-0.053
			v-0.392h0.049h0.125c0.267,0,0.662-0.062,0.664-0.283l0,0c0.002-0.131-0.101-0.443-0.231-0.809l0,0l-0.435-1.297h-2.53
			l-0.353,1.156l0,0c-0.114,0.395-0.253,0.695-0.249,0.879l0,0c0,0.281,0.429,0.354,0.808,0.354l0,0h0.176v0.047v0.398l-0.052-0.004
			c-0.457-0.02-0.928-0.045-1.383-0.045l0,0c-0.413,0-0.823,0.025-1.236,0.045l0,0l-0.05,0.004v-0.053v-0.392h0.05h0.063
			c0.428-0.004,0.787-0.25,0.953-0.713l0,0l1.834-5.26c0.146-0.426,0.354-0.996,0.453-1.451l0,0
			c0.361-0.125,0.822-0.355,1.043-0.494l0,0c0.029-0.012,0.064-0.025,0.11-0.025l0,0c0.028-0.004,0.089,0.006,0.126,0.068l0,0
			c0.032,0.09,0.066,0.193,0.104,0.285l0,0l2.108,5.996c0.137,0.4,0.275,0.824,0.425,1.164l0,0c0.135,0.305,0.341,0.426,0.709,0.43
			l0,0h0.117v0.047v0.398L142.408,33.622L142.408,33.622z M139.16,33.521c0.564-0.02,1.124-0.043,1.67-0.043l0,0
			c0.532,0,1.031,0.023,1.529,0.041l0,0V33.28h-0.018c-0.388,0-0.66-0.152-0.803-0.488l0,0c-0.152-0.348-0.289-0.773-0.426-1.174
			l0,0l-2.105-5.994c-0.035-0.092-0.072-0.195-0.1-0.273l0,0c-0.01-0.016-0.01-0.016-0.019-0.016l0,0c-0.004,0-0.012,0-0.02,0l0,0
			c-0.024,0-0.036,0.008-0.067,0.016l0,0c-0.222,0.141-0.679,0.371-1.022,0.459l0,0c-0.067,0.435-0.277,1.006-0.423,1.43l0,0
			l-1.836,5.262c-0.175,0.498-0.572,0.779-1.045,0.779l0,0h-0.018v0.238c0.396-0.018,0.791-0.041,1.19-0.041l0,0
			c0.443,0,0.895,0.023,1.339,0.041l0,0V33.28h-0.08c-0.371-0.004-0.895-0.045-0.908-0.453l0,0c0.002-0.227,0.145-0.52,0.257-0.906
			l0,0l0.044,0.014l-0.044-0.016l0.376-1.225h2.674l0.457,1.361c0.129,0.369,0.23,0.674,0.23,0.842l0,0
			c-0.017,0.352-0.497,0.377-0.76,0.383l0,0h-0.074V33.521L139.16,33.521z M136.816,30.148l1.104-3.34h0.032h0.022v0.049
			l-0.011,0.004l0.011-0.004v-0.049h0.037l1.084,3.34H136.816L136.816,30.148z M136.955,30.05h2.006l-0.999-3.068L136.955,30.05
			L136.955,30.05z M137.931,26.872l0.02-0.008L137.931,26.872L137.931,26.872z"/>
	</g>
	<g>
		<path d="M145.3,32.45c0,0.459,0.318,0.596,0.685,0.643c0.471,0.035,0.985,0.035,1.516-0.023c0.478-0.055,0.894-0.332,1.098-0.619
			c0.183-0.254,0.284-0.572,0.356-0.826h0.332c-0.127,0.654-0.287,1.297-0.426,1.949c-1.008,0-2.018-0.045-3.022-0.045
			c-1.011,0-2.02,0.045-3.028,0.045v-0.346h0.158c0.416,0,0.862-0.055,0.862-0.768v-5.889c0-0.598-0.446-0.652-0.862-0.652h-0.158
			v-0.348c0.607,0,1.205,0.047,1.811,0.047c0.585,0,1.158-0.047,1.744-0.047v0.348h-0.289c-0.434,0-0.775,0.012-0.775,0.619V32.45z"
			/>
		<path d="M148.861,33.622c-1.01,0-2.018-0.045-3.022-0.045l0,0c-1.011,0-2.02,0.045-3.03,0.045l0,0h-0.047v-0.049v-0.392h0.047
			h0.16c0.416-0.01,0.811-0.039,0.814-0.721l0,0v-5.891c-0.004-0.557-0.395-0.596-0.814-0.603l0,0h-0.207v-0.047v-0.395h0.047
			c0.611,0,1.207,0.045,1.812,0.045l0,0c0.583,0,1.156-0.045,1.744-0.045l0,0h0.045v0.047v0.395h-0.045h-0.289
			c-0.443,0.012-0.722-0.008-0.731,0.572l0,0v5.912c0.006,0.428,0.284,0.541,0.645,0.594l0,0c0.2,0.014,0.415,0.021,0.634,0.021l0,0
			c0.28,0,0.571-0.014,0.871-0.045l0,0c0.465-0.057,0.865-0.324,1.064-0.598l0,0c0.177-0.246,0.277-0.561,0.345-0.811l0,0
			l0.012-0.039h0.04h0.393l-0.012,0.062c-0.128,0.654-0.286,1.295-0.425,1.949l0,0l-0.012,0.037H148.861L148.861,33.622z
			 M148.822,33.522c0.133-0.621,0.283-1.23,0.403-1.85l0,0h-0.235c-0.069,0.252-0.172,0.559-0.354,0.807l0,0
			c-0.213,0.299-0.638,0.578-1.136,0.639l0,0c-0.301,0.033-0.598,0.047-0.878,0.047l0,0c-0.221,0-0.439-0.01-0.645-0.023l0,0
			c-0.37-0.043-0.733-0.201-0.73-0.691l0,0v-5.912c0-0.639,0.401-0.67,0.828-0.67l0,0h0.238v-0.244
			c-0.564,0.002-1.124,0.045-1.693,0.045l0,0c-0.596,0-1.176-0.043-1.762-0.045l0,0v0.244h0.109c0.41,0,0.91,0.07,0.91,0.701l0,0
			v5.891c0,0.742-0.498,0.82-0.91,0.82l0,0h-0.109v0.242c0.988-0.002,1.982-0.045,2.98-0.045l0,0
			C146.833,33.478,147.827,33.521,148.822,33.522L148.822,33.522z"/>
	</g>
	<path d="M149.146,25.249c0.69,0,1.207,0.531,1.207,1.209s-0.517,1.203-1.207,1.203c-0.689,0-1.207-0.525-1.207-1.203
		S148.457,25.249,149.146,25.249z M149.146,27.437c0.54,0,0.955-0.459,0.955-0.979s-0.407-0.984-0.955-0.984
		c-0.544,0-0.957,0.465-0.957,0.984S148.602,27.437,149.146,27.437z M148.546,27.095v-0.06c0.146-0.02,0.176-0.014,0.176-0.107
		v-0.893c0-0.127-0.014-0.17-0.172-0.162V25.81h0.619c0.21,0,0.406,0.104,0.406,0.32c0,0.182-0.117,0.312-0.285,0.365l0.197,0.277
		c0.094,0.123,0.198,0.242,0.268,0.283v0.039h-0.235c-0.112,0-0.21-0.238-0.433-0.555h-0.133v0.398c0,0.082,0.027,0.076,0.174,0.096
		v0.06H148.546z M148.955,26.458h0.141c0.156,0,0.229-0.117,0.229-0.307c0-0.193-0.114-0.26-0.236-0.26h-0.133V26.458z"/>
</g>
<path class="diners-st1" d="M20.199,40.05C9.119,40.103,0,31.126,0,20.199C0,8.258,9.119-0.002,20.199,0h5.192
	c10.948-0.002,20.941,8.254,20.941,20.199c0,10.923-9.993,19.851-20.941,19.851H20.199z M20.243,1.656
	C10.118,1.66,1.915,9.865,1.914,19.99c0.002,10.124,8.205,18.327,18.33,18.329c10.125-0.002,18.331-8.205,18.333-18.329
	C38.574,9.865,30.369,1.66,20.243,1.656z M16.082,30.831V9.147c-4.357,1.678-7.447,5.894-7.458,10.844
	C8.635,24.938,11.725,29.155,16.082,30.831z M31.865,19.99c-0.008-4.951-3.104-9.174-7.463-10.846v21.691
	C28.761,29.161,31.856,24.942,31.865,19.99z"/>
</svg>
