<?xml version="1.0" encoding="utf-8"?>
<!-- Generator: Adobe Illustrator 19.1.0, SVG Export Plug-In . SVG Version: 6.00 Build 0)  -->
<!DOCTYPE svg PUBLIC "-//W3C//DTD SVG 1.1//EN" "http://www.w3.org/Graphics/SVG/1.1/DTD/svg11.dtd">
<svg version="1.1" id="Ebene_2" xmlns="http://www.w3.org/2000/svg" xmlns:xlink="http://www.w3.org/1999/xlink" x="0px" y="0px"
	 viewBox="0 0 196 43" enable-background="new 0 0 196 43" xml:space="preserve">
<g>
	<polygon fill-rule="evenodd" clip-rule="evenodd" fill="#9BA0A2" points="6.2,18.6 0,18.6 8.1,34.1 11.7,34.1 19.8,18.6 13.6,18.6 
		9.9,26.6 	"/>
	<path fill-rule="evenodd" clip-rule="evenodd" fill="#9BA0A2" d="M24.1,24.1c0.3-1.6,1.7-2.5,3.3-2.5c1.5,0,2.8,1,3.1,2.5H24.1z
		 M35.6,26.7c0-5.3-3.1-8.6-8.5-8.6c-5.1,0-8.6,3.1-8.6,8.3c0,5.4,3.8,8.3,9,8.3c3.5,0,7-1.7,7.9-5.3h-5.3c-0.6,1-1.5,1.4-2.6,1.4
		c-2.3,0-3.5-1.2-3.5-3.5h11.6V26.7z"/>
	<polygon fill-rule="evenodd" clip-rule="evenodd" fill="#9BA0A2" points="43.2,23.1 46.3,23.1 46.3,18.6 43.2,18.6 43.2,13.9 
		37.7,13.9 37.7,18.6 35.9,18.6 35.9,23.1 37.7,23.1 37.7,34.1 43.2,34.1 	"/>
	<path fill-rule="evenodd" clip-rule="evenodd" fill="#9BA0A2" d="M53,18.6h-5.5v15.5H53v-6.3c0-2.7,0.8-4.7,3.8-4.7
		c0.8,0,1.6,0.1,2.3,0.5v-5.3H58c-2.2,0-4,0.8-5,2.8H53V18.6z"/>
	<path fill-rule="evenodd" clip-rule="evenodd" fill="#0061AD" d="M68.2,18.1c-5,0-9.4,3-9.4,8.3s4.4,8.3,9.4,8.3c5,0,9.4-3,9.4-8.3
		C77.6,21.1,73.2,18.1,68.2,18.1z M68.2,22.9c2.2,0,3.5,1.6,3.5,3.5c0,2-1.3,3.5-3.5,3.5c-2.2,0-3.5-1.5-3.5-3.5
		C64.7,24.5,66,22.9,68.2,22.9z"/>
	<path fill-rule="evenodd" clip-rule="evenodd" fill="#9BA0A2" d="M84.5,18.6h-5.5v23.3h5.5v-9.2c1.2,1.4,3,2,4.8,2
		c4.6,0,7.8-3.8,7.8-8.2c0-4.5-3.2-8.3-7.8-8.3c-1.8,0-3.7,0.7-4.7,2.3h-0.1V18.6z M87.8,22.9c2.2,0,3.5,1.6,3.5,3.5
		c0,2-1.3,3.5-3.5,3.5c-2.2,0-3.5-1.5-3.5-3.5C84.3,24.5,85.6,22.9,87.8,22.9z"/>
	<path fill-rule="evenodd" clip-rule="evenodd" fill="#9BA0A2" d="M107.3,22.9c2.2,0,3.5,1.6,3.5,3.5c0,2-1.3,3.5-3.5,3.5
		c-2.2,0-3.5-1.5-3.5-3.5C103.7,24.5,105,22.9,107.3,22.9z M116.1,18.6h-5.5v1.5c-1.2-1.4-3-2-4.8-2c-4.6,0-7.8,3.8-7.8,8.3
		s3.2,8.3,7.8,8.3c1.8,0,3.7-0.7,4.7-2.2h0.1v1.7h5.5V18.6z"/>
	<path fill-rule="evenodd" clip-rule="evenodd" fill="#9BA0A2" d="M129.8,19c-1.1-0.6-2.4-0.9-3.6-0.9c-4.9,0-8.7,3.5-8.7,8.4
		c0,4.7,3.8,8.1,8.4,8.1c1.3,0,2.7-0.3,3.9-0.9v-4.7c-0.7,0.7-1.8,1.1-2.8,1.1c-2.3,0-3.9-1.6-3.9-3.8c0-2.1,1.7-3.8,3.8-3.8
		c1.1,0,2,0.5,2.8,1.1V19z"/>
	<polygon fill-rule="evenodd" clip-rule="evenodd" fill="#9BA0A2" points="137.2,9 131.7,9 131.7,34.1 137.2,34.1 137.2,27.8 
		143.2,34.1 150.9,34.1 142.7,25.8 150.5,18.6 142.9,18.6 137.2,24.2 	"/>
	<path fill-rule="evenodd" clip-rule="evenodd" fill="#0061AD" d="M179.4,9.2c0.5,0.9,0.4,1.9-0.2,2.7l-2.5,4.3
		c-1-1.6-2-3.1-2.8-4.8c-0.5-0.9-0.3-2.2,0.5-3c0.8-0.9,2.1-1.4,3.3-0.9C178.4,7.9,179,8.4,179.4,9.2z M172.9,22.9l-2.6,4.5
		c-0.6,1-1.8,1.6-3.1,1.4c-1-0.2-1.8-0.9-2.3-1.9c-0.4-0.9-0.2-2.1,0.5-2.9c0.5-0.7,1.5-1.1,2.4-1.1L172.9,22.9L172.9,22.9z
		 M187.2,23.1c1,0.6,1.6,1.8,1.5,3.1c-0.1,1.2-1,2.2-2,2.6c-1.2,0.3-2.3-0.1-3-0.8l-0.5-0.5l-2.7-4.6l4.3-0.1
		C185.7,22.7,186.6,22.7,187.2,23.1z M180.4,22.7H173l3.6-6.3L180.4,22.7z M185,6.3c1.6,3.3,1,7.5-1.5,10.3c1.6-0.3,3.5-0.3,4.9,0.3
		c3.5,1.1,6.2,4.3,6.5,8.2c0.4,3.7-1.6,7.1-4.7,8.9c-2.3,1.4-5.9,1.6-8.3,0.4c-2.5-1.1-4.3-3.1-5.1-5.7c-0.2,0.4-0.4,0.7-0.5,1.1
		c-1.6,3.3-4.9,5.5-8.7,5.4c-3.9-0.1-7.3-2.6-8.6-6.2c-1.3-3.3-0.3-7.2,2.2-9.7c2.2-2.2,5.2-3.1,8.4-2.6c-2.2-2.4-3-6.2-1.9-9.3
		c1.3-3.6,4.8-6.2,8.5-6.3C180.1,0.9,183.5,3,185,6.3z"/>
</g>
</svg>
